<?xml version="1.0" encoding="UTF-8"?>
<svg id="Layer_1" xmlns="http://www.w3.org/2000/svg" xmlns:xlink="http://www.w3.org/1999/xlink" viewBox="0 0 1262.1 803.38">
  <defs>
    <style>
      .cls-1 {
        fill: #571d0c;
      }

      .cls-2 {
        fill: #673b16;
      }

      .cls-3 {
        fill: #874f26;
      }

      .cls-4 {
        fill: #cb4544;
        opacity: .2;
      }

      .cls-5 {
        fill: #fff7d7;
      }

      .cls-6 {
        opacity: .53;
      }

      .cls-6, .cls-7 {
        fill: #1d1d1d;
      }

      .cls-8 {
        fill: #7d4a28;
      }

      .cls-9 {
        fill: #5f3a1c;
        opacity: .39;
      }

      .cls-10 {
        fill: #958143;
      }

      .cls-11 {
        fill: #78401a;
      }

      .cls-12 {
        fill: #fff;
      }

      .cls-13 {
        fill: #e7bc92;
      }

      .cls-14 {
        fill: #22130e;
      }

      .cls-15 {
        fill: #7b491e;
      }

      .cls-16 {
        fill: #e4b492;
      }

      .cls-17 {
        fill: none;
      }

      .cls-18 {
        fill: #ffea86;
      }

      .cls-19 {
        fill: #653f34;
      }

      .cls-20 {
        fill: #683f24;
      }

      .cls-21 {
        clip-path: url(#clippath-1);
      }

      .cls-22 {
        fill: #f48a75;
      }

      .cls-23 {
        fill: #ac5e4a;
      }

      .cls-24 {
        fill: #f2f2f2;
      }

      .cls-25 {
        fill: #f2f2f7;
      }

      .cls-26 {
        fill: #3a3a3a;
      }

      .cls-27 {
        fill: #735f4d;
      }

      .cls-28 {
        fill: #23130f;
      }

      .cls-29 {
        fill: #d3d3d3;
      }

      .cls-30 {
        fill: #693615;
      }

      .cls-31 {
        fill: #2c190d;
      }

      .cls-32 {
        fill: #c82127;
      }

      .cls-33 {
        fill: #2b404c;
      }

      .cls-34 {
        clip-path: url(#clippath-2);
      }

      .cls-35 {
        fill: #dfa871;
      }

      .cls-36 {
        fill: #182322;
      }

      .cls-37 {
        fill: #384f60;
      }

      .cls-38 {
        fill: #fffbe9;
        opacity: .31;
      }

      .cls-39 {
        clip-path: url(#clippath);
      }

      .cls-40 {
        fill: #fff3c0;
        opacity: .33;
      }

      .cls-41 {
        fill: #fdd4af;
      }
    </style>
    <clipPath id="clippath">
      <path class="cls-17" d="M828.19,346.85l-77.2,1.5s15.23,21.11,38.71,20.65c23.49-.46,38.48-22.15,38.48-22.15Z"/>
    </clipPath>
    <clipPath id="clippath-1">
      <path class="cls-17" d="M840.15,284.67c-2.95,6.05-19.97,9.83-35.9,4.27,3.18-7.08,8.43-12.92,17.24-12.71,8.58.21,14.72,2.27,18.67,8.44Z"/>
    </clipPath>
    <clipPath id="clippath-2">
      <path class="cls-17" d="M725.7,286.89c3.18,5.94,20.34,9.05,36.04,2.87-3.45-6.95-8.92-12.59-17.72-12.03s-14.62,2.84-18.33,9.16Z"/>
    </clipPath>
  </defs>
  <path class="cls-14" d="M619.41,295.92c-1.65,1.31-1.66,3.2-2.55,5.02-2.39,4.87-6.84,3.25-9.94.21-.33-.32-.63-.67-.93-1.03.76-1.36,1.48-2.74,2.08-4.18,2.2-5.21,2.94-11.12,1.6-16.67-.58-2.42-1.59-4.77-2.6-7.05-1.04-2.34-3.12-5.1-3.16-7.79,0-.6.07-1.23.2-1.87.21.71.45,1.42.76,2.15,1.78,4.09,4.64,7.6,8.79,9.4,2.81,1.22,6.63,1.68,8.29-1.55,1.62-3.15-.5-6.14-2.6-8.36-.05-.05-.12.02-.08.07,1.36,1.74,2.9,7.57-1.6,6.37-.83-.22-1.69-.98-2.32-1.5-1.81-1.48-3.42-3.41-4.51-5.48-1.52-2.91-2.68-6.34-3.72-9.68.11-.38.21-.75.29-1.11.64-3.1.76-6.06.31-8.9.43-1.08.96-2.08,1.64-2.93,4.77-5.95,14.56-1.68,12.24,6.2-.02.06.06.09.1.04,2.31-3.51,2.52-8.08-.04-11.55-1.37-1.87-3.24-3.01-5.29-3.56,1.4-3.25,1.05-6.95-1.03-10.05-.02-.04-.09-.02-.08.03,1.74,5.07-.99,7.55-4.45,9.88-.74.14-1.48.32-2.2.57-1.64.57-3.15,1.43-4.49,2.51-.14-.21-.29-.42-.44-.62.01-.03.03-.06.04-.1,1.35-4.11-1.27-6.82-2.39-10.56-.42-1.42-.65-2.78-.77-4.15,2.61-1.15,5.06-2.86,6.92-4.42,3.26-2.75,8.3-7.73,4.77-12.15-2.49-3.12-6.33-2.68-9.45-.95.05-.1.1-.2.13-.26,1.34-2.35,3.73-3.92,4.9-6.38,1.72-3.6.82-7.97-1.5-11.05-.24-.32-.69.01-.63.34.74,4.4.66,7.98-3.2,10.94-.24.19-.48.37-.72.56.12-2.61-.39-5.18-1.76-7.49-2.32-3.9-6.08-5.79-10.05-6.09-1.24-1.99-3.05-3.47-5.79-3.84-.75-.1-1.5-.05-2.23.1-1.12-1.41-2.27-2.81-3.37-4.23.89-.46,1.73-.99,2.61-1.5.57-.37,1.16-.7,1.78-.98,2.08-1.48,3.35-.18,3.84,3.89-.31.46.39,1.07.76.63,2.63-3.14,1.11-7.65-2.58-9.23-3.27-1.4-6.1.59-9.37.7-.37.01-.77-.02-1.21-.08-.32-.69-.61-1.4-.86-2.14-.06-.28-.12-.56-.16-.84-.18-1.33-.35-3.42.44-4.6,1.48-2.21,5.21-1.7,7.36-1.03.43.13.62-.42.31-.67-2.14-1.71-4.39-4.02-7.44-3.38-1.33.28-2.41,1.09-3.22,2.13-.5-1.5-1.03-2.99-1.6-4.44-.57-6.73,5.78-14.03,1.94-20.97-1.82-3.29-7.57-6.74-9.79-2.19-.23.47.4.89.7.44,4-.39,5.71.77,5.15,3.46.16.94,0,1.81-.51,2.6-.38,1.15-1.06,2.21-1.58,3.31-.52,1.1-1.11,2.26-1.55,3.47-2.28-2.7-5.14-4.97-8.91-6.55-2.61-1.1-5.32-1.55-8.1-1.8-.87-2.1-1.62-4.28-1.16-6.27.73-3.15,7.06-9.24,9.72-4.6.16.28.61.12.54-.21-.6-2.53-3.37-4.25-5.62-5.23-3.82-1.65-8.25.34-10.55,3.57-.23.32-.43.65-.61.99,2.62-6.61,3.06-13.69-3.38-17.93-.75-.49-1.61-.39-2.25.04-.25-.03-.51-.05-.78-.03-.41.03-.87.4-.71.87.14.4.32.77.52,1.13,0,.09.02.18.04.27.62,2.58,1.24,5.01,1.38,7.5-1.05,1.81-3.07,2.94-4.96,4.11-.08.05-.15.1-.23.15-3.52-1.98-7.31-3.46-11.22-4.39-3.82-1.66-7.61-2.83-11.87-3.52.83-1.88,1.92-3.61,3.53-5.09,2.36-2.16,5.59-3.46,8.7-1.92,3.43,1.71,3.13,6.27,3.56,9.64.03.21.34.3.48.14,7.7-9.05-4.18-19.37-13.63-14.27-4.27,2.3-6.75,6.57-7.91,11.14,0,0-.01,0-.02,0-.23-1.8-.46-3.64-.73-5.5.02-.26.03-.54,0-.85-.12-1.99-.5-3.84-.19-5.84.3-1.95.86-3.78,2.91-4.51,2.26-.81,3.59.25,5.24,1.6.46.38,1.32-.08,1.27-.67-.5-5.39-8.06-5.32-11.29-2.6-.31.26-.59.53-.87.8-1-2.53-2.28-4.88-4.01-6.92-3.16-3.71-17.08-8.8-15.96.38.08.65.89.7,1.3.39,6.09-4.5,8.09.43,8.84,6.44-.36.2-.71.43-1.07.71-.58.45-1.17.85-1.78,1.23-2.55.38-5.82.14-7.64.28-2.36.18-4.35,1-5.93,2.21-1.28-.47-2.85-1.14-4.28-1.45-.05-.19-.11-.37-.16-.57-.39-1.43-1.77-7.5.19-8.6,2.87.93,5.29,2.98,6.02,6.06.05.23.4.19.41-.04.45-10.59-9.16-13.99-17.99-11.08-4.48,1.47-8.9,4.94-10.77,9.36-.16.37-.27.73-.36,1.09-.81-.63-1.63-1.23-2.6-1.72-3.1-1.54-6.52-1.56-9.78-.43-1.89.66-3.73,2.23-4.84,4.1-.92-2.44-1.94-4.84-3.94-6.62-5.45-4.85-12.88.71-12.88,6.98-3.52-1.32-7.32-1.74-11.37-.72-4.79,1.21-8.96,3.63-12.26,6.83-.37-1.54-.15-3.19.02-4.88.06-.59.3-1.8-.58-2.01-.05-.01-.1-.02-.14-.04-.54-.13-1.05.05-1.36.5-1.88,2.69-1.89,6.48-.82,9.73-.01.02-.03.04-.04.06-6.73-.83-15.16,1.37-19.42,3.58-.34.18-.67.37-1.01.58-4.53.8-7.57,3.6-9.32,7.66-1.21.86-2.36,1.82-3.44,2.86-.01,0-.03,0-.04,0-.31-.45-.63-.89-.97-1.29-2.95-3.55-7.74-6.78-12.24-7.83-.05-.01-.07.06-.02.08,4.78,1.89,6.7,5.23,8.1,9.28-3.12.47-6.1,1.61-8.71,3.66-1.34-3.12-3.39-5.88-6.2-7.75-5.43-3.61-11.45-.65-14.32,4.59-.03.05.03.11.08.07,2.9-2.46,5.31-4.48,9.38-2.73,2.54,1.09,4.27,3.81,5.5,6.14.64,1.21,1.22,2.44,1.79,3.66-.33.45-.64.9-.94,1.37-2.25-.93-4.55-1.46-6.84-1.11-2.08-.17-4.24.04-6.19.4-.68.13-1.24.41-1.69.79-5.59,2.74-8.77,9.85-14.57,12.14-1.26.03-2.5-.06-3.65-.52-4.96-1.99-3.14-7.86-.69-11.4.11-.15-.12-.35-.25-.21-5.09,5.41-9.3,14.69.45,17.78,1.89.6,3.84.84,5.81,1.01-1.23,1.21-2.22,2.6-3.12,4.05-.52-.57-1.09-1.09-1.75-1.49-2.06-1.27-5.97-1.94-7.89-.11-.36.34-.19.87.24,1.05,1.64.67,3.03.8,4,2.47.74,1.29.38,2-.36,2.96-.95,1.23-.96,2.79-.39,4.13-.22.2-.44.41-.68.6-1.49,1.21-3.05,2.24-4.62,3.23-2.4.7-4.8,1.39-7.32,1.78-3.38.52-6.99,1.54-9.26,4.31-2.01,2.45-2.24,5.73-1.04,8.61.54,1.3,1.2,2.27,1.96,3.06-.06.22-.13.44-.18.67-1.15,5.16.25,10.15,1.35,15.2.23,1.08.72,2.37.64,3.5-.03-.42-.64.94-.46.73-.33.39-.76.81-1.25,1.25-.76-.94-1.68-1.77-2.73-2.48-3.31-2.22-9.99-2.11-10.45,2.98-.07.78.9,1.09,1.44.65,3.12-2.59,6.71-2.43,7.89,1.96,0,.02,0,.05.01.07-.3.25-.58.49-.85.72-1.49,1.31-2.86,2.71-4.06,4.21-2.43-.15-4.92.7-6.75,2.61-3.69,3.86-3.02,10.77,1.06,13.96-.11,3.83,1.57,7.95,4.24,11.07.54,1.11,1.1,2.19,1.66,3.26-1.11.16-2.26.63-3.17,1.2-3.32,2.1-4.86,6.12-5.07,9.92-.23,4.17,1.49,9.77,4.65,13.55.82,2.69,2.18,5.1,3.63,7.55-1.17.33-2.09,1-2.93,2.12-.9,1.2-.99,3.37-.16,4.63.42.64.84,1.12,1.33,1.51-.27.37-.53.76-.78,1.18-1.45,2.48-2.4,4.99-1.79,7.92.41,1.97,1.64,3.7,3.27,4.95-.04.02-.08.05-.12.07-4.75,3.17-7.6,10.52-1.63,13.99,1.2.7,2.29-1.03,1.15-1.82-5.21-3.63.72-9.41,5.09-6.21.42.31.83.6,1.24.88-1.78,2.44-2.61,5.43-1.73,8.94.96,3.85,4.46,5.85,7.87,7.17.96.37,1.92.73,2.87,1.08-.03.03-.05.06-.08.09-2.5,3.05-2.25,8.06-.54,11.32.78,1.49,1.87,2.8,3.14,3.89-3.94,1.15-7.18,1.06-6.62-3.34.06-.46-.72-.6-.81-.14-.82,4.43,2.14,7.94,6.55,8.47,3.06.36,6.13-.6,9.09-1.28.22,2.13.43,4.23.74,6.3-2.63,1.68-4.45,4.13-2.29,7.47,1.14,1.75,3.35,2.88,5.74,3.45.27.48.56.96.88,1.43,1.13,1.69,2.42,3.18,3.88,4.47-1.29.94-2.37,2.14-3.09,3.65-1.54,3.27-1.27,8.26,1.49,10.84,3.49,3.27,7.51,1.32,11.34-.06.06-.02.04-.12-.02-.1-1.81.36-3.71.46-5.51-.09-1.54-.47-3.74-3.14-2.83-4.83.78-1.45,5.64-1.45,6.98-1.55,2.34-.16,4.69.19,7.01-.09.96,1.49,1.62,5.66,2.2,7.49,1.16,3.67,2.55,7.25,5.11,10.19,2.9,3.33,6.37,4.95,10.1,5.59.07.3.15.61.22.91-.05,1.04-.05,2.07.06,3.09-1.58,1.43-3.67,2.39-6.22,2.72-.5.07-.38.72-.03.88,5.01,2.31,10.71-2.4,12.54-6.88.04-.09.07-.2.11-.3.07.29.16.58.31.88.24.47.62.86,1.07,1.19,2.04,3.38,5.43,6.03,9.38,6.33.82.06,1.28-1.23.49-1.61-.96-.46-1.9-.97-2.8-1.54.14-2.02-.12-3.77,1.31-5.26.79-.27,1.58-.54,2.36-.82,1.24.41,2.46,1.11,3.96,2.2,2.78,2.01,5.88,3.75,9.28,4.35,3.63,3.22,8.1,5.22,13.03,5.27,1.26.01,1.25-1.72.06-1.9-.32-.05-.62-.11-.93-.18-.49-.8-1.22-1.41-1.83-2.2-.66-.84-1.23-1.69-1.73-2.59,3.11-1.33,6.53-3,9.58-3.61.52.08,1.08.01,1.67-.22,2.6-.15,4.79.79,6.07,3.85.42,1.01,1.88.48,1.95-.46.2-2.63-.48-4.6-1.74-6.08,1.14-.43,2.33-.82,3.52-1.12,2.27-.15,4.56-.24,6.87-.22.76.25,1.46.63,2.05,1.17,1.48,1.37,1.87,3.94,3.31,5.49,1.96,2.13,4.44,3.92,6.98,5.29,10.68,5.77,21.36,3.45,31.95-1.07,3.17-1.35,9.37-4.44,11.96-3.59,2.01.66,4.49,3.57,6.6,4.72,3.03,1.66,6.15,3.06,9.38,4.32,10.5,4.09,20.82,4.24,29.97-2.51,2.1,2.25,4.7,4.09,7.61,4.99,2.78.87,6.49.6,9.05-.78.84-.46,1.6-1.02,2.26-1.69.16.04.35.08.55.13-.22.69-.5,1.35-.88,1.96-1.57,2.46-4.54,3.7-6.73,5.52-.03.03-.02.08.02.09,4.37,1.14,8.34-2.32,10.87-5.6,1.36-1.75,2.12-3.59,2.71-5.63.97.22,1.94.39,2.91.54,1.07,1.32,2.3,2.57,3.74,3.76,3.92,3.22,11.98,7.16,15.15.9.01-.03,0-.06-.03-.06-4.61.12-8.39-1.55-11.63-4.17,8.14-.29,15.9-3.21,22.47-8.73.32-.27.62-.55.92-.83,1.15.53,2.42.9,3.86,1.06,3.91.42,9.84-2.17,10.11-6.63.02-.29-.35-.56-.61-.38-3.23,2.2-6.01,3.16-9.82,2.18,1.95-2.44,3.58-5.13,4.86-7.98,1.95-4.37,2.1-9.12,3.17-13.64,1.82,2.35,4.16,4.11,7.03,5.35,2.58,1.12,4.78,1.33,5.74,4.35,1.03,3.23-.98,5.78-2.39,8.45-.06.12.03.29.18.25,6.37-1.76,5.66-10.76,3.49-15.39-1.93-4.12-4.98-7.49-6.19-11.97,4.47-2.22,9.03-4.28,12.74-7.73,2.28-2.12,3.92-4.4,5.07-6.8.71.55,1.28,1.28,1.55,2.32.3,1.14-.04,2.19-.33,3.29-.3,1.15-.09,1.58.1,2.67.03.19.24.34.43.35,4.03.11,4.46-5.21,3.6-8.27-.57-2.01-1.95-3.84-3.72-5,.29-1.22.49-2.45.61-3.71.03.02.05.05.08.07,2.08,1.77,5.07,2.8,7.63,1.4,1.82-1,2.83-3.22,2.54-5.23-.05-.36-.58-.51-.82-.25-1.8,2.01-5.99.57-7.51-1.15-.18-.2-.35-.42-.52-.64,4.97-3.47,7.47-9.94,7.31-16.07-.05-2.06-.32-4.13-.76-6.18,3.83.69,7.96-.49,10.56-3.5,2.23-2.59,3.76-7.96.94-10.6-.03-.03-.08-.03-.12,0ZM604.07,207.53c1.2-.98,4.42-2.74,4.36-.17-.07,2.8-3.98,6.34-5.9,7.91-.13.11-.27.2-.4.29.07-1-.03-2.07,0-2.82.04-1.07.08-2.12.09-3.18.54-.75,1.14-1.45,1.86-2.04ZM265.08,248.58c-2.1,3.37-4.02,6.84-4.6,10.8-.19-.57-.35-1.18-.47-1.84-.61-3.31-.11-7.05,2.28-9.5,1.21-1.24,2.61-1.48,3.98-1.93.02.05.04.1.06.13-.26.59-.92,1.81-1.25,2.33ZM277.96,172.97c-1.58,2.09-2.98,4.25-3.97,6.61-.51-.87-.87-1.71-1.01-2.46-.99-5.53,4.08-7.29,8.49-7.78-1.26,1.04-2.45,2.22-3.51,3.62ZM368.06,400.24c.16-.05.33-.12.49-.17.28.43.58.83.89,1.22-.48-.33-.94-.67-1.38-1.05ZM420.26,96.3c-1.59.58-3.13,1.16-4.71,1.67-.01,0-.03,0-.04.01-.21.07-.43.14-.64.2-1.19-.79-2.41-1.5-3.67-2.1.25-.36.48-.74.66-1.15,1.08-4.37,4.12-4.52,9.12-.45.11.47.11,1.03.07,1.6-.26.05-.52.12-.78.21ZM537.89,126.6c-.1-.11-.21-.21-.32-.31.27-.53.52-1.07.76-1.61-.21.63-.37,1.27-.45,1.93ZM594.11,197.02c-.2-.53-.39-1.07-.55-1.65.47-2.16.06-4.54-1.25-6.29-.13-.6-.27-1.21-.43-1.81,3.65,1.75,4.24,5.65,2.23,9.75ZM600.91,327.75c-.36.13-.72.26-1.09.38-.28-2.35-.67-4.72-1.08-7.09-.91-5.28.85-9.69,3.22-13.97.49.41,1.01.78,1.54,1.12.02.07.04.13.07.2,2.13,6.93,1.84,14.43-2.66,19.37Z"/>
  <path class="cls-8" d="M920.46,441.57l-24.56-6.42c-2.61-.68-5.35.44-6.73,2.76h0c-1.81,3.03-.64,6.97,2.53,8.53l40.44,19.92"/>
  <path class="cls-25" d="M228.59,471.96c47.36-37.61,78-76.61,105.86-58.5,27.86,18.11,129.54,89.14,129.54,89.14l40.39-15.32s51.54,18.11,55.72,32.04,12.54,108.65,12.54,108.65l-22.29,1.39s-20.89,39-22.29,65.47c-1.39,26.46-1.39,121.15-1.39,121.15,0,0-21.48,1.31-217.29,0,11.14-66.86-5.71-231.25-25.21-280"/>
  <path class="cls-8" d="M394.34,350.77l3.64,48.55c.38,5.07-.77,10.16-3.36,14.54-6.06,10.25-18.49,26.59-32.32,17.7,44.57,48.75,73.82,82.18,107.25,86.36,33.43,4.18,34.82-30.64,34.82-30.64,0,0-30.64-5.57-36.22-32.04s-.97-76.58-.97-76.58"/>
  <path class="cls-3" d="M523.38,322.04c-6.86,18.51-47.35,80.46-80.7,80.25-42.52-.26-83.76-33.5-101.95-80.94-13.19-34.41-5.46-157.93,92.57-154.89,98.03,3.04,103.49,119.37,90.08,155.58Z"/>
  <path class="cls-15" d="M500.42,286.84c8.2-6.99,6.63-20.23-13.74-25.89-20.37-5.66-36.09,10.41-33.97,32.5"/>
  <path class="cls-15" d="M370.72,282.81c-7.75-7.48-5.37-20.6,15.32-24.98s35.38,12.63,31.89,34.54"/>
  <path class="cls-12" d="M418.08,292.76c-12.74-24.59-33.2-16.87-45.42-8.12,0,0,22.38,30.24,45.42,8.12Z"/>
  <path class="cls-12" d="M455.32,294.49c14.25-23.76,34.18-14.78,45.84-5.28,0,0-24.22,28.79-45.84,5.28Z"/>
  <g>
    <circle class="cls-10" cx="472.46" cy="289.67" r="13.31"/>
    <circle class="cls-36" cx="472.23" cy="288.56" r="8.2"/>
    <circle class="cls-12" cx="479.83" cy="286.34" r="2.26"/>
  </g>
  <g>
    <circle class="cls-10" cx="393.83" cy="287.23" r="13.31"/>
    <circle class="cls-36" cx="394.13" cy="286.13" r="8.2"/>
    <circle class="cls-12" cx="401.21" cy="284.74" r="2.26"/>
  </g>
  <g>
    <path class="cls-31" d="M417.79,293.24c-5.44-8.11-11.85-12.78-19.04-13.9-9.63-1.49-18.49,3.63-24.23,8.19l-3.96-4.98c9.66-7.67,19.75-10.96,29.17-9.49,9.02,1.4,16.88,7,23.35,16.64l-5.28,3.55Z"/>
    <path class="cls-31" d="M396.72,304.09c-16.35-2.6-21.79-8.05-26.6-17.85l5.71-2.81c3.61,7.35,6.89,11.98,21.9,14.37l-1,6.28Z"/>
    <path class="cls-3" d="M418.24,293.17c-5.84-11.25-13.65-18.03-22.59-19.63-8.36-1.49-17.37,1.7-25.37,8.98l-4.29-4.7c9.49-8.64,20.42-12.39,30.77-10.54,7.64,1.36,18.54,6.45,27.12,22.96l-5.65,2.93Z"/>
    <path class="cls-3" d="M400.27,306.31c-15.94,0-30.23-6.56-37.16-15.47l7.54-5.86c7.89,10.16,28.93,15.9,47.66,8.27l3.6,8.84c-7.21,2.93-14.58,4.22-21.64,4.22Z"/>
  </g>
  <g>
    <path class="cls-31" d="M455.44,294.41l-5.05-3.87c7.06-9.22,15.25-14.32,24.34-15.16,9.5-.88,19.36,3.03,28.52,11.28l-4.26,4.73c-5.45-4.91-13.98-10.57-23.68-9.67-7.25.67-13.94,4.94-19.87,12.69Z"/>
    <path class="cls-31" d="M475.8,306.55l-.61-6.33c15.12-1.45,18.68-5.88,22.74-12.99l5.53,3.16c-5.42,9.48-11.18,14.58-27.66,16.16Z"/>
    <path class="cls-3" d="M455,294.31l-5.45-3.28c9.58-15.94,20.78-20.35,28.49-21.23,10.44-1.2,21.12,3.22,30.05,12.43l-4.57,4.43c-7.53-7.77-16.33-11.51-24.76-10.54-9.01,1.04-17.23,7.32-23.76,18.19Z"/>
    <path class="cls-3" d="M475.72,308.66c-8.14,0-16.73-1.71-24.94-5.66l4.14-8.6c18.23,8.78,39.58,4.35,48.09-5.3l7.16,6.31c-6.9,7.82-19.95,13.25-34.45,13.25Z"/>
  </g>
  <path class="cls-28" d="M366.92,251.95c8.52-7.83,14.68-9.92,19.14-9.87,4.46.05,18.28,3.3,22.99,6.72,4.72,3.42,8.29,11.45,4.08,9.32-4.21-2.13-22.97-10.45-27.24-10.49-4.53-.04-3.4-1.83-18.97,4.32Z"/>
  <path class="cls-28" d="M506.07,250.7c-8.02-8.35-14.04-10.81-18.49-11.04s-18.45,2.16-23.37,5.28-8.98,10.91-4.65,9.05c4.33-1.87,23.57-9,27.84-8.78,4.52.24,3.51-1.62,18.66,5.49Z"/>
  <g>
    <path class="cls-15" d="M440.18,337.03c-11.5-.36-16.75-6.9-13.11-8.05,1.51-.48,7.16,4.64,12.88,4.91,5.31.26,11.96-7.42,13.42-4.44s-3.91,7.87-13.2,7.58Z"/>
    <path class="cls-9" d="M435.56,336.22c-8.57-6.59-8.64-4.48-5.91-1.94s5.91,1.94,5.91,1.94Z"/>
    <path class="cls-9" d="M445.49,336.46c5.24-3.85,7.88-4.32,6.03-2.44s-6.03,2.44-6.03,2.44Z"/>
  </g>
  <path class="cls-14" d="M584.56,266.53c-3.78-13-8.47-25.8-12.73-38.66-4.06-12.26-7.91-24.13-16.44-34.11-3.8-4.45-8.16-8.39-12.03-12.78-4.38-4.98-8.1-10.51-12.77-15.24-8.42-8.54-18.82-15-30.14-18.92-4-1.39-8.53-2.65-13.19-3.45.11-.47.18-.95.24-1.44-2.73-.15-5.46-.19-8.2-.17-11.01.08-21.97.51-32.93,1.62-11.18,1.14-22.83,2.23-33.71,5.1-6.61,1.74-12.94,4.32-19.38,6.58-3.6,1.89-7.06,4.05-10.38,6.38-13.3,9.36-24.52,21.24-33.3,34.94-9.51,14.84-16.1,31.65-20.07,48.78-3.03,13.06-5.17,26.67-5.11,40.17-.07,1.29-.09,2.58-.03,3.88.04.98.14,1.94.25,2.91.05.8.1,1.59.17,2.39.26,3.12.62,6.2,1.11,9.25-.81,3.4-.21,6.94,2.05,9.58.61,2.21,1.3,4.4,2.12,6.57,1.53,4.05,3.32,7.95,5.69,11.59,2.8,4.3,7.17,6.79,11.66,9.07,4.12,2.09,11.01-.54,10.75-5.54.76-.68,1.47-1.41,2.13-2.2,2.8-3.39,7.88-6.88,9.19-11.13,1.43-4.64.14-10.64-1.24-15.17-1.23-4.05-3.97-8.52-3.78-12.84.11-2.42,2.04-5.2,3.51-7.51,2.35-3.7,4.73-7.36,6.31-11.47,1.63-4.22,2.13-8.82,1.37-13.29-.64-3.74-4.21-8.24-4.2-11.99.11-.14.32-.38.71-.6,1.4-.79,2.73-2.31,4.03-3.29,3.42-2.59,6.67-5.05,9.24-8.55.43-.58.81-1.17,1.17-1.76,1.74,1.5,3.98,2.32,6.38,1.85,4.57-.88,5.56-5.05,7.47-8.62.36-.67-.42-1.31-1.02-.84-2.08,1.67-7.03,3.48-9.4,1.16-.2-.2-.38-.42-.56-.66,1.2-5.19.84-10.61.61-16.19,3.18.89,6.81,1.17,8.51-1.35.02-.04.01-.09-.03-.11-2.93-1.71-5.73-1.77-6.62-5.64-.28-1.21-.38-2.44-.42-3.68,2.3-1.47,7.54-1.31,10.03-1.98,9.73-2.62,15.06-9.53,17.94-18.83.53-1.73.84-4.73,1.97-6.2.07-.03.16-.07.26-.1.28-.1.59-.16.91-.2-.09.31-.19.63-.27.94-2.26,8.91,1.37,17.38,9.16,22.09,1.9,1.15,8.75,2.26,9.82,4.33-2.56,2.54-5.85,5.58-9.38,6.23-6.82,1.25-8.7-5.45-9.1-10.7-.09-1.21-1.8-1.3-1.9-.06-1.04,11.94,7.22,20.08,19.29,17.27,4.74-1.1,8.65-4.34,11.75-8.07.29.3.62.58.97.85,1.56,2.56,3.98,4.67,6.7,5.4,3.86,1.04,6.65-.1,9.69,3.24.51.57,1,1.08,1.48,1.56-.28.78-.45,1.56-.49,2.31-.28,5.35,4.44,13.68,10.2,14.33.08,0,.15-.08.12-.15-.04-.14-.09-.28-.15-.43.22,0,.45.03.68.01.08,0,.11-.08.06-.14-2.78-3.83-5.06-6.86-5.45-10.91.22-.46.54-.93.98-1.4.02-.02.03-.03.05-.05,1.53.46,3.17.9,4.19,1.75,1.73,1.43,1.1,4.12,2.32,6.14,2.29,3.81,6.5,4.45,10.42,5.47,3.29.85,1.81-.09,2.44,2.9.61,2.89,2.62,4.99,5.19,6.28,4.13,2.06,8.58.91,12.92,1.04-.12,1.46-.12,2.93,0,4.4-.14,1.18-.11,2.36.12,3.45.36,1.67,1.04,3.33,1.96,4.93.31.69.65,1.37,1.03,2.03.42.71,3.32,4.48,5.61,6.95-1.61,1.49-3.15,3.14-4.33,4.98-2.84,4.43-3.88,9.68-3.44,14.87.42,4.88,1.96,9.53,4.62,13.66.84,1.31,1.77,2.57,2.79,3.76-2.28,1.69-4.88-1.52-5.35-3.53-.27-1.14-2.23-1.02-2.12.22.36,4.29,4.01,8.49,8.3,9.29.41.08.81.12,1.21.15-.18.36-.36.73-.52,1.11-1.25,2.89-1.96,5.77-2.39,8.89-.49,3.48-.44,6.93.03,10.34-1.98-.52-3.65-1.38-5.46-2.41-1.39-.79-1.94-1.67-2.4-3.2-.28-.92-.2-1.61-.9-2.27-.09-.09-.25-.11-.35-.01-.8.85-.56,1.92-.4,3.02.22,1.51.52,2.99.75,4.5.52,3.38,3.02,6.19,5.86,7.93.59.36,1.16.56,1.71.64-5.08,16.83,11.03,35.73,27.94,35.48,5.22-.08,8.52-3.27,9.83-7.14,6.75-5.08,10.17-14.16,13.16-22,4.69-12.26,8.52-24.84,11.46-37.63,3.11-13.5,5.45-26.37,1.5-39.96Z"/>
  <path class="cls-24" d="M411.03,354.7l3.12,6.47,12.63,7.03,22.87-1.72,10.59-5.15s3.75-4.85,3.25-4.85-26.6,2.72-26.6,2.72c0,0-12.04-1.81-12.41-1.81s-8.07-1.79-8.07-1.79l-5.39-.9Z"/>
  <g>
    <path class="cls-11" d="M407.41,354.25c8.37,6.7,11.32,23.5,29.16,23.88,16.39.35,20.31-13.41,30.05-21.89-15.42,11.29-39.29,14.03-59.2-1.99Z"/>
    <path class="cls-22" d="M441.94,369c3.07-.26,7.8-1.18,8.1-1.53-1.93,2.58-5.59,3.32-8.1,1.53Z"/>
  </g>
  <path class="cls-30" d="M403.22,351.99c22.19,10.7,39.05,14.24,66.38,3.08,0,0-18.78.95-24.91,1.01-6.13.07-4.25,1.4-7.95,1.28s-3.25-2.01-9.37-2.2c-6.12-.19-8.8-.15-24.14-3.17Z"/>
  <path class="cls-14" d="M355.63,327.81c8.2,4,13.73,4.36,17.1,3.84,1.07-.17,1.7,1.16.93,1.91-5.24,5.08-15.85,13.4-25.51,8.84"/>
  <path class="cls-29" d="M471.01,524.83c-1.15,0-2.27-.05-3.35-.16-3.93-.39-18.46-2.89-40.09-18.53-22.81-16.49-45.57-41.58-67.65-74.6l.78-.52c57.12,85.42,102.11,92.22,107.06,92.72,13.65,1.36,33.12-6.19,36.39-16.95,3.2-10.5,1.87-18.85,1.85-18.93l.92-.15c.01.09,1.38,8.64-1.88,19.36-3.13,10.29-20.39,17.77-34.03,17.77Z"/>
  <path class="cls-29" d="M294.27,533.22c-.04-.22-3.86-21.96-14.3-37.93-12.82-19.6-26-30.16-40.28-32.28l.14-.93c14.57,2.16,27.96,12.85,40.93,32.69,10.55,16.14,14.4,38.07,14.44,38.29l-.92.16Z"/>
  <polyline class="cls-25" points="279.23 535.1 298.33 562.84 293.11 529.79 282.07 534.72"/>
  <path class="cls-8" d="M129.29,331.27s3.28,108.06,7.23,172.65c3.92,64.09,2.79,86.36,34.82,78,32.04-8.36,112.82-45.97,112.82-45.97,0,0-15.32-61.29-48.75-66.86-25.07,16.71-41.79,30.64-41.79,30.64l-26.73-168.48h-37.61Z"/>
  <path class="cls-20" d="M83.22,284.8l-7.54-33.09c-.24-1.04.47-2.06,1.52-2.21h0c4.28-.61,8.41,1.86,9.89,5.92l10.75,29.38s38.57,21.72,39.45,23.05-8.42,6.21-8.42,6.21"/>
  <path class="cls-20" d="M95.98,289.24l-6.29-33.35c-.2-1.05.54-2.04,1.61-2.16h0c4.3-.45,8.33,2.17,9.66,6.29l9.63,29.77s37.72,23.16,38.56,24.52-8.65,5.88-8.65,5.88"/>
  <path class="cls-20" d="M136.01,307.26l2.83,1.57,3.49,1.94-8.5-20.38c-1.52-3.65,1.49-7.58,5.41-7.05h0c4.41.59,8.38,2.94,11.03,6.51,5.39,7.27,14.15,19.77,15.59,26.02,2.11,9.13,1.93,12.82,1.41,12.47"/>
  <path class="cls-8" d="M142.64,310.66c-9.84-2.63-46.07-20.6-46.07-20.6l-27.25-38.06c-.93-1.3-2.38-2.13-3.97-2.28h0c-2.9-.26-5.01,2.7-3.81,5.35l19.38,42.79c.6,1.32,1.53,2.46,2.72,3.3,8.88,6.31,47.63,33.85,48.72,34.94h35.09s2.54-14.21-5.89-19.15-18.26-5.99-18.26-5.99"/>
  <path class="cls-26" d="M849.89,412.79c57.67,41.16,68.32,42.8,85.53,50.48,17.21,7.67,36.45,14.96,37.59,51.82,1.13,36.86,17.79,300.88,17.79,300.88h-188.39l10.66-385.36"/>
  <path class="cls-26" d="M713.44,402.46c-75.28,37.38-92.05,37.15-114.23,43.7-22.18,6.56-47.3,13.68-51.09,50.4-3.79,36.72-60.44,319.41-60.44,319.41h260.16l10.84-393.36"/>
  <polyline class="cls-25" points="709.51 418.26 695.06 815.96 880.38 815.96 847.77 420.39"/>
  <path class="cls-41" d="M841.73,442.57s-27.36,21.67-62.95,20.66c-43.68-1.24-69.25-25.08-69.25-25.08l9.48-132.9,123.35,23.71-.63,113.61Z"/>
  <path class="cls-4" d="M709.2,361.6c34.49,104.44,133.56,56.61,133.56,56.61l-.56-62.5-134.45-5.39,1.46,11.29Z"/>
  <polyline class="cls-32" points="763.62 490.36 756.51 815.96 821.39 815.96 788.73 481.3"/>
  <path class="cls-32" d="M801.36,474.72c.05,16.12-10.74,29.23-24.11,29.27s-24.25-12.99-24.3-29.11c-.05-16.12,9.31-18.07,22.68-18.12,13.37-.04,25.68,1.84,25.73,17.96Z"/>
  <path class="cls-29" d="M712.6,391.67c31.07,47.84,58.03,62.11,58.03,62.11l-27.32,52.05s-42.17-67.53-41.91-94.52c6.41-11.56,11.2-19.64,11.2-19.64Z"/>
  <path class="cls-25" d="M712.6,391.67c31.11,46.67,58.08,60.6,58.08,60.6l-27.29,50.74s-42.22-65.88-41.98-92.2c6.4-11.27,11.19-19.14,11.19-19.14Z"/>
  <path class="cls-29" d="M843.98,395.41c-33.74,46-61.47,58.72-61.47,58.72l24.32,53.52s45.94-65.03,47.21-91.99c-5.74-11.9-10.07-20.24-10.07-20.24Z"/>
  <path class="cls-25" d="M843.98,395.41c-33.71,44.83-61.42,57.21-61.42,57.21l24.36,52.21s45.89-63.37,47.14-89.67c-5.75-11.61-10.08-19.75-10.08-19.75Z"/>
  <rect class="cls-6" x="478.64" y="681.62" width="266.93" height="2.81" transform="translate(-122.7 1231.89) rotate(-84.89)"/>
  <g>
    <g>
      <path class="cls-26" d="M1080.05,665.93c-.86-5.37-50.25-114.05-72.92-163.74-7.04-15.44-20.72-26.83-37.17-30.97l-52.45-13.2,13.45,102.21,95.24,211.73"/>
      <path class="cls-41" d="M1073.16,775.23c48.3-37.02,36.16-65.74,33.6-90.07-2.74-26-6-164.65-1.92-184.98-30.08-14.72-49.69,10-49.69,10,0,0-39.1,211.95-25.79,232.2,13.31,20.25,31.67,42.14,43.8,32.85Z"/>
      <path class="cls-25" d="M1044.44,561.38l3.11-23.58s33.81,14.68,56.05,4.89l-.44,24.47"/>
      <path class="cls-26" d="M1043.66,556.13c24.49,8.38,59.94,2.58,59.94,2.58l13.35,190.39c.83,12.53-4.31,24.71-13.88,32.85l-8.93,7.59c-13.82,11.74-33.84,12.62-48.63,2.12l-8.13-5.77c-11.76-8.35-18.06-22.43-16.44-36.77l22.71-192.98Z"/>
      <path class="cls-16" d="M1163.95,447.45l9.91-43.48c.31-1.37-.61-2.71-2-2.91h0c-5.63-.8-11.05,2.44-13,7.78l-14.13,38.61s-50.68,28.54-51.84,30.29,11.07,8.16,11.07,8.16"/>
      <path class="cls-16" d="M1147.19,453.29l8.26-43.82c.26-1.38-.71-2.69-2.11-2.83h0c-5.65-.59-10.95,2.85-12.7,8.26l-12.66,39.11s-49.57,30.43-50.67,32.22c-1.1,1.79,11.37,7.73,11.37,7.73"/>
      <path class="cls-16" d="M1096.41,477.49l-3.72,2.07-4.59,2.55,11.17-26.78c2-4.8-1.96-9.96-7.11-9.27h0c-5.79.78-11.02,3.86-14.5,8.55-7.08,9.55-18.59,25.98-20.49,34.19-2.77,12-2.54,16.85-1.85,16.39"/>
      <path class="cls-41" d="M1085.87,481.44c12.93-3.46,60.54-27.06,60.54-27.06l35.8-50.01c1.22-1.71,3.13-2.8,5.22-2.99h0c3.81-.35,10.77,4.69,9.19,8.18l-25.84,61.01c-.79,1.74-2.02,3.23-3.57,4.34-11.68,8.29-64.73,39.68-66.16,41.11l-47,1.87s-4.13-21.68,6.95-28.17c11.08-6.49,23.99-7.88,23.99-7.88"/>
    </g>
    <rect class="cls-6" x="967.17" y="581.33" width="2.81" height="123.69" transform="translate(-179.29 458.18) rotate(-24.43)"/>
    <rect class="cls-7" x="975.23" y="637.74" width="107.6" height="2.81" transform="translate(194.54 1517.23) rotate(-78.3)"/>
  </g>
  <path class="cls-8" d="M937.71,440.02c-3.62-4.12-9.66-4.58-13.82-1.46-21.64,16.25-27.29,48.14-2.42,28.07,19.03-15.37,20.36-21.92,16.24-26.61Z"/>
  <path class="cls-8" d="M951.74,444.29c-3.65-4.09-9.96-4.37-14.41-1.04-23.16,17.34-30.12,50.16-3.45,28.8,20.41-16.35,22.02-23.1,17.86-27.76Z"/>
  <path class="cls-8" d="M965.14,451.23c-3.66-4.09-10.06-4.3-14.61-.9-23.68,17.71-31.07,50.84-3.8,29.05,20.88-16.68,22.58-23.49,18.41-28.15Z"/>
  <path class="cls-8" d="M968.13,459.4c-3.18-1.92-7.17-.98-9.22,1.88-10.65,14.92-7.77,36.66,4.17,18.61,9.15-13.81,8.67-18.31,5.05-20.5Z"/>
  <path class="cls-25" d="M211.76,200.13h0c0-7.21-5.84-13.05-13.05-13.05h0c7.21,0,13.05-5.84,13.05-13.05h0c0,7.21,5.84,13.05,13.05,13.05h0c-7.21,0-13.05,5.84-13.05,13.05Z"/>
  <path class="cls-25" d="M1239.33,320.88h0c0-7.21-5.84-13.05-13.05-13.05h0c7.21,0,13.05-5.84,13.05-13.05h0c0,7.21,5.84,13.05,13.05,13.05h0c-7.21,0-13.05,5.84-13.05,13.05Z"/>
  <path class="cls-25" d="M1031.39,384.67h0c0-7.21-5.84-13.05-13.05-13.05h0c7.21,0,13.05-5.84,13.05-13.05h0c0,7.21,5.84,13.05,13.05,13.05h0c-7.21,0-13.05,5.84-13.05,13.05Z"/>
  <path class="cls-25" d="M219.58,80.24h0c0-6.45-5.23-11.68-11.68-11.68h0c6.45,0,11.68-5.23,11.68-11.68h0c0,6.45,5.23,11.68,11.68,11.68h0c-6.45,0-11.68,5.23-11.68,11.68Z"/>
  <path class="cls-25" d="M19.29,163.69h0c0-7.61-6.17-13.78-13.78-13.78h0c7.61,0,13.78-6.17,13.78-13.78h0c0,7.61,6.17,13.78,13.78,13.78h0c-7.61,0-13.78,6.17-13.78,13.78Z"/>
  <path class="cls-25" d="M212.13,43.19h0c0-9.75-7.9-17.65-17.65-17.65h0c9.75,0,17.65-7.9,17.65-17.65h0c0,9.75,7.9,17.65,17.65,17.65h0c-9.75,0-17.65,7.9-17.65,17.65Z"/>
  <path class="cls-25" d="M1020.19,254.58h0c0-9.75-7.9-17.65-17.65-17.65h0c9.75,0,17.65-7.9,17.65-17.65h0c0,9.75,7.9,17.65,17.65,17.65h0c-9.75,0-17.65,7.9-17.65,17.65Z"/>
  <path class="cls-25" d="M1241.28,236.51h0c0-9.75-7.9-17.65-17.65-17.65h0c9.75,0,17.65-7.9,17.65-17.65h0c0,9.75,7.9,17.65,17.65,17.65h0c-9.75,0-17.65,7.9-17.65,17.65Z"/>
  <g>
    <path class="cls-41" d="M698.31,232.87c-.89-45.98,16.63-83.61,81.64-84.87,65.01-1.26,83.98,35.66,84.87,81.64l-1.8,52.8c-1.65,51.13-2.35,54.36-3.92,65.06-1.59,10.81-3.25,18.02-12.05,28.07-8.8,10.05-28.59,34.12-35.72,37.4-7.13,3.28-28.66,6.99-43.16,1.29-12.77-5.02-44.24-31.36-51.65-42.44-7.41-11.08-10.1-33.93-11.9-56.79-1.79-22.86-6.31-82.16-6.31-82.16Z"/>
    <path class="cls-16" d="M722.43,285.89c3.1-9.94,8.7-14.39,21.89-13.59,13.19.79,19.83,3.66,19.33,16.84-1.61,2.13-29.99,12.26-41.22-3.24Z"/>
    <path class="cls-12" d="M725.7,286.89c3.18,5.94,20.34,9.05,36.04,2.87-3.45-6.95-8.92-12.59-17.72-12.03s-14.62,2.84-18.33,9.16Z"/>
    <path class="cls-16" d="M843.71,283.54c-3.48-9.81-9.25-14.04-22.4-12.74s-19.67,4.42-18.67,17.57c1.69,2.06,30.45,11.08,41.06-4.84Z"/>
    <path class="cls-19" d="M804.55,288.92c1.12-5.85,4.48-11.53,10.48-13.43,6.09-1.97,14.96-1.77,20.16,2.29,2.26,1.89,3.88,4.41,5.28,6.89-2.9-2.22-5.35-4.99-8.89-6.06-3.22-1.01-6.93-1.04-10.49-.98-3.51.16-6.93.94-9.72,2.93-3.06,1.97-4.78,5.52-6.83,8.36h0Z"/>
    <path class="cls-12" d="M840.48,284.67c-2.95,6.05-19.97,9.83-35.9,4.27,3.18-7.08,8.43-12.92,17.24-12.71,8.58.21,14.72,2.27,18.67,8.44Z"/>
    <path class="cls-1" d="M828.19,346.85l-77.2,1.5s15.23,21.11,38.71,20.65c23.49-.46,38.48-22.15,38.48-22.15Z"/>
    <path class="cls-13" d="M806.7,375.59c-11.99,8.52-21.57,8.28-34.06.94,0,0-.05.06-.05.06,10.94,9.3,23.88,9.33,34.11-1h0Z"/>
    <path class="cls-2" d="M716.9,256.04c-.25.27-.67-.04-.52-.37,3.81-8.1,6.49-13.66,14.53-14.37,8.67-.77,25.36-2.29,28.24-.25,2.88,2.04,7.77,7.33.59,7.47-7.18.14-27.98.39-31.87.47-2.81.05-8.69,4.62-10.98,7.05Z"/>
    <path class="cls-2" d="M847.98,248.55c.26.26.67-.06.5-.39-4.12-7.94-7.01-13.4-15.07-13.8-8.69-.43-25.43-1.3-28.23.85s-7.48,7.63-.3,7.49c7.18-.14,27.97-.69,31.86-.77,2.81-.05,8.86,4.28,11.24,6.62Z"/>
    <path class="cls-16" d="M803.77,315.74c6.05,3.47,7.57,12.35,4.6,13.46-2.97,1.11-7.16.9-9.38,2.58-4.28,3.23-13.56,2.84-18.42-.35-4.53-2.99-8.37.07-10.23-2.83-1.54-2.4.59-8.21,4.48-12.25"/>
    <path class="cls-41" d="M799.55,310.23c4.93,6.02,9.91,12.6,4.33,15.99-3.84,2.33-5.43,4.76-14.25,4.97-8.83.2-9.89-2.61-12.35-3.31-3.92-1.11-5.66-8.51-.09-17.02"/>
    <path class="cls-2" d="M863.86,295.99c-2.15-18.37-7.28-28.14-7.12-42.96.16-14.82,4.12-65.18-26.89-66.83-31.01-1.64-38.52,4.79-57.4,3.36-18.89-1.43-33.38-5.17-48.76,1.62-12.76,5.64-20.63,8.71-19.28,32.03,1.35,23.32,3.11,44.84.14,53.43-2.98,8.59-1.39,21.13-1.39,21.13l-4.49.09s-1.73-19.72-10.29-21.35c-2.51-13.87-22.18-114.57,21.91-120.3s44.17-14.33,73.34-14.89,82.15,8.39,84.23,46.51c2.09,38.12,2.65,90.19,2.65,90.19,0,0-.16,5.28-1.35,13.84"/>
    <g>
      <path class="cls-41" d="M706.12,300.44c-8.36-29.77-31.84-38.44-22.42,1.33,6.85,28.9,9.89,31.54,23.43,35.17"/>
      <path class="cls-16" d="M684.23,292.74c-.42-10.02,1.87-11.71,4.04-11.75s8.81,6.71,9.82,12.53c-2.52-2.79-6.05-7.29-9.03-6.71s-4.82,5.93-4.82,5.93Z"/>
      <path class="cls-16" d="M697.22,295.26c-.61,3.53-3.3,10.99.63,17.27-6.21-3.62-6.78-14.01-.63-17.27Z"/>
    </g>
    <g>
      <path class="cls-41" d="M859.8,296.97c5.51-30.04,23.58-39.51,17.58.56-4.36,29.12-6.65,31.86-17.11,35.95"/>
      <path class="cls-16" d="M876.65,288.52c-.02-10.03-1.87-11.64-3.56-11.6s-6.66,7.01-7.25,12.86c1.88-2.88,4.48-7.5,6.83-7.02s3.98,5.76,3.98,5.76Z"/>
      <path class="cls-16" d="M866.57,291.49c.6,3.51,2.96,10.87.1,17.28,4.73-3.83,4.82-14.24-.1-17.28Z"/>
    </g>
    <g class="cls-39">
      <g>
        <path class="cls-23" d="M812.34,370.02c-.17-8.92-8.09-16.01-32.03-15.54-24.54.48-31.58,7.85-31.4,16.77"/>
        <path class="cls-12" d="M751.74,339.58c.2,10.25,16.54,18.24,36.49,17.85s35.97-9.01,35.77-19.25"/>
      </g>
      <path class="cls-35" d="M828.12,351.68c-10.08,9.99-23.66,17.34-38.19,17.66-10.89.02-21.37-4.04-30.48-9.73-2.99-1.92-5.9-3.97-8.52-6.37,0,0,.11-.14.11-.14,6.05,3.61,12.34,6.69,18.84,9.06,6.44,2.29,13.19,3.95,20.03,3.89,13.83-.18,26.86-6.67,38.21-14.37h0Z"/>
    </g>
    <g class="cls-21">
      <g>
        <circle class="cls-27" cx="829.56" cy="283.73" r="9.13"/>
        <circle cx="829.56" cy="283.73" r="4.25"/>
      </g>
    </g>
    <g class="cls-34">
      <g>
        <circle class="cls-27" cx="751.7" cy="286.08" r="9.13"/>
        <circle cx="751.7" cy="286.08" r="4.25"/>
      </g>
    </g>
    <path class="cls-19" d="M761.98,289.51c-5.55-9.5-12.21-11.22-22.71-10.15-1.81.14-3.57.39-5.16.93-3.14,1.03-5.8,3.89-8.85,6.19-.51.42-1.23-.3-.81-.81,1.16-1.51,2.35-2.97,3.67-4.41,4.01-4.81,10.8-5.41,16.65-5.43,8.87-.04,15.43,4.68,18.21,13.14.25.63-.63,1.11-1.01.54h0Z"/>
    <path class="cls-35" d="M828.26,346.83c-15.88,1.94-32.18,2.43-48.17,2.58-9.66-.02-19.3-.15-28.95-1,0,0,0-.18,0-.18,12.61-1.59,25.81-2.08,38.53-2.37,12.88-.16,25.74-.12,38.6.97h0Z"/>
    <circle class="cls-12" cx="822.5" cy="281.33" r="1.99"/>
    <circle class="cls-12" cx="744.81" cy="282.63" r="1.99"/>
    <path class="cls-35" d="M817.8,357.86c-6.24,6.1-19.31,11.4-27.49,11.4s-15.75-.41-29.29-10.8c0,0,15.25,7.35,28.86,7.35s21.04-4.77,27.92-7.95Z"/>
  </g>
  <g>
    <path class="cls-37" d="M129.8,233.85h33.36v.3c0,9.2-7.47,16.68-16.68,16.68h0c-9.2,0-16.68-7.47-16.68-16.68v-.3h0Z" transform="translate(-41.83 30.86) rotate(-10.53)"/>
    <path class="cls-18" d="M191.82,92.49c-7.23-38.88-44.3-64.67-83.15-58.11-39.47,6.67-66.28,44.79-59.16,84.18,4.64,25.67,22.26,45.67,44.85,54.53,6.59,2.58,11.42,8.33,12.71,15.29l4.31,23.16c.85,4.6,5.27,7.63,9.87,6.78l39.39-7.32c4.6-.85,7.63-5.27,6.78-9.87l-4.31-23.16c-1.3-6.97,1.16-14.06,6.39-18.85,17.8-16.3,27.05-41.14,22.31-66.62Z"/>
    <path class="cls-37" d="M121.74,214.12h44.38v13.3c0,7.78-6.32,14.1-14.1,14.1h-16.17c-7.78,0-14.1-6.32-14.1-14.1v-13.3h0Z" transform="translate(-39.22 30.15) rotate(-10.53)"/>
    <rect class="cls-33" x="117.84" y="216.6" width="49.05" height="6.92" rx="3.46" ry="3.46" transform="translate(-58.84 52.09) rotate(-17.24)"/>
    <rect class="cls-33" x="119.35" y="224.74" width="49.05" height="6.92" rx="3.46" ry="3.46" transform="translate(-61.18 52.91) rotate(-17.24)"/>
    <rect class="cls-33" x="125.08" y="232.71" width="42.61" height="7.72" rx="3.86" ry="3.86" transform="translate(-63.55 54.03) rotate(-17.24)"/>
    <circle class="cls-38" cx="104.25" cy="75.06" r="27.86"/>
    <circle class="cls-38" cx="130.4" cy="104.6" r="45.36"/>
    <circle class="cls-38" cx="87.61" cy="99.98" r="27.86"/>
    <circle class="cls-40" cx="121.99" cy="105.78" r="95.76"/>
    <circle class="cls-5" cx="149.2" cy="62.59" r="6.34"/>
  </g>
  <g>
    <path class="cls-37" d="M1088.71,387.31h33.36v.3c0,9.2-7.47,16.68-16.68,16.68h0c-9.2,0-16.68-7.47-16.68-16.68v-.3h0Z" transform="translate(117.6 -238.88) rotate(13.02)"/>
    <path class="cls-18" d="M1206.83,276.56c8.91-38.53-14.77-76.99-53-86.49-38.85-9.66-78.65,14.57-87.87,53.53-6.01,25.38,2.16,50.76,19.33,67.91,5.01,5,7.14,12.2,5.55,19.09l-5.31,22.95c-1.05,4.56,1.79,9.1,6.34,10.16l39.04,9.03c4.56,1.05,9.1-1.79,10.16-6.34l5.31-22.95c1.6-6.9,6.68-12.43,13.39-14.73,22.83-7.83,41.23-26.9,47.07-52.15Z"/>
    <path class="cls-37" d="M1086.67,367.77h44.38v13.3c0,7.78-6.32,14.1-14.1,14.1h-16.17c-7.78,0-14.1-6.32-14.1-14.1v-13.3h0Z" transform="translate(114.46 -240.03) rotate(13.02)"/>
    <rect class="cls-33" x="1086" y="370.28" width="49.05" height="6.92" rx="3.46" ry="3.46" transform="translate(47.8 -119.78) rotate(6.31)"/>
    <rect class="cls-33" x="1084.13" y="378.34" width="49.05" height="6.92" rx="3.46" ry="3.46" transform="translate(48.67 -119.52) rotate(6.31)"/>
    <rect class="cls-33" x="1086.31" y="386.62" width="42.61" height="7.72" rx="3.86" ry="3.86" transform="translate(49.62 -119.36) rotate(6.31)"/>
    <circle class="cls-38" cx="1133.53" cy="225.59" r="27.86"/>
    <circle class="cls-38" cx="1145.7" cy="263.11" r="45.36"/>
    <circle class="cls-38" cx="1108.31" cy="241.78" r="27.86"/>
    <circle class="cls-40" cx="1137.52" cy="260.84" r="95.76"/>
    <circle class="cls-5" cx="1179.71" cy="232.12" r="6.34"/>
  </g>
</svg>