<?xml version="1.0" encoding="UTF-8"?>
<svg id="Layer_1" xmlns="http://www.w3.org/2000/svg" viewBox="0 0 715.84 796.73">
  <defs>
    <style>
      .cls-1 {
        opacity: .26;
      }

      .cls-1, .cls-2 {
        fill: #fdea73;
      }

      .cls-3 {
        fill: #874f26;
      }

      .cls-4 {
        fill: #010101;
      }

      .cls-5 {
        fill: #7c3529;
      }

      .cls-6 {
        fill: #fff;
      }

      .cls-7 {
        fill: #543934;
      }

      .cls-8, .cls-9 {
        fill: #ffea86;
      }

      .cls-10 {
        fill: #0e5668;
      }

      .cls-11 {
        fill: #77431c;
      }

      .cls-12 {
        fill: #17444c;
      }

      .cls-13 {
        fill: #2c190d;
      }

      .cls-14 {
        fill: #944130;
      }

      .cls-9 {
        opacity: .36;
      }

      .cls-15 {
        fill: #4b2b21;
      }

      .cls-16 {
        fill: #663314;
      }
    </style>
  </defs>
  <path class="cls-8" d="M640.16,572.13l-223.72-87.03c-13.15-5.66-26.9-9.83-40.98-12.4l-45.06-8.25-15.08-4.61-3.67-37.37c1.81-.89,4.02-2.09,5.6-3.32l8.15-1.39-1.06-3.7-.85-.23c7.49-4.98,11.41-12.34,15.28-22.82l.88-.15c-.07-.58-.13-1.16-.2-1.73,2.73-7.64,5.53-16.86,9.62-27.92,7.76-20.94,7.17-43.28,6.32-53.87-.06-.82-.14-1.65-.22-2.47,0-.02,0-.04,0-.06-.1-1.08-.19-2.16-.32-3.24l-.41-3.44c-.59-5.73-1.3-13.55-1.9-20.52v-4.42s.36-12.35.66-36.05c1.37-1.36,2.21-3.22,2.13-5.16-.08-1.99-1.09-3.63-2.62-4.59,3.15-.97,5.46-3.97,5.33-7.19-.08-2.1-1.19-3.83-2.83-4.81,2.24-1.24,3.76-3.63,3.66-6.18-.06-1.47-.65-2.74-1.58-3.67,1.28-1.3,2.06-3.06,1.98-4.9-.05-1.27-.5-2.4-1.23-3.29,1.09-1.26,1.73-2.88,1.67-4.56-.09-2.21-1.38-3.98-3.25-4.81.81-1.16,1.27-2.54,1.21-3.97-.1-2.57-1.83-4.54-4.18-5.14,1.13-1.36,1.8-3.07,1.73-4.86-.12-3.06-2.37-5.35-5.31-5.73,1.12-1.35,1.77-3.06,1.7-4.83-.15-3.68-3.35-6.25-7.16-5.73-.32.04-.63.11-.94.2.78-1.12,1.23-2.46,1.17-3.85-.12-2.9-2.36-5.02-5.22-5.16.19-.63.28-1.29.25-1.95-.13-3.29-2.99-5.57-6.39-5.11-.1.01-.2.04-.3.06.39-.94.6-1.95.56-2.99-.15-3.78-3.44-6.41-7.35-5.88-.58.08-1.14.23-1.67.43.21-.72.32-1.47.29-2.24-.15-3.78-3.44-6.41-7.35-5.88-.06,0-.11.02-.16.03.09-.48.12-.98.11-1.47-.15-3.78-3.44-6.41-7.35-5.88-.1.01-.19.04-.28.05-.65-3.16-3.61-5.25-7.09-4.84-.61-3.7-4.03-6.17-8.04-5.62-.93.13-1.82.41-2.64.82-1.17-2.85-4.17-4.6-7.62-4.13-.66.09-1.3.27-1.91.5-1.18-2.82-4.17-4.57-7.6-4.1-1.3.18-2.51.66-3.57,1.35-1.74-2.01-4.49-3.1-7.54-2.68-1.22.17-2.37.56-3.41,1.12-1.64-1.09-3.72-1.6-5.97-1.3-2.42.33-4.57,1.55-6.14,3.26-1.71-1.37-4.02-2.05-6.54-1.71-2.13.29-4.06,1.27-5.56,2.67-1.74-2.02-4.49-3.12-7.55-2.7-3.05.41-5.68,2.24-7.24,4.69-1.74-1.7-4.29-2.58-7.09-2.2-3.55.48-6.53,2.87-7.92,5.94-1.46-1.96-3.96-3.06-6.76-2.68-2.38.32-4.46,1.65-5.82,3.47-1.31-.7-2.88-1.01-4.56-.79-2.62.36-4.88,1.93-6.21,4.04-1.3-.69-2.86-.99-4.52-.76-3.06.42-5.63,2.49-6.8,5.15-.81-.16-1.66-.19-2.55-.07-3.16.43-5.8,2.62-6.91,5.4-.43-.01-.86,0-1.3.06-3,.41-5.53,2.41-6.74,4.99-2.96.82-5.31,3.19-6.09,6.01-4.01.71-7.1,4.25-7.14,8.15-2.7,1.37-4.61,4.08-4.76,7.05-4.14.62-7.36,4.25-7.37,8.25-.02,0-.04,0-.06,0-4.3.58-7.64,4.43-7.48,8.58.05,1.33.46,2.52,1.13,3.52-4.25.62-7.56,4.44-7.39,8.56.08,2,.96,3.7,2.33,4.86-2.74,1.53-4.58,4.46-4.46,7.57.07,1.81.8,3.38,1.95,4.52-4,.85-7.02,4.51-6.87,8.47.09,2.15,1.1,3.96,2.66,5.13-2.41,1.25-4.05,3.77-3.95,6.46.08,1.96,1.07,3.58,2.56,4.54-2.03,1.34-3.36,3.64-3.26,6.06.04,1.1.37,2.09.92,2.92-1.57,1.37-2.54,3.36-2.46,5.44.09,2.29,1.44,4.12,3.37,4.97-.43.93-.65,1.95-.61,2.99.09,2.24,1.38,4.04,3.24,4.92-.58,1.05-.9,2.23-.85,3.45.07,1.85.97,3.4,2.32,4.37-.49.98-.76,2.08-.71,3.2.11,2.83,2.13,4.96,4.82,5.41-.21.69-.32,1.41-.29,2.15.03.68,9.63,1.84,9.86,2.43-6.54,1.78-13.43,8.95-11.03,16.15,5.38,16.2,15.02,29.65,19.4,40.56,4.05,10.1,9.11,28.56,36.26,24.31,2.67,6.21,7.69,12.22,11.13,18.02v93.79l-70.19,22.85c-37.27,12.13-64.01,44.02-70.17,81.8l-.32-3.35-31.31,140.91c-7.31,32.89,5.17,66.09,30.27,86.28v13.95h391.99l-9.29-191.1,182.91,51.81c25.73,8.54,53.52-5.38,62.1-31.1h0c8.07-24.21-3.74-50.57-27.18-60.67Z"/>
  <path class="cls-8" d="M631.3,330.5l1.09-43.9c-.55-2.93-3.31-3.43-4.71-3.29h0c-5.69.59-10.18,5.08-10.78,10.77l-4.35,41.12s-42.47,40.23-43.18,42.22c-.71,1.99,12.79,5.25,12.79,5.25"/>
  <path class="cls-8" d="M589.99,364.1l-3.24,2.81-3.98,3.46-.63-29.42c-.31-7.5-5.38-12.06-10.31-10.31h0c-5.54,1.97-8.06,5.61-10.48,10.97-4.3,9.49-5.59,29.52-7.62,41.77-2.03,12.22,1,17.11,1.58,16.51"/>
  <path class="cls-10" d="M231.96,448.24l-121.4,40.66c-42.65,13.89-71.52,53.65-71.52,98.51v221.08h391.99l-12.13-236.58c0-37.93-10.15-72.67-44.77-88.17l-75.64-23.87"/>
  <path class="cls-3" d="M316.08,468.12c0,13.13-17.91,32.41-55.69,32.41-55.69,0-81.14-19.28-81.14-32.41s30.63-23.77,68.42-23.77,68.42,10.64,68.42,23.77Z"/>
  <g>
    <path class="cls-4" d="M135.78,271.62c.12,3.05-2.33,5.86-5.48,6.29-3.15.43-5.8-1.69-5.92-4.74s2.33-5.86,5.48-6.29,5.8,1.69,5.92,4.74Z"/>
    <path class="cls-4" d="M135.02,263.62c.13,3.28-2.51,6.31-5.9,6.77s-6.25-1.82-6.38-5.1c-.13-3.28,2.51-6.31,5.9-6.77,3.39-.46,6.25,1.82,6.38,5.1Z"/>
    <path class="cls-4" d="M130.76,256.52c.13,3.28-2.51,6.31-5.9,6.77-3.39.46-6.25-1.82-6.38-5.1s2.51-6.31,5.9-6.77,6.25,1.82,6.38,5.1Z"/>
    <path class="cls-4" d="M129.25,249.41c.13,3.28-2.51,6.31-5.9,6.77s-6.25-1.82-6.38-5.1c-.13-3.28,2.51-6.31,5.9-6.77,3.39-.46,6.25,1.82,6.38,5.1Z"/>
    <path class="cls-4" d="M127,241.55c.13,3.28-2.51,6.31-5.9,6.77s-6.25-1.82-6.38-5.1,2.51-6.31,5.9-6.77c3.39-.46,6.25,1.82,6.38,5.1Z"/>
    <path class="cls-4" d="M124.41,234.07c.13,3.28-2.51,6.31-5.9,6.77-3.39.46-6.25-1.82-6.38-5.1s2.51-6.31,5.9-6.77,6.25,1.82,6.38,5.1Z"/>
    <path class="cls-4" d="M125.86,226.21c.13,3.28-2.51,6.31-5.9,6.77s-6.25-1.82-6.38-5.1c-.13-3.28,2.51-6.31,5.9-6.77,3.39-.46,6.25,1.82,6.38,5.1Z"/>
    <path class="cls-4" d="M126.52,216.25c.13,3.28-2.51,6.31-5.9,6.77s-6.25-1.82-6.38-5.1,2.51-6.31,5.9-6.77,6.25,1.82,6.38,5.1Z"/>
    <path class="cls-4" d="M130.06,205.05c.16,3.9-2.99,7.51-7.03,8.06s-7.43-2.17-7.59-6.07,2.99-7.51,7.03-8.06c4.04-.55,7.43,2.17,7.59,6.07Z"/>
    <path class="cls-4" d="M134.68,192.84c.16,3.9-2.99,7.51-7.03,8.06s-7.43-2.17-7.59-6.07,2.99-7.51,7.03-8.06c4.04-.55,7.43,2.17,7.59,6.07Z"/>
    <path class="cls-4" d="M136.68,181.17c.16,3.9-2.99,7.51-7.03,8.06-4.04.55-7.43-2.17-7.59-6.07s2.99-7.51,7.03-8.06,7.43,2.17,7.59,6.07Z"/>
    <path class="cls-4" d="M142.56,169.82c.16,3.9-2.99,7.51-7.03,8.06-4.04.55-7.43-2.17-7.59-6.07s2.99-7.51,7.03-8.06,7.43,2.17,7.59,6.07Z"/>
    <path class="cls-4" d="M149.65,162.04c.16,3.9-2.99,7.51-7.03,8.06-4.04.55-7.43-2.17-7.59-6.07-.16-3.9,2.99-7.51,7.03-8.06,4.04-.55,7.43,2.17,7.59,6.07Z"/>
    <path class="cls-4" d="M156.57,154.63c.16,3.9-2.99,7.51-7.03,8.06s-7.43-2.17-7.59-6.07,2.99-7.51,7.03-8.06c4.04-.55,7.43,2.17,7.59,6.07Z"/>
    <path class="cls-4" d="M161.05,147.73c.16,3.9-2.99,7.51-7.03,8.06s-7.43-2.17-7.59-6.07,2.99-7.51,7.03-8.06,7.43,2.17,7.59,6.07Z"/>
    <path class="cls-4" d="M167.5,141.91c.16,3.9-2.99,7.51-7.03,8.06s-7.43-2.17-7.59-6.07,2.99-7.51,7.03-8.06c4.04-.55,7.43,2.17,7.59,6.07Z"/>
    <path class="cls-4" d="M172.78,137.45c.16,3.9-2.99,7.51-7.03,8.06s-7.43-2.17-7.59-6.07,2.99-7.51,7.03-8.06,7.43,2.17,7.59,6.07Z"/>
    <path class="cls-4" d="M180.5,132.31c.16,3.9-2.99,7.51-7.03,8.06s-7.43-2.17-7.59-6.07,2.99-7.51,7.03-8.06,7.43,2.17,7.59,6.07Z"/>
    <path class="cls-4" d="M189.29,127.54c.16,3.9-2.99,7.51-7.03,8.06s-7.43-2.17-7.59-6.07c-.16-3.9,2.99-7.51,7.03-8.06s7.43,2.17,7.59,6.07Z"/>
    <path class="cls-4" d="M199.37,124.47c.16,3.9-2.99,7.51-7.03,8.06s-7.43-2.17-7.59-6.07,2.99-7.51,7.03-8.06,7.43,2.17,7.59,6.07Z"/>
    <path class="cls-4" d="M209.13,121.95c.16,3.9-2.99,7.51-7.03,8.06s-7.43-2.17-7.59-6.07c-.16-3.9,2.99-7.51,7.03-8.06s7.43,2.17,7.59,6.07Z"/>
    <path class="cls-4" d="M224.19,119.9c.18,4.56-3.49,8.77-8.2,9.41s-8.68-2.53-8.86-7.09c-.18-4.56,3.49-8.77,8.2-9.41s8.68,2.53,8.86,7.09Z"/>
    <path class="cls-4" d="M237.65,117.56c.18,4.56-3.49,8.77-8.2,9.41-4.71.64-8.68-2.53-8.86-7.09s3.49-8.77,8.2-9.41,8.68,2.53,8.86,7.09Z"/>
    <path class="cls-4" d="M249.97,117.58c.18,4.56-3.49,8.77-8.2,9.41-4.71.64-8.68-2.53-8.86-7.09s3.49-8.77,8.2-9.41,8.68,2.53,8.86,7.09Z"/>
    <path class="cls-4" d="M261.88,116.13c.18,4.56-3.49,8.77-8.2,9.41-4.71.64-8.68-2.53-8.86-7.09-.18-4.56,3.49-8.77,8.2-9.41s8.68,2.53,8.86,7.09Z"/>
    <path class="cls-4" d="M270.69,116.29c.18,4.56-3.49,8.77-8.2,9.41-4.71.64-8.68-2.53-8.86-7.09-.18-4.56,3.49-8.77,8.2-9.41s8.68,2.53,8.86,7.09Z"/>
    <path class="cls-4" d="M279.9,116.57c.16,3.93-3.01,7.56-7.07,8.11s-7.48-2.18-7.64-6.11c-.16-3.93,3.01-7.56,7.07-8.11,4.06-.55,7.48,2.18,7.64,6.11Z"/>
    <path class="cls-4" d="M288.84,119.95c.16,3.93-3.01,7.56-7.07,8.11-4.06.55-7.48-2.18-7.64-6.11-.16-3.93,3.01-7.56,7.07-8.11,4.06-.55,7.48,2.18,7.64,6.11Z"/>
    <path class="cls-4" d="M298.47,123.07c.16,3.93-3.01,7.56-7.07,8.11s-7.48-2.18-7.64-6.11c-.16-3.93,3.01-7.56,7.07-8.11,4.06-.55,7.48,2.18,7.64,6.11Z"/>
    <path class="cls-4" d="M305.17,127.77c.14,3.55-2.72,6.84-6.39,7.34s-6.77-1.97-6.91-5.53c-.14-3.55,2.72-6.84,6.39-7.34s6.77,1.97,6.91,5.53Z"/>
    <path class="cls-4" d="M312.21,132.26c.14,3.55-2.72,6.84-6.39,7.34s-6.77-1.97-6.91-5.53c-.14-3.55,2.72-6.84,6.39-7.34s6.77,1.97,6.91,5.53Z"/>
    <path class="cls-4" d="M319.18,139.14c.14,3.55-2.72,6.84-6.39,7.34s-6.77-1.97-6.91-5.53c-.14-3.55,2.72-6.84,6.39-7.34s6.77,1.97,6.91,5.53Z"/>
    <path class="cls-4" d="M327.39,146.36c.14,3.55-2.72,6.84-6.39,7.34-3.67.5-6.77-1.97-6.91-5.53-.14-3.55,2.72-6.84,6.39-7.34s6.77,1.97,6.91,5.53Z"/>
    <path class="cls-4" d="M333.15,153.92c.12,3.09-2.36,5.94-5.56,6.37s-5.88-1.72-6-4.8,2.36-5.94,5.56-6.37,5.88,1.72,6,4.8Z"/>
    <path class="cls-4" d="M337.81,160.6c.12,3.09-2.36,5.94-5.56,6.37s-5.88-1.72-6-4.8,2.36-5.94,5.56-6.37,5.88,1.72,6,4.8Z"/>
    <path class="cls-4" d="M344.33,169.42c.14,3.46-2.65,6.66-6.23,7.15s-6.59-1.92-6.73-5.38,2.65-6.66,6.23-7.15,6.59,1.92,6.73,5.38Z"/>
    <path class="cls-4" d="M347.72,179.34c.14,3.46-2.65,6.66-6.23,7.15s-6.59-1.92-6.73-5.38c-.14-3.46,2.65-6.66,6.23-7.15s6.59,1.92,6.73,5.38Z"/>
    <path class="cls-4" d="M350.02,188.73c.13,3.18-2.43,6.12-5.72,6.56s-6.05-1.77-6.18-4.94,2.43-6.12,5.72-6.56,6.05,1.77,6.18,4.94Z"/>
    <path class="cls-4" d="M351.94,196.98c.13,3.18-2.43,6.12-5.72,6.56s-6.05-1.77-6.18-4.94,2.43-6.12,5.72-6.56,6.05,1.77,6.18,4.94Z"/>
    <path class="cls-4" d="M351.53,204.35c.13,3.18-2.43,6.12-5.72,6.56-3.29.45-6.05-1.77-6.18-4.94-.13-3.18,2.43-6.12,5.72-6.56s6.05,1.77,6.18,4.94Z"/>
    <path class="cls-4" d="M351.14,212.4c.13,3.18-2.43,6.12-5.72,6.56-3.29.45-6.05-1.77-6.18-4.94-.13-3.18,2.43-6.12,5.72-6.56,3.29-.45,6.05,1.77,6.18,4.94Z"/>
    <path class="cls-4" d="M350.37,222.72c.14,3.39-2.6,6.53-6.1,7s-6.46-1.88-6.59-5.27c-.14-3.39,2.6-6.53,6.1-7s6.46,1.88,6.59,5.27Z"/>
    <path class="cls-4" d="M347.82,233.79c.13,3.3-2.53,6.35-5.94,6.81s-6.28-1.83-6.41-5.13c-.13-3.3,2.53-6.35,5.94-6.81s6.28,1.83,6.41,5.13Z"/>
    <path class="cls-4" d="M343.84,244.38c.13,3.3-2.53,6.35-5.94,6.81s-6.28-1.83-6.41-5.13,2.53-6.35,5.94-6.81c3.41-.46,6.28,1.83,6.41,5.13Z"/>
  </g>
  <g>
    <path class="cls-8" d="M367.35,465.64l12.46-34.58c2.1-5.83,7.44-9.87,13.61-10.3l13.19-.94"/>
    <path class="cls-8" d="M361.65,471.71l96.88-141.97c1.17-1.7,3.46-2.21,5.23-1.15l.23.13c7.09,4.21,6.66,12.35,2.98,19.72l-30.48,59.91,13.49,12.86c11.22,15.48,11.54,36.33.78,52.13l-8.73,12.83c-8.14,11.96-21.5,19.31-35.95,19.8l-25.17.85"/>
    <path class="cls-8" d="M428.06,408.36l8.27-4.87c2.54-1.49,5.71-1.39,8.15.26l1.74,1.17c2.7,1.82,3.94,5.15,3.1,8.3l-2.38,8.91"/>
    <path class="cls-8" d="M437.74,417.59l8.8-3.82c2.7-1.17,5.84-.69,8.06,1.25l1.58,1.38c2.45,2.14,3.29,5.6,2.07,8.61l-3.45,8.56"/>
    <path class="cls-8" d="M441.08,431.09l8.8-3.82c2.7-1.17,5.84-.69,8.06,1.25l1.58,1.38c2.45,2.14,3.29,5.6,2.07,8.61l-7.86,17.84"/>
    <path class="cls-8" d="M444.92,440.85l9.22-2.66c2.83-.82,5.88.07,7.83,2.27l1.39,1.57c2.16,2.44,3.86,8.9,2.26,11.74l-10.09,16.68"/>
  </g>
  <polygon class="cls-3" points="315.95 466.27 179.54 465.4 179.54 325.61 303.68 334.14 315.95 466.27"/>
  <g>
    <g>
      <path class="cls-4" d="M129.78,276.99c.13,3.24-2.48,6.24-5.84,6.7-3.35.46-6.17-1.8-6.3-5.04s2.48-6.24,5.84-6.7,6.17,1.8,6.3,5.04Z"/>
      <path class="cls-4" d="M128.97,268.47c.14,3.49-2.67,6.72-6.28,7.21-3.61.49-6.65-1.94-6.79-5.43-.14-3.49,2.67-6.72,6.28-7.21,3.61-.49,6.65,1.94,6.79,5.43Z"/>
      <path class="cls-4" d="M124.45,260.92c.14,3.49-2.67,6.72-6.28,7.21-3.61.49-6.65-1.94-6.79-5.43s2.67-6.72,6.28-7.21c3.61-.49,6.65,1.94,6.79,5.43Z"/>
      <path class="cls-4" d="M122.83,253.35c.14,3.49-2.67,6.72-6.28,7.21-3.61.49-6.65-1.94-6.79-5.43-.14-3.49,2.67-6.72,6.28-7.21,3.61-.49,6.65,1.94,6.79,5.43Z"/>
      <path class="cls-4" d="M120.44,244.98c.14,3.49-2.67,6.72-6.28,7.21s-6.65-1.94-6.79-5.43,2.67-6.72,6.28-7.21c3.61-.49,6.65,1.94,6.79,5.43Z"/>
      <path class="cls-4" d="M117.68,237.02c.14,3.49-2.67,6.72-6.28,7.21s-6.65-1.94-6.79-5.43,2.67-6.72,6.28-7.21,6.65,1.94,6.79,5.43Z"/>
      <path class="cls-4" d="M119.22,228.65c.14,3.49-2.67,6.72-6.28,7.21s-6.65-1.94-6.79-5.43,2.67-6.72,6.28-7.21,6.65,1.94,6.79,5.43Z"/>
      <path class="cls-4" d="M119.93,218.05c.14,3.49-2.67,6.72-6.28,7.21s-6.65-1.94-6.79-5.43,2.67-6.72,6.28-7.21,6.65,1.94,6.79,5.43Z"/>
      <path class="cls-4" d="M123.7,206.12c.17,4.15-3.18,8-7.48,8.58s-7.91-2.31-8.08-6.46,3.18-8,7.48-8.58c4.3-.58,7.91,2.31,8.08,6.46Z"/>
      <path class="cls-4" d="M128.61,193.13c.17,4.15-3.18,8-7.48,8.58-4.3.58-7.91-2.31-8.08-6.46-.17-4.15,3.18-8,7.48-8.58,4.3-.58,7.91,2.31,8.08,6.46Z"/>
      <path class="cls-4" d="M130.74,180.7c.17,4.15-3.18,8-7.48,8.58-4.3.58-7.91-2.31-8.08-6.46s3.18-8,7.48-8.58,7.91,2.31,8.08,6.46Z"/>
      <path class="cls-4" d="M137.01,168.62c.17,4.15-3.18,8-7.48,8.58-4.3.58-7.91-2.31-8.08-6.46s3.18-8,7.48-8.58,7.91,2.31,8.08,6.46Z"/>
      <path class="cls-4" d="M144.55,160.34c.17,4.15-3.18,8-7.48,8.58s-7.91-2.31-8.08-6.46,3.18-8,7.48-8.58c4.3-.58,7.91,2.31,8.08,6.46Z"/>
      <path class="cls-4" d="M151.91,152.46c.17,4.15-3.18,8-7.48,8.58s-7.91-2.31-8.08-6.46,3.18-8,7.48-8.58,7.91,2.31,8.08,6.46Z"/>
      <path class="cls-4" d="M156.68,145.1c.17,4.15-3.18,8-7.48,8.58s-7.91-2.31-8.08-6.46,3.18-8,7.48-8.58,7.91,2.31,8.08,6.46Z"/>
      <path class="cls-4" d="M163.55,138.91c.17,4.15-3.18,8-7.48,8.58s-7.91-2.31-8.08-6.46,3.18-8,7.48-8.58c4.3-.58,7.91,2.31,8.08,6.46Z"/>
      <path class="cls-4" d="M169.17,134.16c.17,4.15-3.18,8-7.48,8.58s-7.91-2.31-8.08-6.46,3.18-8,7.48-8.58,7.91,2.31,8.08,6.46Z"/>
      <path class="cls-4" d="M177.39,128.7c.17,4.15-3.18,8-7.48,8.58s-7.91-2.31-8.08-6.46c-.17-4.15,3.18-8,7.48-8.58s7.91,2.31,8.08,6.46Z"/>
      <path class="cls-4" d="M186.74,123.62c.17,4.15-3.18,8-7.48,8.58-4.3.58-7.91-2.31-8.08-6.46-.17-4.15,3.18-8,7.48-8.58s7.91,2.31,8.08,6.46Z"/>
      <path class="cls-4" d="M197.48,120.35c.17,4.15-3.18,8-7.48,8.58s-7.91-2.31-8.08-6.46,3.18-8,7.48-8.58,7.91,2.31,8.08,6.46Z"/>
      <path class="cls-4" d="M207.87,117.67c.17,4.15-3.18,8-7.48,8.58s-7.91-2.31-8.08-6.46,3.18-8,7.48-8.58,7.91,2.31,8.08,6.46Z"/>
      <path class="cls-4" d="M223.89,115.48c.19,4.85-3.72,9.34-8.73,10.02-5.02.68-9.24-2.7-9.43-7.55-.19-4.85,3.72-9.34,8.73-10.02s9.24,2.7,9.43,7.55Z"/>
      <path class="cls-4" d="M238.22,112.99c.19,4.85-3.72,9.34-8.73,10.02-5.02.68-9.24-2.7-9.43-7.55s3.72-9.34,8.73-10.02,9.24,2.7,9.43,7.55Z"/>
      <path class="cls-4" d="M251.34,113.02c.19,4.85-3.72,9.34-8.73,10.02-5.02.68-9.24-2.7-9.43-7.55-.19-4.85,3.72-9.34,8.73-10.02s9.24,2.7,9.43,7.55Z"/>
      <path class="cls-4" d="M264.02,111.47c.19,4.85-3.72,9.34-8.73,10.02-5.02.68-9.24-2.7-9.43-7.55s3.72-9.34,8.73-10.02,9.24,2.7,9.43,7.55Z"/>
      <path class="cls-4" d="M273.4,111.65c.19,4.85-3.72,9.34-8.73,10.02-5.02.68-9.24-2.7-9.43-7.55-.19-4.85,3.72-9.34,8.73-10.02s9.24,2.7,9.43,7.55Z"/>
      <path class="cls-4" d="M283.21,111.94c.17,4.18-3.2,8.05-7.53,8.64s-7.96-2.32-8.13-6.5c-.17-4.18,3.2-8.05,7.53-8.64,4.32-.59,7.96,2.32,8.13,6.5Z"/>
      <path class="cls-4" d="M292.72,115.54c.17,4.18-3.2,8.05-7.53,8.64-4.32.59-7.96-2.32-8.13-6.5s3.2-8.05,7.53-8.64,7.96,2.32,8.13,6.5Z"/>
      <path class="cls-4" d="M302.97,118.85c.17,4.18-3.2,8.05-7.53,8.64s-7.96-2.32-8.13-6.5c-.17-4.18,3.2-8.05,7.53-8.64,4.32-.59,7.96,2.32,8.13,6.5Z"/>
      <path class="cls-4" d="M310.1,123.86c.15,3.78-2.9,7.28-6.81,7.81s-7.2-2.1-7.35-5.88c-.15-3.78,2.9-7.28,6.81-7.81s7.2,2.1,7.35,5.88Z"/>
      <path class="cls-4" d="M317.6,128.64c.15,3.78-2.9,7.28-6.81,7.81s-7.2-2.1-7.35-5.88c-.15-3.78,2.9-7.28,6.81-7.81s7.2,2.1,7.35,5.88Z"/>
      <path class="cls-4" d="M325.01,135.97c.15,3.78-2.9,7.28-6.81,7.81-3.91.53-7.2-2.1-7.35-5.88-.15-3.78,2.9-7.28,6.81-7.81s7.2,2.1,7.35,5.88Z"/>
      <path class="cls-4" d="M333.75,143.65c.15,3.78-2.9,7.28-6.81,7.81s-7.2-2.1-7.35-5.88c-.15-3.78,2.9-7.28,6.81-7.81s7.2,2.1,7.35,5.88Z"/>
      <path class="cls-4" d="M339.88,151.7c.13,3.29-2.52,6.32-5.92,6.79s-6.26-1.83-6.39-5.11c-.13-3.29,2.52-6.32,5.92-6.79s6.26,1.83,6.39,5.11Z"/>
      <path class="cls-4" d="M344.85,158.81c.13,3.29-2.52,6.32-5.92,6.79s-6.26-1.83-6.39-5.11c-.13-3.29,2.52-6.32,5.92-6.79s6.26,1.83,6.39,5.11Z"/>
      <path class="cls-4" d="M351.78,168.2c.15,3.68-2.82,7.09-6.63,7.61s-7.02-2.05-7.16-5.73c-.15-3.68,2.82-7.09,6.63-7.61s7.02,2.05,7.16,5.73Z"/>
      <path class="cls-4" d="M355.39,178.76c.15,3.68-2.82,7.09-6.63,7.61s-7.02-2.05-7.16-5.73c-.15-3.68,2.82-7.09,6.63-7.61s7.02,2.05,7.16,5.73Z"/>
      <path class="cls-4" d="M357.84,188.75c.13,3.38-2.59,6.51-6.09,6.99s-6.44-1.88-6.58-5.26c-.13-3.38,2.59-6.51,6.09-6.99s6.44,1.88,6.58,5.26Z"/>
      <path class="cls-4" d="M359.88,197.53c.13,3.38-2.59,6.51-6.09,6.99-3.5.48-6.44-1.88-6.58-5.26-.13-3.38,2.59-6.51,6.09-6.99s6.44,1.88,6.58,5.26Z"/>
      <path class="cls-4" d="M359.44,205.38c.13,3.38-2.59,6.51-6.09,6.99-3.5.48-6.44-1.88-6.58-5.26-.13-3.38,2.59-6.51,6.09-6.99s6.44,1.88,6.58,5.26Z"/>
      <path class="cls-4" d="M359.04,213.95c.13,3.38-2.59,6.51-6.09,6.99-3.5.48-6.44-1.88-6.58-5.26-.13-3.38,2.59-6.51,6.09-6.99,3.5-.48,6.44,1.88,6.58,5.26Z"/>
      <path class="cls-4" d="M358.21,224.94c.14,3.61-2.77,6.95-6.5,7.45s-6.87-2.01-7.02-5.61c-.14-3.61,2.77-6.95,6.5-7.45,3.73-.51,6.87,2.01,7.02,5.61Z"/>
      <path class="cls-4" d="M355.5,236.72c.14,3.51-2.69,6.75-6.32,7.25s-6.68-1.95-6.82-5.46c-.14-3.51,2.69-6.75,6.32-7.25s6.68,1.95,6.82,5.46Z"/>
      <path class="cls-4" d="M351.26,247.99c.14,3.51-2.69,6.75-6.32,7.25s-6.68-1.95-6.82-5.46c-.14-3.51,2.69-6.75,6.32-7.25,3.63-.49,6.68,1.95,6.82,5.46Z"/>
    </g>
    <path class="cls-3" d="M134.71,253.65l21.6,43.45c2.91,28.59,10.6,54.05,24.31,76.47,12.53,20.5,32.29,35.56,55.24,42.65l37.29,11.52c5.48,3.06,11.79,4.31,18.02,3.57l11.45-1.35c9.8-1.16,18.39-7.09,22.95-15.84l14.95-28.71c12.66-24.32,17.71-51.88,14.49-79.11l-10.22-86.59c-1.77-14.99-7.13-29.33-15.64-41.81h0c-19.67-28.85-53.75-44.37-88.42-40.28l-18.95,2.24c-33.23,3.92-61.84,25.26-75.08,55.98l-4.82,11.19c-6.32,14.67-8.79,30.72-7.17,46.61Z"/>
    <path class="cls-4" d="M164.81,311.54c-19.16-39.61-87.36-177.78,67.45-196.06,138.74-16.38,121.15,166.76,121.15,166.76l-3.18.51s-2.26-31.94-5.91-56.6c-3.83-25.87-14.27-41.48-14.27-41.48,0,0-17.34,1.41-60.48,6.69-62.06,7.59-86.42,11.53-86.42,11.53,0,0,2.34,30.12-4.46,49.8-6.81,19.67-5.66,57.71-5.66,57.71l-8.21,1.13Z"/>
    <path class="cls-4" d="M153.53,284.14l-22.09-.06s-10.92-27.21-11.6-51.67c-.68-24.46,13.33-73.87,20.88-76.85,7.54-2.98,22.67,4.85,22.67,4.85"/>
    <g>
      <path class="cls-3" d="M152.08,282.17c-25.56-17.12-48.53-12.31-43.14,3.89,5.38,16.2,20.8,32.42,25.18,43.32,4.37,10.91,9.9,31.6,43.21,22.86"/>
      <path class="cls-11" d="M150.54,319.47c-17.69-3.44-11.23,13.76,9.41,19.61"/>
      <path class="cls-11" d="M149.9,300.71c-22.88-17.33-33.27-13.15-33.27-13.15-.94-7.96,3.5-12.98,26.09,3.88,3.19,2.38,5.67,5.59,7.18,9.28h0Z"/>
    </g>
    <path class="cls-4" d="M349.41,240.63l-14.24-8.29c-.88-.51-1.9-.73-2.92-.62-7.7.83-23.35,1.8-27.9,5.42-5.13,4.09-7.75,12.37-2.09,11.82,5.66-.56,21.01-10.54,29.47-9.29,6.82,1.01,14.72,1.37,17.54,1.48.28.01.37-.37.13-.51Z"/>
    <path class="cls-4" d="M203.06,264.96l11.92-11.38c.74-.71,1.68-1.16,2.69-1.29,7.68-.99,41.37-5.14,46.63-2.68,5.95,2.78,10.42,10.23,4.78,11.01s-41.13-3.91-49.07-.72c-6.39,2.56-14,4.76-16.71,5.52-.27.08-.45-.27-.24-.46Z"/>
    <g>
      <path class="cls-6" d="M268.2,292.54c-17.73-25.6-38.31-13.61-49.93-1.78,0,0,28.97,30.39,49.93,1.78Z"/>
      <g>
        <ellipse class="cls-7" cx="249.21" cy="286.31" rx="14.39" ry="15.13" transform="translate(-31.85 31.19) rotate(-6.73)"/>
        <ellipse class="cls-4" cx="249.35" cy="285.03" rx="8.87" ry="9.33" transform="translate(-31.7 31.2) rotate(-6.73)"/>
        <ellipse class="cls-8" cx="256.37" cy="286.28" rx="2.45" ry="2.57" transform="translate(-31.8 32.03) rotate(-6.73)"/>
      </g>
      <g>
        <path class="cls-13" d="M222.65,294.93l-5.95-3.8c6.99-10.95,16.49-17.39,26.76-18.15,7.26-.54,18.34,1.58,29.79,14.74l-5.32,4.63c-7.54-8.67-15.82-12.93-23.94-12.33-8,.59-15.57,5.89-21.33,14.91Z"/>
        <path class="cls-13" d="M247.28,307.98c-17.98-.28-24.72-5.54-31.5-15.78l5.88-3.9c5.09,7.68,9.36,12.36,25.73,12.62l-.11,7.06Z"/>
        <path class="cls-3" d="M268.4,292.2c-7.94-11.45-16.95-17.62-26.05-17.86-8.65-.22-17.56,5-25.07,14.71l-5.58-4.32c8.73-11.28,19.4-17.46,30.11-17.46.24,0,.48,0,.72,0,7.98.21,19.94,4,31.66,20.89l-5.8,4.02Z"/>
        <path class="cls-3" d="M242.5,310.54c-13.73,0-26.18-4.74-33.53-12.11l7.49-7.48c10.07,10.09,33.38,13.15,52.02,1.61l5.57,9c-10.16,6.29-21.22,8.98-31.56,8.98Z"/>
      </g>
    </g>
    <g>
      <path class="cls-6" d="M305.2,287.8c8.18-26.23,25.83-19.59,36.78-11.34,0,0-15.61,32.69-36.78,11.34Z"/>
      <g>
        <ellipse class="cls-7" cx="327.98" cy="278.6" rx="12.4" ry="11.87" transform="translate(-30.4 40.37) rotate(-6.73)"/>
        <ellipse class="cls-4" cx="327.63" cy="277.65" rx="7.64" ry="7.32" transform="translate(-30.29 40.33) rotate(-6.73)"/>
        <ellipse class="cls-8" cx="333.67" cy="275.58" rx="2.11" ry="2.02" transform="translate(-30.01 41.02) rotate(-6.73)"/>
      </g>
      <g>
        <path class="cls-13" d="M305.64,287.2l-5.43-2.32c4.9-11.48,12.58-18.6,21.64-20.05,8.35-1.33,17.08,2.4,23.96,10.25l-4.44,3.89c-5.51-6.29-12.3-9.32-18.59-8.31-6.98,1.12-13.07,6.99-17.14,16.54Z"/>
        <path class="cls-13" d="M323.84,297.16l-1.61-5.68c11.03-3.12,13.89-7.33,16.48-16.2l5.67,1.65c-3.04,10.42-7.05,16.42-20.54,20.23Z"/>
        <path class="cls-3" d="M304.6,287.67l-5.63-1.76c5.28-16.88,14.36-22.48,21.04-24.2,9.36-2.41,19.98,1.24,29.13,10l-4.08,4.26c-7.65-7.32-16.24-10.44-23.58-8.55-7.5,1.93-13.34,8.93-16.88,20.24Z"/>
        <path class="cls-3" d="M316.46,298.09c-5.44,0-10.95-1-16.15-3.27l3.53-8.12c15.11,6.58,35.26-.84,40.53-11.29l7.9,3.99c-5.28,10.47-20.25,18.69-35.82,18.69Z"/>
      </g>
    </g>
    <path class="cls-4" d="M233.33,413.56c-6.14-43.56,5.23-62.95,50.03-68.73,5.82-.78,11.61-1.31,17.44-1.72,6.13-.43,12.02-.67,18.28.33,16.3,2.51,21.55,13.81,22.54,28.86.63,7.74.69,15.28,1.21,22.94,0,0-6.04.71-6.04.71-2.11-11.04-2.1-22.6-5.55-32.98-3.73-11.33-16.88-10.66-26.82-9.94-6.52.53-13.13,1.21-19.57,2.19-39.65,5.96-45.33,18.85-41.47,57.16,0,0-10.05,1.19-10.05,1.19h0Z"/>
    <path class="cls-4" d="M353.53,265.85c1.32,13.57,3.41,33.18,5,46.51,1.81,19.82.01,40.2-7.13,58.93-11.62,33.06-11.21,54.99-52.4,59.96,0,0-1.19-10.05-1.19-10.05l1.03-.12s1.19,10.05,1.19,10.05c-18.66,2.31-38.22-.36-55.33-8.35-25.53-11.85-45.27-32.8-61.28-55.44-7.91-11.62-15.21-24.34-17.58-38.43-1.49-8.65-5.2-31.06-6.72-39.94,0,0,9.99-1.65,9.99-1.65,0,0,4.46,26.54,4.46,26.54.51,2.57,2.27,14.12,2.82,16.36,1.68,7.18,4.8,13.89,8.44,20.36,15.32,25.63,36.93,50.18,64.1,63,15.56,7.24,32.91,9.58,49.92,7.5,0,0,1.19,10.05,1.19,10.05,0,0-1.03.12-1.03.12,0,0-1.19-10.05-1.19-10.05,3.73-.39,7.41-.93,10.94-1.73,6.81-1.53,13.15-4.14,17.7-9.43,7.02-8.55,9.74-19.69,13.7-30.27,2.41-7.2,5.55-14.59,7.85-21.84,5.48-18.09,5.82-37.82,3.67-56.69-.62-7.62-2.02-27.2-2.54-35.02,0,0,4.4-.36,4.4-.36h0Z"/>
    <g>
      <path class="cls-11" d="M267.75,328.91c-1.03,12.32,9.36,12.75,18.51,9.7,5-1.42,12.98,1.5,19.71.71,6.73-.79,6.71-4.51,11.4-4.24,4.68.27,11.66-.37,3.93-12.76,0,0,5.63,9.67-2.45,11.35s-6.47,3.04-12.9,3.8c-6.42.76-15.85-.44-19.83.03-10.91,1.29-18.38-8.58-18.38-8.58Z"/>
      <path class="cls-16" d="M273.22,336.27c-.21-4.27,9.45-.51,12.72.89.4.17.39.74-.02.88-3.21,1.14-12.42,3.92-12.7-1.77Z"/>
    </g>
  </g>
  <path class="cls-4" d="M321.61,415.92l-4.72,1.01c-1.01.22-2.08.15-3.01-.3-.7-.34-1.18-.81-1.29-1.76l-1.47-13.46c-.14-1.24-1.26-2.14-2.5-2.01l-9.16,1c-1.24.14-2.14,1.26-2.01,2.5l1.4,12.78c.21,1.91-.94,3.72-2.77,4.33l-5.67,1.91.62,5.63,31.27-3.41-.69-8.22Z"/>
  <path class="cls-6" d="M265.7,370.58l22.96,10.26,32.81-5.94-.61-10.82s-37.33,2.11-38.06,2.11"/>
  <g>
    <g>
      <path class="cls-5" d="M327.99,367.15s-13.35,7.37-22.65,7.92-17.11,1.63-25.09-.38l-24.48-6.17c10,10.74,23.16,22.7,46.59,20.04h0s0,0,0,0h0c23.44-2.65,18.28-8.72,25.63-21.41Z"/>
      <path class="cls-14" d="M309.16,381.23s-.96.9-6.22,1.59-6.52.08-6.52.08c-1.06.14-2.04-.61-2.18-1.67h0c-.14-1.06.61-2.04,1.67-2.18l2.83-.37c.97-.13,1.96,0,2.87.37l.72.29,1.08-.7c.72-.47,1.53-.77,2.37-.88l2.86-.38c1.06-.14,2.04.61,2.18,1.67h0c.14,1.06-.61,2.04-1.67,2.18Z"/>
    </g>
    <path class="cls-15" d="M307.82,359.52c-5.95,1.45-12.57,1.34-18.67.79-6.1-.54-27.13,1.6-33.39,8.21,7.32,5.31,36.38,4.06,41.34,3.16,4.29-.78,3.52.77,6.23.46s1.61-1.71,5.97-1.84c5.07-.16,17.33-1.36,19.4-3.35-8.19-6.72-14.27-9.04-20.89-7.43Z"/>
  </g>
  <path class="cls-3" d="M304.42,303.06c7.38,11.47,13.14,16.77,15.17,19.1,2.02,2.33,4.2,9.49-1.56,11.21s-11.52,2.18-11.52,2.18"/>
  <path class="cls-10" d="M408.92,618.45l196.5,50.2c25.73,8.54,53.52-5.38,62.1-31.1h0c8.07-24.21-3.74-50.57-27.18-60.67l-223.72-87.03c-13.15-5.66-26.9-9.83-40.98-12.4l-48.12-8.81"/>
  <circle class="cls-8" cx="457.75" cy="259.87" r="5.86"/>
  <circle class="cls-8" cx="414.14" cy="154.4" r="5.35"/>
  <circle class="cls-8" cx="443.15" cy="67.77" r="5.35"/>
  <circle class="cls-8" cx="609.93" cy="24.06" r="5.35"/>
  <circle class="cls-8" cx="676.26" cy="111.2" r="5.35"/>
  <circle class="cls-9" cx="412.24" cy="230.29" r="3.75"/>
  <circle class="cls-9" cx="654.02" cy="49.74" r="3.75"/>
  <circle class="cls-9" cx="439.11" cy="105.69" r="2.76"/>
  <circle class="cls-9" cx="392.57" cy="118.63" r="2.76"/>
  <circle class="cls-9" cx="634.69" cy="237.2" r="2.76"/>
  <circle class="cls-9" cx="705.8" cy="236.25" r="2.76"/>
  <circle class="cls-9" cx="470.41" cy="18" r="2.76"/>
  <circle class="cls-8" cx="680.21" cy="174.37" r="5.35"/>
  <path class="cls-12" d="M327.97,468.64l-12.13-3.31c-15.85,19.24-39.81,31.94-67.94,31.94s-52.5-12.34-68.36-31.52l-12.83,4.37c15.23,24.21,52.14,41.02,81.71,41.02,31.25,0,63.93-15.11,79.54-42.5Z"/>
  <path class="cls-10" d="M40.84,566.8l-31.31,140.91c-9.29,41.79,13.35,84.09,53.27,99.54l.64.25"/>
  <polygon class="cls-3" points="247.64 570.59 393.39 441.26 434.59 466.44 311.71 636.94 247.64 570.59"/>
  <g>
    <path class="cls-11" d="M366.1,467.69l12.46-34.6c2.1-5.83,7.44-9.87,13.62-10.31l13.2-.94"/>
    <path class="cls-3" d="M360.4,473.76l96.93-142.04c1.17-1.7,3.46-2.21,5.24-1.15l.23.13c7.09,4.21,6.66,12.35,2.98,19.73l-30.49,59.94,13.49,12.87c11.23,15.48,16.23,35.39,5.47,51.2l-8.74,12.84c-8.14,11.96-17.25,16.63-30.66,20.53l-27.69,9.95"/>
    <path class="cls-3" d="M426.85,410.38l8.28-4.87c2.54-1.49,5.71-1.39,8.16.26l1.74,1.17c2.7,1.82,3.94,5.16,3.1,8.3l-2.38,8.92"/>
    <path class="cls-3" d="M436.54,419.61l8.81-3.82c2.7-1.17,5.84-.69,8.06,1.25l1.58,1.38c2.46,2.14,3.29,5.6,2.07,8.62l-3.45,8.56"/>
    <path class="cls-3" d="M439.87,433.12l8.81-3.82c2.7-1.17,5.84-.69,8.06,1.25l1.58,1.38c2.46,2.14,3.29,5.6,2.07,8.62l-7.87,17.85"/>
    <path class="cls-3" d="M443.72,442.89l9.23-2.66c2.83-.82,5.88.07,7.84,2.28l1.39,1.57c2.16,2.44,5.75,8.24,1.33,15.08l-7.68,12.26"/>
  </g>
  <polygon class="cls-12" points="329.66 629.23 313.01 640.26 313.29 656.61 228.96 577.64 245.22 571.29 257.15 555.57 329.66 629.23"/>
  <path class="cls-12" d="M238.64,577.49c-2.4-.24-70.99,60.02-88.28,75.25-.15.13.04.35.2.23l90.07-70.57"/>
  <path class="cls-12" d="M307.15,647.9c-2.38.38-86.27,98.63-99.06,117.78-.11.16.13.33.25.17l102-113.72"/>
  <circle class="cls-12" cx="614.27" cy="620.83" r="54.19"/>
  <circle class="cls-12" cx="622.98" cy="612.93" r="54.19"/>
  <path class="cls-11" d="M633.3,332.5l-.96-44.84c-.03-1.41-1.26-2.5-2.66-2.35h0c-5.69.59-10.18,5.08-10.78,10.77l-4.35,41.12s-42.47,40.23-43.18,42.22c-.71,1.99,12.79,5.25,12.79,5.25"/>
  <path class="cls-3" d="M568.55,614.99l-15.65-202.06,61.64-12.77,49.39,199.1c7.34,28.33-11.87,56.66-40.9,60.33h0c-27.58,3.48-52.43-16.87-54.47-44.59Z"/>
  <path class="cls-8" d="M647.09,323.17l4.18-52.32c.02-1.41-1.16-2.54-2.57-2.45l-1.7.28c-5.7.38-10.37,4.69-11.18,10.35l-7.64,48.12s-36.34,38.06-37.12,40.02,4.97,6.27,4.97,6.27"/>
  <path class="cls-11" d="M589.24,366.85l-3.24,2.81-3.98,3.46-.63-29.42c-.31-7.5-5.38-12.06-10.31-10.31h0c-5.54,1.97-8.06,5.61-10.48,10.97-4.3,9.49-5.59,29.52-7.62,41.77-2.03,12.22,1,17.11,1.58,16.51"/>
  <path class="cls-11" d="M649.48,323.28l2.48-52.03c.02-1.41-1.16-2.54-2.57-2.45h0c-5.7.38-10.37,4.69-11.18,10.35l-7.64,48.12s-46.82,41.74-47.6,43.7,15.45,2.59,15.45,2.59"/>
  <path class="cls-8" d="M579.42,372.83c12-6.09,53.97-39.19,53.97-39.19l24.86-56.65c.85-1.93,2.5-3.4,4.52-4.03h0c3.68-1.13,11.94,1.83,11.82,7.26l-13.85,64.29c-.41,1.87-1.31,3.6-2.61,5.01-9.77,10.58-43.3,52.48-44.41,54.18l-60.68,14.75s-6.07-21.92,3.48-30.6c9.56-8.68,22.13-14.45,22.13-14.45"/>
  <path class="cls-3" d="M580.44,375.57c12-6.09,53.97-39.19,53.97-39.19l24.86-56.65c.85-1.93,2.5-3.4,4.52-4.03h0c3.68-1.13,11.57,2.38,10.74,6.14l-12.77,65.4c-.41,1.87-1.31,3.6-2.61,5.01-9.77,10.58-43.3,52.48-44.41,54.18l-60.68,14.75s-6.07-21.92,3.48-30.6c9.56-8.68,22.13-14.45,22.13-14.45"/>
  <circle class="cls-1" cx="541.66" cy="159.37" r="108.91"/>
  <path class="cls-2" d="M552.73,94.6l8.72,32.53c.92,3.44,3.95,5.89,7.5,6.07l33.63,1.76c7.95.41,10.72,10.75,4.05,15.09l-28.24,18.35c-2.98,1.94-4.38,5.58-3.46,9.01l8.72,32.53c2.06,7.68-6.92,13.52-13.1,8.51l-26.18-21.19c-2.77-2.24-6.66-2.44-9.64-.5l-28.24,18.35c-6.67,4.33-14.99-2.4-12.14-9.83l12.06-31.44c1.27-3.32.26-7.09-2.5-9.33l-26.18-21.19c-6.18-5.01-2.35-15,5.6-14.59l33.63,1.76c3.55.19,6.82-1.94,8.1-5.26l12.06-31.44c2.85-7.43,13.54-6.87,15.6.81Z"/>
</svg>