<?xml version="1.0" encoding="UTF-8"?>
<svg id="Layer_5" xmlns="http://www.w3.org/2000/svg" viewBox="0 0 953.79 966.09">
  <defs>
    <style>
      .cls-1 {
        opacity: .2;
      }

      .cls-1, .cls-2, .cls-3, .cls-4, .cls-5 {
        fill: #fff;
      }

      .cls-6 {
        fill: #f89f50;
      }

      .cls-7 {
        fill: #d62080;
      }

      .cls-3 {
        opacity: .38;
      }

      .cls-8 {
        fill: #f2f2f7;
      }

      .cls-4 {
        opacity: .11;
      }

      .cls-5 {
        opacity: .3;
      }
    </style>
  </defs>
  <circle class="cls-3" cx="480.32" cy="483.3" r="181.49"/>
  <path class="cls-1" d="M476.89,947.99c-89.59,0-176.57-25.54-251.54-73.85-73.01-47.05-131.29-113.29-168.53-191.54l3.33-1.59c76.12,159.94,239.69,263.29,416.73,263.29,25.84,0,51.76-2.15,77.03-6.4l.61,3.64c-25.47,4.28-51.6,6.45-77.64,6.45ZM603.48,930.55l-1-3.55c197.64-55.79,335.67-238.35,335.67-443.95,0-105.38-34.59-204.57-100.04-286.87l2.89-2.3c32.01,40.25,56.94,85.12,74.09,133.36,17.75,49.92,26.75,102.33,26.75,155.8,0,52.08-8.55,103.22-25.41,151.99-16.3,47.15-40.04,91.2-70.55,130.93-30.19,39.32-66.24,73.41-107.16,101.35-41.53,28.35-87.03,49.63-135.25,63.24ZM37.76,636.2c-17.13-49.12-25.81-100.65-25.81-153.15,0-75.94,18.72-151.29,54.12-217.91,34.28-64.5,84.06-120.82,143.96-162.87l2.12,3.02C89.1,191.68,15.64,332.9,15.64,483.05c0,52.09,8.62,103.21,25.61,151.94l-3.49,1.22ZM805.09,158.94C717.75,70.5,601.19,21.79,476.89,21.79c-77.85,0-154.81,19.76-222.54,57.14l-1.78-3.23c68.28-37.68,145.85-57.6,224.32-57.6,63.28,0,124.63,12.49,182.34,37.12,55.75,23.79,105.7,57.82,148.48,101.13l-2.63,2.59Z"/>
  <path class="cls-1" d="M476.89,826.78c-44.46,0-87.73-8.37-128.61-24.87l1.38-3.42c40.43,16.32,83.24,24.6,127.23,24.6,19.87,0,39.79-1.73,59.2-5.14l.64,3.64c-19.62,3.44-39.75,5.19-59.84,5.19ZM583.26,810.01l-1.14-3.51c60.49-19.66,114.19-55.95,155.32-104.92l2.83,2.37c-41.57,49.51-95.86,86.18-157,106.06ZM305.17,780.88c-55.83-32.26-101.38-79.36-131.72-136.2l3.26-1.74c30.02,56.24,75.08,102.83,130.31,134.74l-1.85,3.2ZM768.47,665.17l-3.13-1.96c33.75-53.93,51.59-116.23,51.59-180.16v-.69s3.69,0,3.69,0v.68c0,64.64-18.04,127.61-52.16,182.13ZM153.9,600.9c-13.76-37.7-20.74-77.35-20.74-117.86,0-23.96,2.48-47.89,7.37-71.13l3.61.76c-4.84,22.99-7.29,46.67-7.29,70.37,0,40.07,6.9,79.3,20.51,116.59l-3.47,1.27ZM813.58,435.05c-8.9-63.03-35.38-122.18-76.57-171.04l2.82-2.38c41.64,49.39,68.4,109.18,77.4,172.9l-3.65.52ZM157.15,367.03l-3.47-1.26c21.94-60.45,60.41-113.48,111.27-153.36l2.28,2.9c-50.31,39.45-88.37,91.91-110.07,151.71ZM703.99,229.95c-47.58-42.72-105.86-71.05-168.55-81.93l.63-3.64c63.38,11,122.3,39.64,170.39,82.82l-2.47,2.75ZM306.48,188.72l-1.85-3.19c52.11-30.24,111.68-46.22,172.27-46.22,3.81,0,7.68.06,11.49.19l-.12,3.69c-3.77-.12-7.6-.19-11.37-.19-59.94,0-118.87,15.81-170.41,45.72Z"/>
  <path class="cls-6" d="M221.82,227.17l7.52,16.85c.79,1.78,2.64,2.85,4.58,2.64l18.35-1.95c4.33-.46,6.72,4.89,3.49,7.81l-13.7,12.36c-1.45,1.31-1.89,3.39-1.09,5.17l7.52,16.85c1.78,3.98-2.58,7.91-6.35,5.73l-15.99-9.21c-1.69-.97-3.81-.75-5.26.56l-13.7,12.36c-3.24,2.92-8.32,0-7.42-4.27l3.82-18.05c.4-1.91-.47-3.86-2.16-4.83l-15.99-9.21c-3.78-2.18-2.56-7.91,1.77-8.37l18.35-1.95c1.94-.21,3.52-1.64,3.93-3.54l3.82-18.05c.9-4.26,6.73-4.88,8.51-.9Z"/>
  <g id="Heart">
    <path class="cls-2" d="M928.27,262.88h0l.08-.73c1.14-9.98-6.3-19.6-16.67-20.79-10.38-1.19-14.67,3.28-18.35,9.15h0c-2.26-6.55-8.22-12.19-15.82-13.06s-19.79,6.51-20.93,16.49c-1.14,9.98-.06.5-.08.73h0s-2.41,11.74,9.3,26.17c3.55,4.49,7.44,8.88,12.63,14.37,5.03,5.31,13.17,6.24,19.27,2.2,6.3-4.17,11.08-7.57,15.55-11.15,14.66-11.41,14.96-23.4,14.96-23.4h.07Z"/>
  </g>
  <g id="Heart-2" data-name="Heart">
    <path class="cls-7" d="M858.55,253.16s-2.41,11.74,9.3,26.17c3.55,4.49,7.44,8.88,12.63,14.37,5.03,5.31,13.17,6.24,19.27,2.2,6.3-4.17,11.08-7.57,15.55-11.15,14.66-11.41,14.96-23.4,14.96-23.4h.07c.03-.22.06-.49.08-.72,1.14-9.98-6.3-19.6-16.67-20.79s-14.67,3.28-18.35,9.15h0c-2.26-6.55-8.22-12.19-15.82-13.06s-19.79,6.51-20.93,16.49"/>
  </g>
  <g id="Heart-3" data-name="Heart">
    <path class="cls-2" d="M138.05,761.76h0l-.11-.54c-1.53-7.4-9.11-12.52-16.8-10.92-7.69,1.59-9.71,5.79-10.96,10.86h0c-3.16-4.15-8.74-6.77-14.37-5.6-5.63,1.17-12.61,9.31-11.07,16.7,1.53,7.4.08.37.11.54h0s1.04,8.96,12.8,16.51c3.59,2.37,7.4,4.59,12.41,7.29,4.84,2.61,10.88,1.36,14.28-2.96,3.52-4.46,6.13-8.02,8.48-11.62,7.79-11.6,5.18-20.23,5.18-20.23h.05Z"/>
  </g>
  <g id="Heart-4" data-name="Heart">
    <path class="cls-2" d="M266.26,81.01h0l-.05-.55c-.72-7.52-7.69-13.44-15.51-12.69-7.82.75-10.28,4.7-12.07,9.6h0c-2.69-4.47-7.95-7.68-13.67-7.13-5.73.55-13.54,7.88-12.82,15.4.72,7.52.04.37.05.55h0s.06,9.02,10.93,17.8c3.31,2.75,6.86,5.37,11.54,8.6,4.53,3.12,10.66,2.54,14.52-1.39s6.97-7.3,9.7-10.63c9-10.69,7.35-19.55,7.35-19.55h.05Z"/>
  </g>
  <g id="Heart-5" data-name="Heart">
    <path class="cls-7" d="M264.42,79.01h0l-.05-.55c-.72-7.52-7.69-13.44-15.51-12.69-7.82.75-10.28,4.7-12.07,9.6h0c-2.69-4.47-7.95-7.68-13.67-7.13-5.73.55-13.54,7.88-12.82,15.4.72,7.52.04.37.05.55h0s.06,9.02,10.93,17.8c3.31,2.75,6.86,5.37,11.54,8.6,4.53,3.12,10.66,2.54,14.52-1.39s6.97-7.3,9.7-10.63c9-10.69,7.35-19.55,7.35-19.55h.05Z"/>
  </g>
  <g id="Heart-6" data-name="Heart">
    <path class="cls-2" d="M894.85,740.78h0l.05-.55c.74-7.52-4.97-14.66-12.79-15.43-7.82-.77-10.99,2.64-13.69,7.1h0c-1.78-4.9-6.32-9.07-12.05-9.63-5.73-.56-14.81,5.13-15.54,12.65-.74,7.52-.04.37-.05.55h0s-1.67,8.86,7.3,19.57c2.72,3.33,5.7,6.59,9.67,10.65,3.85,3.93,9.98,4.54,14.52,1.42s8.24-5.83,11.56-8.57c10.89-8.76,10.97-17.77,10.97-17.77h.05Z"/>
  </g>
  <g id="Heart-7" data-name="Heart">
    <path class="cls-7" d="M896.42,742.36h0l.05-.55c.74-7.52-4.97-14.66-12.79-15.43-7.82-.77-10.99,2.64-13.69,7.1h0c-1.78-4.9-6.32-9.07-12.05-9.63-5.73-.56-14.81,5.13-15.54,12.65-.74,7.52-.04.37-.05.55h0s-1.67,8.86,7.3,19.57c2.72,3.33,5.7,6.59,9.67,10.65,3.85,3.93,9.98,4.54,14.52,1.42,4.69-3.21,8.24-5.83,11.56-8.57,10.89-8.76,10.97-17.77,10.97-17.77h.05Z"/>
  </g>
  <g id="Heart-8" data-name="Heart">
    <path class="cls-2" d="M189.29,521.81h0l-.34-.84c-4.69-11.55-18.51-17.61-30.52-12.73-12.01,4.88-14.03,12.29-14.55,20.88h0c-6.36-5.79-16.2-8.39-24.99-4.82-8.8,3.57-17.69,18.86-13,30.41,4.69,11.55.23.57.34.84h0s4.35,14.23,25.69,22.98c6.54,2.78,13.39,5.25,22.31,8.14,8.64,2.8,18.06-1.03,22.3-9.06,4.38-8.29,7.57-14.84,10.31-21.39,9.19-21.15,2.38-34.39,2.38-34.39l.08-.03Z"/>
  </g>
  <g id="Heart-9" data-name="Heart">
    <path class="cls-7" d="M187.09,523.49h0l-.34-.84c-4.69-11.55-18.51-17.61-30.52-12.73-12.01,4.88-14.03,12.29-14.55,20.88h0c-6.36-5.79-16.2-8.39-24.99-4.82-8.8,3.57-17.69,18.86-13,30.41,4.69,11.55.23.57.34.84h0s4.35,14.23,25.69,22.98c6.54,2.78,13.39,5.25,22.31,8.14,8.64,2.8,18.06-1.03,22.3-9.06,4.38-8.29,7.57-14.84,10.31-21.39,9.19-21.15,2.38-34.39,2.38-34.39l.08-.03Z"/>
  </g>
  <path class="cls-6" d="M796.28,592.93l4.83,17.81c.51,1.88,2.17,3.22,4.12,3.32l18.43.91c4.35.22,5.89,5.88,2.24,8.26l-15.44,10.09c-1.63,1.07-2.39,3.06-1.88,4.94l4.83,17.81c1.14,4.21-3.77,7.41-7.16,4.68l-14.37-11.57c-1.52-1.22-3.65-1.33-5.28-.26l-15.44,10.09c-3.65,2.38-8.22-1.29-6.67-5.37l6.56-17.24c.69-1.82.13-3.88-1.38-5.1l-14.37-11.57c-3.39-2.73-1.31-8.21,3.04-8l18.43.91c1.95.1,3.73-1.07,4.43-2.89l6.56-17.24c1.55-4.07,7.41-3.78,8.55.42Z"/>
  <g id="Heart-10" data-name="Heart">
    <path class="cls-7" d="M136.37,762.8h0l-.11-.54c-1.53-7.4-9.11-12.52-16.8-10.92s-9.71,5.79-10.96,10.86h0c-3.16-4.15-8.74-6.77-14.37-5.6-5.63,1.17-12.61,9.31-11.07,16.7,1.53,7.4.08.37.11.54h0s1.04,8.96,12.8,16.51c3.59,2.37,7.4,4.59,12.41,7.29,4.84,2.61,10.88,1.36,14.28-2.96s6.13-8.02,8.48-11.62c7.79-11.6,5.18-20.23,5.18-20.23h.05Z"/>
  </g>
  <circle class="cls-5" cx="476.89" cy="483.05" r="125.65"/>
  <g id="Heart-11" data-name="Heart">
    <path class="cls-2" d="M557.25,463.37h0l-.04-1.48c-.53-20.31-18.14-37.49-39.26-36.94-21.12.55-28.46,10.7-34.19,23.51h0c-6.38-12.49-19.9-22.1-35.37-21.69-15.47.4-37.81,18.62-37.28,38.94.53,20.31.03,1.01.04,1.48h0s-1.52,24.2,26,49.8c8.38,7.99,17.41,15.7,29.36,25.22,11.58,9.22,28.14,8.79,39.22-1.02,11.44-10.13,20.06-18.3,28.01-26.72,26.15-27,23.37-51.09,23.37-51.09h.13Z"/>
  </g>
  <g id="Heart-12" data-name="Heart">
    <path class="cls-7" d="M555.81,465.86h0l-.04-1.48c-.53-20.31-18.14-37.49-39.26-36.94-21.12.55-28.46,10.7-34.19,23.51h0c-6.38-12.49-19.9-22.1-35.37-21.69-15.47.4-37.81,18.62-37.28,38.94.53,20.31.03,1.01.04,1.48h0s-1.52,24.2,26,49.8c8.38,7.99,17.41,15.7,29.36,25.22,11.58,9.22,28.14,8.79,39.22-1.02,11.44-10.13,20.06-18.3,28.01-26.72,26.15-27,23.37-51.09,23.37-51.09h.13Z"/>
  </g>
  <circle class="cls-4" cx="530.05" cy="445.84" r="8.13"/>
  <path class="cls-8" d="M409.89,561.55c0-6.24-5.06-11.3-11.3-11.3,6.24,0,11.3-5.06,11.3-11.3,0,6.24,5.06,11.3,11.3,11.3-6.24,0-11.3,5.06-11.3,11.3Z"/>
  <path class="cls-8" d="M419.25,425.87c0-6.24-5.06-11.3-11.3-11.3,6.24,0,11.3-5.06,11.3-11.3,0,6.24,5.06,11.3,11.3,11.3-6.24,0-11.3,5.06-11.3,11.3Z"/>
  <path class="cls-8" d="M532.83,385.4c0-7.57-6.14-13.71-13.71-13.71,7.57,0,13.71-6.14,13.71-13.71,0,7.57,6.14,13.71,13.71,13.71-7.57,0-13.71,6.14-13.71,13.71Z"/>
  <path class="cls-8" d="M566.86,517.93c0-6.99-5.66-12.65-12.65-12.65,6.99,0,12.65-5.66,12.65-12.65,0,6.99,5.66,12.65,12.65,12.65-6.99,0-12.65,5.66-12.65,12.65Z"/>
  <g id="Heart-13" data-name="Heart">
    <path class="cls-2" d="M650.13,173.38h0l.05-.47c.74-6.51-4.11-12.78-10.87-13.55-6.77-.77-9.56,2.14-11.97,5.97h0c-1.48-4.27-5.36-7.95-10.31-8.51-4.96-.57-12.9,4.24-13.65,10.75-.74,6.51-.04.32-.05.47h0s-1.57,7.66,6.06,17.06c2.31,2.93,4.85,5.79,8.24,9.37,3.28,3.46,8.59,4.07,12.56,1.44s7.22-4.94,10.14-7.27c9.56-7.44,9.75-15.26,9.75-15.26h.04Z"/>
  </g>
  <g id="Heart-14" data-name="Heart">
    <path class="cls-7" d="M651.33,172.14h0l.05-.47c.74-6.51-4.11-12.78-10.87-13.55s-9.56,2.14-11.97,5.97h0c-1.48-4.27-5.36-7.95-10.31-8.51s-12.9,4.24-13.65,10.75c-.74,6.51-.04.32-.05.47h0s-1.57,7.66,6.06,17.06c2.31,2.93,4.85,5.79,8.24,9.37,3.28,3.46,8.59,4.07,12.56,1.44,4.11-2.72,7.22-4.94,10.14-7.27,9.56-7.44,9.75-15.26,9.75-15.26h.04Z"/>
  </g>
</svg>