<?xml version="1.0" encoding="UTF-8"?>
<svg id="Layer_14" xmlns="http://www.w3.org/2000/svg" xmlns:xlink="http://www.w3.org/1999/xlink" viewBox="0 0 1301.59 629.22">
  <defs>
    <style>
      .cls-1 {
        clip-path: url(#clippath-6);
      }

      .cls-2 {
        fill: #010101;
      }

      .cls-3 {
        fill: #77421b;
      }

      .cls-4 {
        clip-path: url(#clippath-4);
      }

      .cls-5 {
        fill: #663210;
      }

      .cls-6 {
        fill: #1a4e59;
      }

      .cls-7 {
        fill: #95402f;
      }

      .cls-8 {
        fill: #0d0e60;
      }

      .cls-9 {
        fill: #7477e2;
      }

      .cls-10 {
        opacity: .39;
      }

      .cls-10, .cls-11, .cls-12 {
        fill: #5f3a1c;
      }

      .cls-13 {
        fill: #7c3529;
      }

      .cls-14 {
        fill: #968243;
      }

      .cls-15 {
        fill: #fff;
      }

      .cls-16 {
        fill: #21120d;
      }

      .cls-17 {
        fill: none;
      }

      .cls-18 {
        fill: #040545;
      }

      .cls-19 {
        fill: #793e02;
      }

      .cls-20 {
        fill: #fdea73;
      }

      .cls-21 {
        clip-path: url(#clippath-1);
      }

      .cls-22 {
        fill: #7c4927;
      }

      .cls-23 {
        fill: #e8614f;
      }

      .cls-24 {
        fill: #2d1500;
      }

      .cls-25 {
        clip-path: url(#clippath-5);
      }

      .cls-26 {
        fill: #543834;
      }

      .cls-27 {
        fill: #dbdbdb;
      }

      .cls-28 {
        fill: #d3d3d3;
      }

      .cls-29 {
        clip-path: url(#clippath-3);
      }

      .cls-30 {
        fill: #29687a;
      }

      .cls-31 {
        fill: #efc092;
      }

      .cls-32 {
        fill: #ffbc50;
      }

      .cls-33 {
        fill: #874e27;
      }

      .cls-34 {
        fill: #ffb031;
      }

      .cls-35 {
        fill: #4b2a21;
      }

      .cls-11 {
        opacity: .14;
      }

      .cls-36 {
        fill: #ff8c73;
      }

      .cls-37 {
        fill: #e5b07f;
      }

      .cls-38 {
        clip-path: url(#clippath-2);
      }

      .cls-39 {
        fill: #6b3300;
      }

      .cls-40 {
        fill: #fa7c62;
      }

      .cls-41 {
        fill: #182322;
      }

      .cls-42 {
        fill: #22120e;
      }

      .cls-43 {
        fill: #e1af7d;
      }

      .cls-44 {
        fill: #252683;
      }

      .cls-45 {
        fill: #f37722;
      }

      .cls-46 {
        fill: #7b481b;
      }

      .cls-47 {
        fill: #ffb83b;
      }

      .cls-48 {
        clip-path: url(#clippath);
      }

      .cls-49 {
        fill: #f2d0b8;
      }
    </style>
    <clipPath id="clippath">
      <circle class="cls-17" cx="1032.64" cy="111.4" r="45.31"/>
    </clipPath>
    <clipPath id="clippath-1">
      <circle class="cls-17" cx="252.11" cy="326.8" r="55.19"/>
    </clipPath>
    <clipPath id="clippath-2">
      <circle class="cls-45" cx="1147.88" cy="262.12" r="31.58"/>
    </clipPath>
    <clipPath id="clippath-3">
      <circle class="cls-45" cx="39.48" cy="217.83" r="23.7"/>
    </clipPath>
    <clipPath id="clippath-4">
      <circle class="cls-17" cx="238.84" cy="104.91" r="98.14"/>
    </clipPath>
    <clipPath id="clippath-5">
      <circle class="cls-17" cx="1157.99" cy="483.45" r="119.14"/>
    </clipPath>
    <clipPath id="clippath-6">
      <circle class="cls-15" cx="158.28" cy="471.95" r="125.03"/>
    </clipPath>
  </defs>
  <path class="cls-15" d="M853.86,257.65c-8.42-9.22-20.4-14.08-32.87-13.33l-24.63,1.48-1.14-19c6.13-2.28,10.32-8.36,9.91-15.22h0c-.51-8.42-7.74-14.83-16.16-14.33l-240.57,14.44c-8.42.51-14.83,7.74-14.33,16.16h0c.41,6.87,5.3,12.4,11.66,13.93l1.59,21.94-26.74,1.61c-12.46.75-24.22,4.07-31.49,14.23-7.21,10.1-9.46,22.73-6.15,34.66,11.64,42.01,37.42,64.86,72.93,64.86,1.69,0,3.41-.05,5.14-.16.17-.01.33-.04.5-.06,17.6,40.54,55.95,69.52,100.92,74.45l3.95,65.79c1.51,25.17-13.86,48.29-37.66,56.63h0c-6.59,2.31-10.84,8.71-10.42,15.68l.44,5.49-3.14.19c-5.35.32-9.69,2.45-9.37,7.81.32,5.35,4.92,9.43,10.27,9.11l152.99-9.18c5.35-.32,9.43-4.92,9.11-10.27-.32-5.35-4.92-9.43-10.27-9.11l-3.14.19-.19-3.1c-.42-6.93-5.36-12.76-12.13-14.3l-.43-.1c-24.46-5.56-42.32-26.6-43.82-51.65l-3.95-65.72c44.06-10.27,78.66-43.63,91.29-85.99,37.23-2.93,61.41-28.94,68.15-73.45,1.85-12.24-1.89-24.51-10.26-33.67ZM501.75,309c-1.72-6.22-.55-12.82,3.23-18.11,3.82-5.35,9.77-8.64,16.33-9.04l26.74-1.61,3.38,56.32c.47,7.89,1.68,15.57,3.53,22.97-26.14-.39-44.03-17.38-53.21-50.54ZM844.83,288.4c-5.01,33.08-20.01,51.94-44.64,56.21.93-7.5,1.2-15.2.73-23.02l-3.38-56.32,24.63-1.48c6.55-.4,12.86,2.16,17.29,7.02,4.38,4.79,6.34,11.21,5.37,17.59Z"/>
  <path class="cls-34" d="M704.86,517.81l-5.26-87.54-42.25,2.54,5.26,87.61c1.51,25.17-13.86,48.29-37.66,56.63h0c-6.59,2.31-10.84,8.71-10.42,15.68l1.03,17.23,146.71-8.81-1.04-17.3c-.42-6.93-5.36-12.76-12.13-14.3l-.43-.1c-24.46-5.56-42.32-26.6-43.82-51.65Z"/>
  <rect class="cls-45" x="602.31" y="591.35" width="172.69" height="19.42" rx="9.71" ry="9.71" transform="translate(-34.78 42.35) rotate(-3.44)"/>
  <path class="cls-34" d="M552.11,380.4c-35.5,0-61.29-22.85-72.93-64.86-3.3-11.93-1.06-24.56,6.15-34.66,7.26-10.16,18.57-16.42,31.04-17.17l31.8-1.91c5.39-.33,10,3.78,10.32,9.15.32,5.38-3.78,10-9.15,10.32l-31.8,1.91c-6.56.39-12.51,3.69-16.33,9.04-3.77,5.28-4.95,11.88-3.23,18.11,9.75,35.2,29.32,52.17,58.1,50.44,5.4-.33,10,3.78,10.32,9.15.32,5.38-3.78,10-9.15,10.32-1.74.1-3.45.16-5.14.16Z"/>
  <path class="cls-34" d="M789.99,366.25c-5.12,0-9.42-3.99-9.73-9.17-.32-5.38,3.78-10,9.15-10.32,28.8-1.73,46.18-20.92,51.65-57.02.97-6.39-.99-12.8-5.37-17.59-4.43-4.85-10.72-7.4-17.29-7.02l-31.8,1.91c-5.41.31-10-3.78-10.32-9.15-.32-5.38,3.78-10,9.15-10.32l31.8-1.91c12.47-.74,24.44,4.11,32.87,13.33,8.37,9.16,12.11,21.44,10.26,33.67-6.84,45.16-31.61,71.29-69.77,73.58-.2.01-.4.02-.59.02Z"/>
  <path class="cls-47" d="M547.93,221.8h249.93v108.6c0,68.97-56,124.97-124.97,124.97h0c-68.97,0-124.97-56-124.97-124.97v-108.6h0Z" transform="translate(-19.08 40.93) rotate(-3.44)"/>
  <rect class="cls-45" x="530.02" y="204.19" width="271.54" height="32.12" rx="15.66" ry="15.66" transform="translate(-12 40.29) rotate(-3.44)"/>
  <circle class="cls-45" cx="671.81" cy="320.57" r="41.27"/>
  <path class="cls-20" d="M674.67,296.94l4.97,12.65c.5,1.28,1.78,2.09,3.15,2.01l13.57-.81c3.07-.18,4.59,3.67,2.21,5.63l-10.5,8.63c-1.06.87-1.44,2.34-.94,3.62l4.97,12.65c1.13,2.87-2.08,5.5-4.67,3.84l-11.45-7.31c-1.16-.74-2.67-.65-3.73.22l-10.5,8.63c-2.38,1.96-5.87-.27-5.1-3.26l3.42-13.15c.35-1.33-.21-2.74-1.37-3.48l-11.45-7.31c-2.6-1.66-1.55-5.67,1.52-5.85l13.57-.81c1.38-.08,2.54-1.04,2.89-2.37l3.42-13.15c.77-2.98,4.91-3.23,6.04-.36Z"/>
  <path class="cls-45" d="M451.99,182.84l5.84,7.54c.59.76,1.61,1.06,2.52.73l8.97-3.22c2.03-.73,3.81,1.57,2.6,3.36l-5.37,7.88c-.54.8-.51,1.86.08,2.62l5.84,7.54c1.32,1.71-.31,4.11-2.39,3.51l-9.16-2.67c-.93-.27-1.92.09-2.47.89l-5.37,7.88c-1.22,1.79-4.01.97-4.07-1.19l-.29-9.53c-.03-.97-.68-1.8-1.61-2.07l-9.16-2.67c-2.07-.6-2.16-3.51-.13-4.24l8.97-3.22c.91-.33,1.51-1.2,1.48-2.17l-.29-9.53c-.07-2.16,2.67-3.14,3.99-1.43Z"/>
  <path class="cls-45" d="M870.51,434.66l1.65,9.39c.17.95.93,1.69,1.89,1.82l9.44,1.33c2.14.3,2.64,3.17.74,4.18l-8.42,4.47c-.85.45-1.32,1.41-1.15,2.36l1.65,9.39c.37,2.13-2.19,3.49-3.75,1.99l-6.86-6.63c-.7-.67-1.74-.82-2.6-.37l-8.42,4.47c-1.91,1.01-4-1.01-3.05-2.95l4.18-8.57c.42-.87.24-1.91-.45-2.58l-6.86-6.63c-1.55-1.5-.28-4.12,1.86-3.81l9.44,1.33c.96.13,1.89-.36,2.32-1.23l4.18-8.57c.95-1.94,3.83-1.54,4.2.59Z"/>
  <path class="cls-45" d="M559.95,522.12l5.53,6.57c.56.67,1.49.89,2.29.57l7.96-3.23c1.8-.73,3.49,1.27,2.46,2.92l-4.54,7.29c-.46.74-.39,1.69.17,2.36l5.53,6.57c1.25,1.49-.13,3.71-2.02,3.25l-8.34-2.06c-.85-.21-1.73.15-2.19.89l-4.54,7.29c-1.03,1.65-3.57,1.02-3.71-.92l-.62-8.57c-.06-.87-.68-1.6-1.52-1.81l-8.34-2.06c-1.89-.47-2.08-3.08-.27-3.81l7.96-3.23c.81-.33,1.31-1.14,1.25-2.01l-.62-8.57c-.14-1.94,2.29-2.93,3.54-1.44Z"/>
  <g>
    <g>
      <line class="cls-20" x1="433.92" y1="459.28" x2="392.92" y2="472.81"/>
      <path class="cls-20" d="M392.92,477.76c-2.08,0-4.01-1.32-4.7-3.4-.86-2.6.55-5.4,3.15-6.25l41-13.53c2.59-.86,5.4.55,6.25,3.15.86,2.6-.55,5.4-3.15,6.25l-41,13.53c-.52.17-1.04.25-1.55.25Z"/>
    </g>
    <path class="cls-20" d="M430.14,347.47h-27.3c-2.73,0-4.95-2.22-4.95-4.95s2.22-4.95,4.95-4.95h27.3c2.73,0,4.95,2.22,4.95,4.95s-2.22,4.95-4.95,4.95Z"/>
    <g>
      <line class="cls-20" x1="654.73" y1="158.88" x2="648.52" y2="103.05"/>
      <path class="cls-20" d="M654.72,163.83c-2.49,0-4.63-1.87-4.92-4.4l-6.2-55.84c-.3-2.72,1.66-5.17,4.37-5.47,2.73-.3,5.17,1.66,5.47,4.37l6.2,55.84c.3,2.72-1.66,5.17-4.37,5.47-.19.02-.37.03-.55.03Z"/>
    </g>
    <g>
      <line class="cls-20" x1="902.89" y1="229.61" x2="923.98" y2="211"/>
      <path class="cls-20" d="M902.89,234.56c-1.37,0-2.74-.57-3.71-1.68-1.81-2.05-1.61-5.18.44-6.99l21.09-18.61c2.05-1.81,5.18-1.61,6.99.44,1.81,2.05,1.61,5.18-.44,6.99l-21.09,18.61c-.94.83-2.11,1.24-3.27,1.24Z"/>
    </g>
    <g>
      <line class="cls-20" x1="843.33" y1="171.29" x2="852.01" y2="153.92"/>
      <path class="cls-20" d="M843.32,176.24c-.74,0-1.5-.17-2.21-.52-2.45-1.22-3.44-4.2-2.21-6.64l8.69-17.37c1.22-2.44,4.19-3.44,6.64-2.21,2.45,1.22,3.44,4.2,2.21,6.64l-8.69,17.37c-.87,1.73-2.62,2.74-4.43,2.74Z"/>
    </g>
    <g>
      <line class="cls-20" x1="856.98" y1="529.88" x2="879.31" y2="542.29"/>
      <path class="cls-20" d="M879.31,547.24c-.81,0-1.64-.2-2.4-.62l-22.33-12.41c-2.39-1.33-3.25-4.34-1.92-6.73,1.33-2.39,4.35-3.25,6.73-1.92l22.33,12.41c2.39,1.33,3.25,4.34,1.92,6.73-.9,1.63-2.59,2.55-4.33,2.55Z"/>
    </g>
  </g>
  <g>
    <circle class="cls-47" cx="1032.64" cy="111.4" r="45.31"/>
    <g class="cls-48">
      <path class="cls-45" d="M1121.9,129.55c-.45.04-.86.27-1.12.64l-2.65,3.71.86-3.79c.07-.29-.13-.58-.43-.62-1.2-.17-2.37.52-2.78,1.67l-1.45,3.97.72-3.84c.06-.3-.15-.58-.45-.61-1.21-.13-2.34.61-2.72,1.77l-2.71,8.37s-4.93,3.03-8.15,5.08l2-4.8c.43-1.03-.42-2.13-1.52-1.98-1.24.17-2.36.83-3.1,1.83-1.52,2.05-3.98,5.56-4.39,7.32-.13.57-.23,1.05-.3,1.47-.77,1.61-.5,3.9-.4,4.57-.19,1.07-.48,2.68-.82,4.67-.34-.13-.54-.22-.54-.22l-.53,4.02c-.1-.03-.2-.06-.3-.1l-.53,4.5c-2.66-5.9-5.41-11.93-7.29-16.05-1.51-3.31-4.44-5.74-7.96-6.63l-8.28-2.08c-3.16-1.34-5.95-2.29-16.55-9.8,0,0,0-.01,0-.02,0,0,0,0,0-.01,0-.03,0-.06,0-.09-1.23-2.49-2.16-4.23-2.16-4.23-.1.13-.2.26-.3.39l-.05-5.09c.1-.12.19-.25.26-.36,1.07-1.6,1.68-4.36,2.08-7.49,2.84-.77,3.49-1.37,4.94-7.51,1-4.22.27-5.89-.95-5.73.72-3.93,4.41-24.25-4.75-25.44-9.56-1.24-9.46-3.07-15.7-3.19-6.25-.12-17.59,1.8-18.03,9.96-.36,6.54-.51,15-.55,18.1-1.21-1.03-2.24.35-1.49,5.39.92,6.13,1.41,6.8,3.55,7.65.11,1.36.22,2.05.36,3.05.34,2.31.7,3.86,2.58,6.01.06.07.12.14.19.22l-.24,3.3s-.03-.05-.05-.07c0,0-.82,1.35-1.98,3.37-14.29,6.94-17.77,6.96-22.3,8.3-4.75,1.4-10.13,2.93-10.94,10.79-.81,7.86-12.94,66.64-12.94,66.64l55.7-.09h11.69v.19s40.33-.38,40.33-.38c0,0-.87-13.28-1.78-27.68l2.22,4.9.18-.08,5.96,13.25c.43,2.07,1.62,3.94,3.39,5.2l1.74,1.24c3.17,2.25,7.45,2.06,10.41-.45l1.91-1.62c2.05-1.74,3.15-4.35,2.97-7.03l-2.86-40.76s-.02,0-.06,0l.06-3.44s-.09.04-.14.06c.02-2.38.06-4.49.13-6.13,2.32-1.46,11.42-6.88,13.63-8.44.33-.24.6-.56.76-.93l5.53-13.06c.34-.75-1.15-1.83-1.97-1.75ZM1051.22,105.87s0,.05,0,.08c0,0,0,0,0,.01,0-.03,0-.06,0-.09Z"/>
    </g>
  </g>
  <g>
    <circle class="cls-47" cx="252.11" cy="326.8" r="55.19"/>
    <g class="cls-21">
      <path class="cls-45" d="M297.29,386.13c0-19.53-18.72-20.81-28.27-25.27l-3.59-1.68h0l-1.69-.79c-.09.11-.19.2-.28.3v-12.64c.5-.79,1.01-1.59,1.57-2.44.8-1.2,1.43-2.28,1.98-3.3,3.61,0,4.01-3.01,4.41-4.71.44-1.88,2.34-4.85,2.83-7.62.38-2.16-1.55-2.82-3.99-1.46.19-.86.4-1.96.59-3.24.33-.22.56-.57.56-1,0-.32-.13-.6-.33-.82,0,0,0,0,0-.01.66-.02,1.19-.55,1.19-1.21,0-.4-.2-.73-.5-.96.61-.08,1.09-.59,1.09-1.22,0-.41-.21-.76-.51-.98.44-.17.75-.59.75-1.09,0-.29-.11-.54-.28-.74.25-.22.42-.52.42-.88,0-.24-.09-.46-.22-.65.22-.21.36-.51.36-.84,0-.43-.24-.79-.59-.99.17-.2.28-.45.28-.73,0-.49-.31-.91-.74-1.09.22-.23.36-.54.36-.88,0-.59-.41-1.07-.95-1.21.23-.23.37-.54.37-.89,0-.71-.57-1.28-1.28-1.28-.08,0-.14.03-.22.04.17-.2.29-.45.29-.73,0-.56-.41-1-.94-1.1.04-.12.08-.25.08-.38,0-.63-.51-1.14-1.14-1.14-.03,0-.05.01-.07.01.08-.17.14-.36.14-.57,0-.72-.59-1.31-1.31-1.31-.12,0-.22.04-.33.07.05-.14.09-.29.09-.45,0-.72-.59-1.31-1.31-1.31-.02,0-.04.01-.06.01.02-.1.06-.19.06-.29,0-.72-.59-1.31-1.31-1.31-.03,0-.05.01-.07.01-.1-.63-.62-1.12-1.27-1.12-.09-.72-.68-1.28-1.42-1.28-.18,0-.35.04-.5.1-.19-.58-.72-1-1.36-1-.13,0-.25.04-.37.07-.19-.58-.72-1.01-1.36-1.01-.25,0-.48.08-.68.19-.3-.43-.78-.74-1.35-.74-.23,0-.46.05-.66.13-.29-.25-.66-.41-1.07-.41-.45,0-.85.18-1.15.47-.3-.31-.73-.5-1.2-.5-.41,0-.76.16-1.06.4-.3-.44-.79-.75-1.36-.75s-1.06.31-1.36.75c-.31-.39-.76-.65-1.29-.65-.67,0-1.24.4-1.51.96-.25-.42-.69-.72-1.22-.72-.45,0-.83.22-1.1.54-.24-.17-.52-.3-.84-.3-.49,0-.91.26-1.17.64-.24-.17-.52-.3-.83-.3-.57,0-1.05.34-1.29.82-.15-.05-.31-.1-.47-.1-.59,0-1.1.36-1.32.87-.08-.01-.15-.05-.23-.05-.56,0-1.04.33-1.27.8-.55.08-.98.45-1.15.97-.75.02-1.35.62-1.39,1.37-.51.19-.87.65-.92,1.21,0,0,0,0,0,0-.78,0-1.4.62-1.43,1.38,0,0-.01,0-.02,0-.8,0-1.44.65-1.44,1.44,0,.26.09.49.21.7,0,0,0,0,0,0-.8,0-1.44.65-1.44,1.44,0,.38.16.73.4.98-.52.22-.88.73-.88,1.33,0,.36.14.67.36.92-.76.04-1.36.66-1.36,1.42,0,.42.18.79.47,1.05-.46.17-.79.61-.79,1.13,0,.38.19.71.47.93-.4.2-.67.6-.67,1.07,0,.22.07.41.17.59-.31.22-.52.56-.52.97,0,.44.25.81.61,1.03-.09.17-.16.36-.16.56,0,.44.24.8.59,1.01-.12.19-.21.4-.21.64,0,.36.17.68.42.9-.1.18-.17.37-.17.59,0,.55.37.99.86,1.14-.05.13-.08.27-.08.42,0,.4.21.74.51.96-.15.19-.25.42-.25.68,0,.52.36.94.84,1.07.25,1.1.51,2.12.78,3.05-1.88-.84-3.27-.13-2.96,1.8.45,2.77,2.18,5.74,2.57,7.62.36,1.72.74,4.8,4.17,4.71.55,1.02,1.18,2.11,1.98,3.3.32.48.62.95.92,1.41.18.32.37.63.55.94v12.45l-8.46,4.03c-10.23,4.87-24.61,6.55-24.61,27.43,0,28.29.48,77.52.61,77.93l95.56.57-2.83-82.25ZM271.18,312.08s.08.06.13.09c-.04.05-.07.1-.1.15,0-.08-.02-.16-.03-.24ZM270.95,310.38s.05,0,.08.02c-.02.03-.04.06-.06.09,0-.04-.01-.07-.02-.11Z"/>
    </g>
  </g>
  <g>
    <circle class="cls-45" cx="1147.88" cy="262.12" r="31.58"/>
    <g>
      <circle class="cls-45" cx="1147.88" cy="262.12" r="31.58"/>
      <g class="cls-38">
        <path class="cls-45" d="M1173.73,296.07c0-11.18-10.71-11.91-16.18-14.46l-2.05-.96h0l-.96-.45c-.05.06-.11.11-.16.17v-7.23c.28-.45.58-.91.9-1.4.46-.68.82-1.31,1.13-1.89,2.07,0,2.3-1.72,2.52-2.69.25-1.08,1.34-2.78,1.62-4.36.22-1.23-.89-1.61-2.28-.83.11-.49.23-1.12.34-1.85.19-.12.32-.33.32-.57,0-.18-.07-.34-.19-.47,0,0,0,0,0,0,.38,0,.68-.31.68-.69,0-.23-.12-.42-.29-.55.35-.05.62-.34.62-.7,0-.23-.12-.43-.29-.56.25-.1.43-.34.43-.62,0-.16-.07-.31-.16-.42.14-.12.24-.3.24-.5,0-.14-.05-.26-.13-.37.13-.12.2-.29.2-.48,0-.25-.14-.45-.34-.57.09-.12.16-.26.16-.42,0-.28-.18-.52-.42-.62.13-.13.21-.31.21-.5,0-.34-.23-.61-.55-.69.13-.13.21-.31.21-.51,0-.4-.33-.73-.73-.73-.04,0-.08.02-.12.02.1-.11.16-.26.16-.42,0-.32-.23-.57-.54-.63.03-.07.04-.14.04-.22,0-.36-.29-.65-.65-.65-.01,0-.03,0-.04,0,.05-.1.08-.21.08-.32,0-.41-.34-.75-.75-.75-.07,0-.13.02-.19.04.03-.08.05-.17.05-.26,0-.41-.34-.75-.75-.75-.01,0-.02,0-.03,0,.01-.05.03-.11.03-.16,0-.41-.34-.75-.75-.75-.02,0-.03,0-.04,0-.05-.36-.35-.64-.73-.64-.05-.41-.39-.73-.81-.73-.1,0-.2.02-.29.06-.11-.33-.41-.57-.78-.57-.07,0-.14.02-.21.04-.11-.33-.41-.58-.78-.58-.14,0-.27.05-.39.11-.17-.25-.45-.42-.77-.42-.13,0-.26.03-.38.08-.17-.14-.38-.23-.61-.23-.26,0-.49.1-.66.27-.17-.18-.42-.29-.68-.29-.23,0-.44.09-.6.23-.17-.25-.45-.43-.78-.43s-.61.18-.78.43c-.18-.22-.44-.37-.74-.37-.38,0-.71.23-.86.55-.14-.24-.4-.41-.7-.41-.26,0-.48.12-.63.31-.14-.1-.3-.17-.48-.17-.28,0-.52.15-.67.37-.14-.1-.3-.17-.48-.17-.33,0-.6.19-.74.47-.09-.03-.17-.05-.27-.05-.34,0-.63.21-.76.5-.04,0-.08-.03-.13-.03-.32,0-.59.19-.73.46-.31.05-.56.26-.66.55-.43.01-.77.35-.79.78-.29.11-.5.37-.53.69,0,0,0,0,0,0-.44,0-.8.35-.82.79,0,0,0,0-.01,0-.46,0-.82.37-.82.82,0,.15.05.28.12.4,0,0,0,0,0,0-.46,0-.82.37-.82.82,0,.22.09.42.23.56-.3.12-.5.42-.5.76,0,.2.08.38.2.53-.43.03-.78.38-.78.82,0,.24.1.45.27.6-.26.1-.45.35-.45.64,0,.22.11.41.27.53-.23.11-.39.34-.39.61,0,.12.04.23.1.34-.17.13-.3.32-.3.55,0,.25.14.47.35.59-.05.1-.09.2-.09.32,0,.25.14.46.34.58-.07.11-.12.23-.12.37,0,.21.09.39.24.51-.06.1-.1.21-.1.34,0,.31.21.57.49.65-.03.07-.05.15-.05.24,0,.23.12.42.29.55-.09.11-.14.24-.14.39,0,.3.21.54.48.61.14.63.29,1.21.45,1.74-1.08-.48-1.87-.07-1.69,1.03.25,1.59,1.25,3.29,1.47,4.36.21.99.42,2.75,2.39,2.69.31.58.68,1.21,1.13,1.89.18.28.36.54.52.81.11.18.21.36.31.54v7.12l-4.84,2.31c-5.85,2.79-14.09,3.75-14.09,15.7,0,16.19.28,44.36.35,44.59l54.69.33-1.62-47.07ZM1158.79,253.7s.05.03.07.05c-.02.03-.04.06-.06.09,0-.04,0-.09-.01-.13ZM1158.66,252.73s.03,0,.05,0c-.01.02-.02.04-.04.05,0-.02,0-.04-.01-.06Z"/>
      </g>
    </g>
  </g>
  <g>
    <circle class="cls-45" cx="39.48" cy="217.83" r="23.7"/>
    <g>
      <circle class="cls-45" cx="39.48" cy="217.83" r="23.7"/>
      <g class="cls-29">
        <path class="cls-45" d="M58.88,243.31c0-8.39-8.04-8.94-12.14-10.85l-1.54-.72h0l-.72-.34s-.08.09-.12.13v-5.43c.21-.34.43-.68.68-1.05.34-.51.62-.98.85-1.42,1.55,0,1.72-1.29,1.89-2.02.19-.81,1.01-2.08,1.22-3.27.16-.93-.67-1.21-1.71-.63.08-.37.17-.84.26-1.39.14-.09.24-.25.24-.43,0-.14-.05-.26-.14-.35,0,0,0,0,0,0,.28,0,.51-.24.51-.52,0-.17-.09-.32-.21-.41.26-.04.47-.25.47-.52,0-.18-.09-.32-.22-.42.19-.07.32-.25.32-.47,0-.12-.05-.23-.12-.32.11-.09.18-.23.18-.38,0-.1-.04-.2-.09-.28.09-.09.15-.22.15-.36,0-.18-.1-.34-.25-.43.07-.09.12-.19.12-.31,0-.21-.13-.39-.32-.47.09-.1.15-.23.15-.38,0-.25-.18-.46-.41-.52.1-.1.16-.23.16-.38,0-.3-.25-.55-.55-.55-.03,0-.06.01-.09.02.07-.09.12-.19.12-.32,0-.24-.18-.43-.4-.47.02-.05.03-.11.03-.17,0-.27-.22-.49-.49-.49-.01,0-.02,0-.03,0,.04-.07.06-.16.06-.24,0-.31-.25-.56-.56-.56-.05,0-.1.02-.14.03.02-.06.04-.12.04-.19,0-.31-.25-.56-.56-.56,0,0-.02,0-.03,0,0-.04.03-.08.03-.12,0-.31-.25-.56-.56-.56-.01,0-.02,0-.03,0-.04-.27-.26-.48-.55-.48-.04-.31-.29-.55-.61-.55-.08,0-.15.02-.22.04-.08-.25-.31-.43-.58-.43-.06,0-.11.02-.16.03-.08-.25-.31-.43-.58-.43-.11,0-.2.03-.29.08-.13-.19-.34-.32-.58-.32-.1,0-.2.02-.28.06-.13-.11-.28-.18-.46-.18-.19,0-.37.08-.49.2-.13-.13-.31-.22-.51-.22-.17,0-.33.07-.45.17-.13-.19-.34-.32-.58-.32s-.46.13-.59.32c-.13-.17-.33-.28-.56-.28-.29,0-.53.17-.65.41-.11-.18-.3-.31-.52-.31-.19,0-.36.09-.47.23-.1-.07-.22-.13-.36-.13-.21,0-.39.11-.5.28-.1-.07-.22-.13-.36-.13-.25,0-.45.15-.55.35-.06-.02-.13-.04-.2-.04-.26,0-.47.15-.57.38-.03,0-.06-.02-.1-.02-.24,0-.45.14-.55.34-.24.03-.42.19-.49.42-.32,0-.58.27-.6.59-.22.08-.37.28-.39.52,0,0,0,0,0,0-.33,0-.6.26-.61.59,0,0,0,0,0,0-.34,0-.62.28-.62.62,0,.11.04.21.09.3,0,0,0,0,0,0-.34,0-.62.28-.62.62,0,.16.07.31.17.42-.22.09-.38.31-.38.57,0,.15.06.29.15.4-.32.02-.58.28-.58.61,0,.18.08.34.2.45-.2.07-.34.26-.34.48,0,.16.08.3.2.4-.17.09-.29.26-.29.46,0,.09.03.18.07.25-.13.09-.22.24-.22.42,0,.19.11.35.26.44-.04.07-.07.15-.07.24,0,.19.1.34.25.44-.05.08-.09.17-.09.28,0,.15.07.29.18.39-.04.08-.07.16-.07.25,0,.23.16.42.37.49-.02.06-.04.12-.04.18,0,.17.09.32.22.41-.06.08-.11.18-.11.29,0,.22.15.4.36.46.11.47.22.91.34,1.31-.81-.36-1.4-.06-1.27.77.19,1.19.94,2.47,1.11,3.27.16.74.32,2.06,1.79,2.02.24.44.51.91.85,1.42.14.21.27.41.39.61.08.14.16.27.24.4v5.34l-3.63,1.73c-4.39,2.09-10.57,2.81-10.57,11.78,0,12.15.21,33.29.26,33.47l41.04.25-1.22-35.32ZM47.67,211.5s.04.03.05.04c-.02.02-.03.04-.04.06,0-.03,0-.07-.01-.1ZM47.56,210.78s.02,0,.03,0c-.01.01-.02.03-.03.04,0-.02,0-.03,0-.05Z"/>
      </g>
    </g>
  </g>
  <circle class="cls-15" cx="238.84" cy="104.91" r="98.14"/>
  <g class="cls-4">
    <g>
      <rect class="cls-33" x="215.23" y="133.4" width="51.14" height="49.53"/>
      <path class="cls-33" d="M240.83,56.44h0s-.02,0-.03,0-.02,0-.03,0h0c-42.12.05-35.87,42.02-35.87,55.56s12.67,32.82,17.71,39.24c5.03,6.41,6.07,9.02,18.16,9.03h0s.02,0,.03,0,.02,0,.03,0h0c12.09-.01,13.14-2.62,18.16-9.03,5.04-6.42,17.71-25.7,17.71-39.24s6.24-55.51-35.87-55.56Z"/>
      <g>
        <path class="cls-33" d="M206.32,105.89c-5.84-6.42-11.68-5.74-10.82-.38.86,5.36,4.21,11.11,4.98,14.75s1.53,10.44,10.05,8.9"/>
        <path class="cls-3" d="M204.84,117.71c-4.29-1.76-3.19,3.96,1.76,6.6"/>
        <path class="cls-3" d="M204.29,109.9c-6.05-7.81-6.93-6.38-6.93-3.63,0,0,1.43-1.98,6.6,4.4"/>
      </g>
      <g>
        <path class="cls-33" d="M275.33,105.89c6.43-6.42,12.86-5.74,11.91-.38-.95,5.36-4.64,11.11-5.48,14.75-.84,3.64-1.69,10.44-11.07,8.9"/>
        <path class="cls-3" d="M276.96,117.71c4.72-1.76,3.51,3.96-1.94,6.6"/>
        <path class="cls-3" d="M277.56,109.9c6.66-7.81,7.63-6.38,7.63-3.63,0,0-1.57-1.98-7.26,4.4"/>
      </g>
      <path class="cls-2" d="M203.23,108.05c-5.58-14.49-19.19-68.1,37.76-68.1s37.6,66.59,37.6,66.59l-2.88-.13s-.61-9.96-3.98-18.42c-3.37-8.46-3.96-17.88-3.96-17.88,0,0-6.08,1.91-25.9,1.91-22.84,0-27.67-1.91-27.67-1.91,0,0-.44,11.03-3.75,17.88s-4.2,20-4.2,20l-3.03.06Z"/>
      <g>
        <circle class="cls-2" cx="200.26" cy="94.06" r="2.17"/>
        <circle class="cls-2" cx="199.93" cy="90.88" r="2.34"/>
        <circle class="cls-2" cx="198.42" cy="87.87" r="2.34"/>
        <circle class="cls-2" cx="197.96" cy="85" r="2.34"/>
        <circle class="cls-2" cx="197.22" cy="81.8" r="2.34"/>
        <circle class="cls-2" cx="196.35" cy="78.72" r="2.34"/>
        <circle class="cls-2" cx="197.02" cy="75.72" r="2.34"/>
        <circle class="cls-2" cx="197.42" cy="71.85" r="2.34"/>
        <circle class="cls-2" cx="198.49" cy="67.64" r="2.79"/>
        <circle class="cls-2" cx="200.43" cy="63.1" r="2.79"/>
        <circle class="cls-2" cx="201.36" cy="58.63" r="2.79"/>
        <circle class="cls-2" cx="203.77" cy="54.49" r="2.79"/>
        <circle class="cls-2" cx="206.57" cy="51.81" r="2.79"/>
        <circle class="cls-2" cx="209.31" cy="49.28" r="2.79"/>
        <circle class="cls-2" cx="211.11" cy="46.81" r="2.79"/>
        <circle class="cls-2" cx="213.65" cy="44.87" r="2.79"/>
        <circle class="cls-2" cx="215.72" cy="43.4" r="2.79"/>
        <circle class="cls-2" cx="218.72" cy="41.8" r="2.79"/>
        <circle class="cls-2" cx="222.13" cy="40.4" r="2.79"/>
        <circle class="cls-2" cx="226" cy="39.73" r="2.79"/>
        <circle class="cls-2" cx="229.74" cy="39.26" r="2.79"/>
        <circle class="cls-2" cx="235.01" cy="39.26" r="3.25"/>
        <circle class="cls-2" cx="240.16" cy="39.06" r="3.25"/>
        <circle class="cls-2" cx="244.83" cy="39.73" r="3.25"/>
        <circle class="cls-2" cx="249.37" cy="39.8" r="3.25"/>
        <circle class="cls-2" cx="252.71" cy="40.33" r="3.25"/>
        <circle class="cls-2" cx="256.65" cy="40.93" r="2.81"/>
        <circle class="cls-2" cx="259.99" cy="42.73" r="2.81"/>
        <circle class="cls-2" cx="263.59" cy="44.47" r="2.81"/>
        <circle class="cls-2" cx="266.33" cy="46.67" r="2.54"/>
        <circle class="cls-2" cx="268.94" cy="48.81" r="2.54"/>
        <circle class="cls-2" cx="271.47" cy="51.88" r="2.54"/>
        <circle class="cls-2" cx="274.48" cy="55.15" r="2.54"/>
        <circle class="cls-2" cx="276.88" cy="58.42" r="2.2"/>
        <circle class="cls-2" cx="278.55" cy="61.3" r="2.2"/>
        <circle class="cls-2" cx="280.62" cy="65.1" r="2.47"/>
        <circle class="cls-2" cx="281.76" cy="69.18" r="2.47"/>
        <circle class="cls-2" cx="282.69" cy="72.98" r="2.27"/>
        <circle class="cls-2" cx="283.29" cy="76.32" r="2.27"/>
        <circle class="cls-2" cx="283.02" cy="79.19" r="2.27"/>
        <circle class="cls-2" cx="282.76" cy="82.33" r="2.27"/>
        <circle class="cls-2" cx="282.16" cy="86.34" r="2.42"/>
        <circle class="cls-2" cx="281.09" cy="90.54" r="2.35"/>
        <circle class="cls-2" cx="279.42" cy="94.48" r="2.35"/>
      </g>
      <g>
        <path class="cls-13" d="M254.21,140.61h-26.17c3.27,4.42,4.24,6.9,13.08,6.9h0c8.84,0,9.81-2.48,13.08-6.9Z"/>
        <path class="cls-7" d="M243.33,144.55s-.4.29-2.39.29-2.43-.29-2.43-.29c-.4,0-.73-.33-.73-.73h0c0-.4.33-.73.73-.73h1.07c.37,0,.73.1,1.05.28l.25.14.43-.21c.29-.14.61-.21.93-.21h1.08c.4,0,.73.33.73.73h0c0,.4-.33.73-.73.73Z"/>
      </g>
      <path class="cls-35" d="M243.85,136.42c-2.25.46-3.68.46-5.93,0-2.25-.46-8.03,1.94-10.64,4.14.92.61,9.41.59,11.3.46,1.63-.11,1.28.43,2.3.43s.67-.57,2.3-.43c1.9.16,10.45.19,11.3-.46-2.61-2.2-8.39-4.6-10.64-4.14Z"/>
      <g>
        <path class="cls-3" d="M229.02,123.47c-.92,4.54,2.92,5.16,6.47,4.43,1.92-.31,2.46,1.15,5,1.15s3.62-1.39,5.35-1.08c1.73.31,7.35,1.93,6.97-4.23,0,0-3.27,3.5-6.35,3.77s-3.46.85-5.89.85-3.58-.89-5.08-.89c-4.12,0-6.47-4-6.47-4Z"/>
        <g>
          <path class="cls-5" d="M230.84,126.43c.11-1.6,3.54.23,4.7.89.14.08.11.29-.05.33-1.25.28-4.8.91-4.65-1.22Z"/>
          <path class="cls-5" d="M250.76,126.65c-.11-1.6-3.54.23-4.7.89-.14.08-.11.29.05.33,1.25.28,4.8.91,4.65-1.22Z"/>
        </g>
      </g>
      <path class="cls-15" d="M249.88,109.49c4.99-9.4,12.46-6.16,16.88-2.61,0,0-8.62,11.48-16.88,2.61Z"/>
      <path class="cls-15" d="M233.38,109.49c-4.99-9.4-12.46-6.16-16.88-2.61,0,0,8.62,11.48,16.88,2.61Z"/>
      <g>
        <ellipse class="cls-26" cx="225.76" cy="106.83" rx="4.92" ry="5.17"/>
        <ellipse class="cls-2" cx="225.85" cy="106.4" rx="3.03" ry="3.19"/>
        <ellipse class="cls-15" cx="225.41" cy="105.36" rx=".84" ry=".88"/>
      </g>
      <g>
        <ellipse class="cls-26" cx="257.51" cy="106.83" rx="4.92" ry="5.17"/>
        <ellipse class="cls-2" cx="257.41" cy="106.4" rx="3.03" ry="3.19"/>
        <ellipse class="cls-15" cx="256.72" cy="105.49" rx=".84" ry=".88"/>
      </g>
      <g>
        <path class="cls-24" d="M249.97,109.41l-1.99-1.36c2.46-3.61,5.35-5.67,8.6-6.13,3.54-.5,7.34.9,11.3,4.16l-1.54,1.86c-3.41-2.82-6.59-4.04-9.42-3.64-2.55.36-4.89,2.08-6.95,5.1Z"/>
        <path class="cls-24" d="M257.6,113.89l-.32-2.39c5.55-.74,6.81-2.51,8.23-5.32l2.15,1.09c-1.89,3.75-3.97,5.8-10.06,6.62Z"/>
        <path class="cls-33" d="M249.8,109.38l-2.13-1.13c3.39-6.37,7.53-8.2,10.41-8.62,3.84-.55,7.82,1.04,11.21,4.5l-1.72,1.69c-2.84-2.89-6.08-4.24-9.14-3.8-3.33.48-6.32,3.03-8.62,7.36Z"/>
        <path class="cls-33" d="M256.93,114.71c-2.83,0-5.8-.58-8.67-1.92l1.53-3.28c6.79,3.17,14.58,1.2,17.6-2.63l2.84,2.24c-2.57,3.26-7.65,5.6-13.3,5.6Z"/>
      </g>
      <g>
        <path class="cls-24" d="M233.3,109.41c-2.21-3.25-4.85-5.03-7.64-5.15-2.74-.12-5.52,1.38-7.84,4.21l-1.87-1.53c2.81-3.44,6.3-5.24,9.81-5.09,2.49.11,6.16,1.27,9.52,6.2l-1.99,1.36Z"/>
        <path class="cls-24" d="M225.66,113.89c-6.1-.82-8.17-2.87-10.06-6.62l2.15-1.09c1.42,2.81,2.68,4.57,8.23,5.32l-.32,2.39Z"/>
        <path class="cls-33" d="M233.46,109.38c-2.24-4.21-5.05-6.66-8.13-7.11-2.93-.42-6.16.99-9.1,3.99l-1.72-1.69c3.49-3.56,7.46-5.23,11.17-4.69,2.7.39,6.61,2.16,9.91,8.36l-2.13,1.13Z"/>
        <path class="cls-33" d="M226.34,114.71c-5.65,0-10.73-2.33-13.3-5.6l2.84-2.24c3.02,3.83,10.81,5.8,17.6,2.63l1.53,3.28c-2.87,1.34-5.85,1.92-8.67,1.92Z"/>
      </g>
      <path class="cls-2" d="M246.8,156.92l-2.19-1.02c-.54-.25-.89-.8-.89-1.39v-5.08c0-.47-.38-.85-.85-.85h-3.45c-.47,0-.85.38-.85.85v4.82c0,.72-.5,1.35-1.21,1.5l-2.19.48v2.12h11.79l-.16-1.43Z"/>
      <g>
        <path class="cls-2" d="M241.09,160.5h-.39c-12.79-.15-17.57-7.76-24.15-18.26-1.3-2.07-2.65-4.22-4.17-6.5-7.31-10.97-8.73-18.1-8.93-21.38-.21-3.55-.77-15.59-.77-15.71l3.79-.17c0,.12.56,12.13.77,15.66.14,2.33,1.23,8.89,8.3,19.5,1.55,2.32,2.91,4.49,4.22,6.59,6.41,10.22,10.29,16.41,21.13,16.48,10.84-.07,14.72-6.26,21.13-16.48,1.31-2.1,2.67-4.26,4.22-6.59,7.07-10.61,8.16-17.17,8.3-19.5.21-3.53.76-15.54.77-15.66l3.79.17c0,.12-.56,12.15-.77,15.71-.2,3.28-1.62,10.41-8.93,21.38-1.52,2.28-2.86,4.42-4.17,6.5-6.58,10.49-11.36,18.1-24.15,18.25h0Z"/>
        <path class="cls-2" d="M227.02,150.88h-3.79c0-1.48-.04-2.82-.09-4.13-.15-4.71-.28-8.43,2.27-11.06,2.45-2.53,6.95-3.56,15.54-3.56s13.48,1.06,16.03,3.66c2.68,2.73,2.61,6.68,2.53,11.68-.02,1.01-.04,2.05-.04,3.17h-3.79c0-1.15.02-2.21.04-3.23.08-4.43.13-7.35-1.44-8.95-1.72-1.75-5.83-2.53-13.33-2.53s-11.2.74-12.81,2.4c-1.43,1.47-1.34,4.19-1.2,8.3.04,1.27.09,2.71.09,4.25Z"/>
      </g>
      <path class="cls-2" d="M271.07,97.16l-4.94-3.71c-.31-.23-.68-.36-1.06-.36-2.9-.03-15.63-.09-17.48,1.05-2.09,1.3-3.43,4.27-1.3,4.31s15.14-3.26,18.23-2.43c2.49.67,5.42,1.16,6.46,1.32.11.02.16-.12.07-.18Z"/>
      <path class="cls-2" d="M211.14,97.16l4.94-3.71c.31-.23.68-.36,1.06-.36,2.9-.03,15.63-.09,17.48,1.05,2.09,1.3,3.43,4.27,1.3,4.31s-15.14-3.26-18.23-2.43c-2.49.67-5.42,1.16-6.46,1.32-.11.02-.16-.12-.07-.18Z"/>
      <g>
        <path class="cls-30" d="M331.8,217.98c0-37.78-36.21-40.24-54.69-48.89l-10.21-4.77c-5.94,7.21-15.31,11.87-25.86,11.87s-19.87-4.64-25.82-11.83l-16.37,7.8c-19.78,9.43-47.61,12.68-47.61,53.06,0,54.71.94,149.95,1.19,150.74l184.85,1.11-5.48-159.09Z"/>
        <path class="cls-6" d="M270.17,165.85l-3.26-1.53c-5.94,7.21-15.31,11.87-25.86,11.87s-19.87-4.64-25.82-11.83l-4.34,2.07c5.71,9.08,19.27,14.96,30.35,14.96,11.71,0,23.07-5.28,28.92-15.54Z"/>
      </g>
    </g>
  </g>
  <polyline class="cls-15" points="796.37 245.79 798.06 272.96 794.13 273.45 792.46 244.29"/>
  <path class="cls-15" d="M800.19,344.61c-1.15,8.97-3.9,21.63-6.26,26.54-1.28.1-3.24-.2-3.24-.2,0,0,4.52-12.76,5.7-26.02"/>
  <g>
    <circle class="cls-15" cx="1157.99" cy="483.45" r="119.14"/>
    <g class="cls-25">
      <g>
        <g>
          <path class="cls-44" d="M1158.51,386.32c56.56,0,54.39,59.05,56.56,84.84s9.95,68.37-7.77,76.76-112.81,14.61-114.06-11.19c-1.24-25.8-1.55-150.42,65.26-150.42Z"/>
          <path class="cls-18" d="M1156.51,547.55c31.37,0,50.13-38.14,50.44-75.97.31-37.83-26.14-51.52-51.52-51.52s-49.98,32.76-40.14,64.74c9.84,31.99,11.07,62.74,41.21,62.74Z"/>
        </g>
        <polygon class="cls-37" points="1181.91 551.77 1137.51 551.77 1139.65 495.83 1179.78 495.83 1181.91 551.77"/>
        <path class="cls-31" d="M1204.69,480.09c-3.18,9.47-28.05,44.89-44.94,44.89s-39.82-32.43-44.07-44.89c-6.02-17.66-8.47-76.22,41.18-76.22s54.04,57.69,47.82,76.22Z"/>
        <path class="cls-37" d="M1191.78,463.57c4.04-3.66,3.04-10.34-7.36-12.88s-18.1,5.83-16.68,16.98"/>
        <path class="cls-37" d="M1126.09,463.57c-4.04-3.66-3.04-10.34,7.36-12.88,10.4-2.54,18.1,5.83,16.68,16.98"/>
        <path class="cls-15" d="M1150.13,468.15c-6.83-12.24-17.06-8.02-23.11-3.39,0,0,11.8,14.95,23.11,3.39Z"/>
        <path class="cls-15" d="M1169.08,468.15c6.83-12.24,17.06-8.02,23.11-3.39,0,0-11.8,14.95-23.11,3.39Z"/>
        <g>
          <circle class="cls-14" cx="1139.69" cy="464.69" r="6.74"/>
          <circle class="cls-41" cx="1139.82" cy="464.13" r="4.15"/>
          <circle class="cls-15" cx="1139.21" cy="462.77" r="1.14"/>
        </g>
        <g>
          <circle class="cls-14" cx="1179.52" cy="464.69" r="6.74"/>
          <circle class="cls-41" cx="1179.38" cy="464.13" r="4.15"/>
          <circle class="cls-15" cx="1178.53" cy="463.02" r="1.14"/>
        </g>
        <g>
          <path class="cls-24" d="M1150.07,468.11c-2.88-4.02-6.2-6.28-9.85-6.74-4.9-.6-9.3,2.13-12.13,4.52l-2.08-2.46c4.77-4.03,9.82-5.86,14.61-5.26,4.59.57,8.65,3.28,12.08,8.05l-2.62,1.88Z"/>
          <path class="cls-24" d="M1139.58,473.92c-8.32-1.06-11.15-3.73-13.74-8.61l2.84-1.51c1.94,3.66,3.67,5.95,11.31,6.93l-.41,3.19Z"/>
          <path class="cls-31" d="M1150.29,468.06c-3.13-5.6-7.19-8.91-11.74-9.58-4.25-.62-8.76,1.13-12.69,4.94l-2.24-2.31c4.67-4.52,10.13-6.59,15.4-5.82,3.88.57,9.48,2.97,14.08,11.19l-2.81,1.57Z"/>
          <path class="cls-31" d="M1140.49,475.01c-7.7,0-14.63-3.02-18.13-7.26l3.72-3.08c4.15,5.01,14.89,7.59,24.25,3.44l1.96,4.42c-3.91,1.73-7.95,2.49-11.8,2.49Z"/>
        </g>
        <g>
          <path class="cls-24" d="M1169.14,468.1l-2.62-1.88c3.43-4.78,7.49-7.49,12.08-8.05,4.79-.59,9.84,1.23,14.61,5.26l-2.08,2.46c-2.83-2.4-7.24-5.13-12.13-4.52-3.66.45-6.97,2.72-9.85,6.73Z"/>
          <path class="cls-24" d="M1179.63,473.92l-.41-3.19c7.63-.97,9.36-3.27,11.31-6.93l2.84,1.51c-2.59,4.88-5.43,7.55-13.74,8.61Z"/>
          <path class="cls-31" d="M1168.91,468.06l-2.81-1.57c4.6-8.22,10.2-10.62,14.08-11.19,5.26-.77,10.74,1.29,15.4,5.82l-2.24,2.31c-3.93-3.81-8.44-5.57-12.69-4.94-4.54.67-8.6,3.98-11.74,9.58Z"/>
          <path class="cls-31" d="M1178.71,475.01c-3.85,0-7.89-.75-11.8-2.49l1.96-4.42c9.36,4.15,20.1,1.58,24.25-3.44l3.72,3.08c-3.51,4.23-10.43,7.26-18.13,7.26Z"/>
        </g>
        <g>
          <path class="cls-43" d="M1160.76,490.09c-5.82,0-8.58-3.23-6.76-3.87.76-.27,3.7,2.23,6.6,2.28,2.69.05,5.93-3.94,6.72-2.46s-1.85,4.04-6.56,4.04Z"/>
          <path class="cls-11" d="M1157.98,489.65c-3.5-2.52-3.5-1.68-2.38-.7s2.38.7,2.38.7Z"/>
          <path class="cls-11" d="M1163.44,489.72c2.59-2.03,3.92-2.31,3.01-1.33s-3.01,1.33-3.01,1.33Z"/>
        </g>
        <g>
          <path class="cls-40" d="M1145.86,499c4.34,3.26,6.06,9.36,14.04,9.56,8.3.21,10.54-4.83,15.34-9.28-6.65,2.45-17.44,4.94-29.38-.28Z"/>
          <path class="cls-36" d="M1163.52,503.95c1.55-.18,3.93-.72,4.07-.9-.94,1.33-2.78,1.77-4.07.9Z"/>
        </g>
        <path class="cls-23" d="M1143.62,498.06c11.4,5.06,17.04,6.65,33.64.52,0,0-9.49.77-12.59.9s-2.13.77-4,.77-1.68-.97-4.78-.97-4.45.06-12.27-1.23Z"/>
        <path class="cls-32" d="M1185.14,537.3c3.68,1.37,38.15,13.94,49.16,17.86,10.47,3.72,14.29,15.86,15.34,23,1.05,7.14,1.58,26.57,1.58,26.57h-185.43s-.13-19.43.92-26.57c1.05-7.14,6.08-18.72,15.34-23,8.57-3.97,45.48-16.49,49.16-17.86h53.94Z"/>
        <path class="cls-12" d="M1123.8,452.93c4.19-4.1,7.27-5.25,9.53-5.29s9.3,1.38,11.74,3.04,4.37,5.66,2.21,4.65-11.79-4.93-13.95-4.88c-2.29.05-1.75-.87-9.53,2.49Z"/>
        <path class="cls-12" d="M1195.4,452.93c-4.19-4.1-7.27-5.25-9.53-5.29s-9.3,1.38-11.74,3.04-4.37,5.66-2.21,4.65,11.79-4.93,13.95-4.88c2.29.05,1.75-.87,9.53,2.49Z"/>
        <path class="cls-12" d="M1130.94,419.98c34.05,20.66,51.08,13.97,64.47,25.44,5.74-20.28-7.65-44.77-34.24-44.77s-30.23,19.32-30.23,19.32Z"/>
        <path class="cls-44" d="M1157.89,422.68c25.17,13.36,42.53,16.76,40.29,65.78-2.19,47.92-29.1,64.75-29.1,64.75,0,0,44.44-25.17,44.13-71.79s-19.89-87.64-45.37-85.15-9.95,26.42-9.95,26.42Z"/>
        <g>
          <path class="cls-18" d="M1176.96,539.1c23.59-15,34.57-12.62,38.77-1.28"/>
          <path class="cls-44" d="M1172.2,418.17c-33.64,12.95-55,34.31-48.81,62.73,5.89,27.07,24.26,67.37,54.61,55.96,30.35-11.41,35.11-6.83,47.72,14.74-5.99.77-17.37,9.81-34.96,24.7-17.59,14.88-43.3,29.77-70.94,16.24-27.64-13.53-30.35-30.93-28.42-52.19,1.71-18.81,10.77-154.68,65.25-146.25,7.12,1.1,13.05,2.18,15.56,24.08Z"/>
          <path class="cls-9" d="M1126.05,432.79c11.76-15.13,31.93-31.93,54.34-25.49-8.12-9.8-48.74-19.61-54.34,25.49Z"/>
          <path class="cls-9" d="M1108.96,480.97c-1.96,29.13,20.52,67.64,44.96,71.36s34.03-8.89,47.76-8.05c-10.39-5.42-33.05,6.16-49.3-.84-16.25-7-31.09-21.01-43.42-62.46Z"/>
          <path class="cls-8" d="M1100.14,472.91c-6.09,41.17,22.2,88.09,46.64,91.8,25.48,3.87,47.83-15.97,61.55-15.13-10.39-5.42-38.23,15.55-63.02,7.56-16.84-5.42-42.44-29.83-45.17-84.24Z"/>
          <path class="cls-9" d="M1100.56,520.18c3.78,38.44,38.02,63.02,75.21,47.9-40.54,6.09-61.55-8.19-75.21-47.9Z"/>
          <path class="cls-8" d="M1097.89,545.31c12.9,36.41,57.59,47.01,90.06,23.4-35.29,14.92-67.28,11.86-90.06-23.4Z"/>
          <path class="cls-8" d="M1091.31,553.16c12.39,44.54,48.53,54.2,80.04,37.39,31.51-16.81,41.55-38.75,54.36-38.96-11.34-3.15-31.46,16.06-45.33,24.67s-57.98,30.88-89.07-23.11Z"/>
        </g>
      </g>
    </g>
  </g>
  <g>
    <circle class="cls-49" cx="158.28" cy="471.95" r="125.03"/>
    <g>
      <circle class="cls-15" cx="158.28" cy="471.95" r="125.03"/>
      <g class="cls-1">
        <g>
          <path class="cls-16" d="M255.82,477.83c-.81.69-.79,1.65-1.21,2.59-1.13,2.51-3.42,1.77-5.04.28-.17-.16-.33-.33-.49-.51.36-.7.7-1.42.99-2.16,1.03-2.68,1.3-5.7.53-8.49-.34-1.22-.89-2.4-1.44-3.53-.57-1.17-1.67-2.54-1.74-3.9-.01-.3.01-.62.07-.96.12.36.25.71.42,1.08.97,2.05,2.49,3.78,4.63,4.62,1.45.57,3.4.74,4.19-.93.77-1.63-.36-3.11-1.47-4.2-.03-.02-.06.01-.04.04.72.86,1.6,3.79-.7,3.26-.42-.1-.87-.47-1.21-.72-.94-.72-1.8-1.67-2.38-2.71-.82-1.45-1.47-3.17-2.06-4.85.05-.19.1-.38.13-.57.27-1.58.28-3.09,0-4.52.2-.56.45-1.07.78-1.52,2.32-3.1,7.37-1.1,6.33,2.94,0,.03.03.05.05.02,1.11-1.82,1.14-4.14-.22-5.87-.73-.93-1.7-1.47-2.75-1.72.65-1.68.41-3.55-.69-5.09-.01-.02-.05,0-.04.02.97,2.55-.37,3.85-2.09,5.09-.38.08-.75.19-1.11.33-.82.32-1.58.78-2.24,1.35-.08-.1-.15-.21-.23-.31,0-.02.01-.03.02-.05.61-2.11-.76-3.44-1.4-5.32-.24-.71-.38-1.4-.46-2.09,1.3-.63,2.52-1.54,3.44-2.37,1.61-1.45,4.08-4.07,2.21-6.25-1.32-1.54-3.26-1.25-4.82-.32.02-.05.05-.1.06-.13.64-1.21,1.83-2.06,2.38-3.33.81-1.86.28-4.06-.95-5.59-.13-.16-.35.02-.32.18.45,2.22.47,4.04-1.44,5.61-.12.1-.24.2-.35.3.02-1.33-.28-2.62-1.02-3.77-1.25-1.94-3.19-2.84-5.21-2.92-.67-.99-1.61-1.71-3-1.85-.38-.04-.76,0-1.13.09-.59-.7-1.2-1.39-1.79-2.09.44-.25.86-.53,1.3-.81.28-.2.58-.37.89-.53,1.03-.79,1.7-.15,2.01,1.91-.15.24.22.54.4.31,1.28-1.64.43-3.9-1.47-4.64-1.69-.66-3.09.41-4.75.51-.19.01-.39,0-.61-.02-.17-.35-.34-.7-.47-1.07-.04-.14-.07-.28-.09-.43-.11-.67-.24-1.73.14-2.34.71-1.15,2.62-.95,3.72-.65.22.06.31-.22.15-.35-1.12-.83-2.3-1.96-3.84-1.59-.67.16-1.2.59-1.6,1.14-.28-.75-.57-1.5-.89-2.23-.41-3.41,2.69-7.23.63-10.68-.98-1.64-3.96-3.29-5.01-.94-.11.24.22.45.36.21,2.02-.26,2.92.29,2.67,1.67.1.47.03.92-.21,1.33-.18.59-.5,1.14-.75,1.71-.25.57-.52,1.17-.73,1.79-1.2-1.33-2.69-2.43-4.64-3.18-1.34-.51-2.73-.7-4.15-.77-.48-1.05-.89-2.15-.7-3.16.32-1.61,3.43-4.81,4.86-2.5.09.14.31.05.27-.11-.35-1.27-1.78-2.1-2.94-2.56-1.97-.77-4.18.32-5.3,1.99-.11.17-.21.34-.29.51,1.22-3.4,1.32-7.01-2.03-9.05-.39-.24-.82-.17-1.14.06-.13-.01-.26-.02-.4,0-.21.02-.44.22-.35.45.08.2.18.38.28.56,0,.04.01.09.03.13.36,1.3.72,2.52.83,3.79-.5.94-1.51,1.55-2.45,2.17-.04.03-.08.05-.11.08-1.82-.94-3.77-1.63-5.78-2.04-1.97-.78-3.91-1.31-6.09-1.58.39-.97.91-1.87,1.7-2.65,1.16-1.14,2.78-1.85,4.38-1.12,1.77.81,1.7,3.13,1.97,4.84.02.1.18.15.25.06,3.76-4.73-2.45-9.77-7.17-7.02-2.13,1.24-3.31,3.45-3.83,5.8,0,0,0,0-.01,0-.15-.91-.29-1.84-.46-2.78,0-.13,0-.27-.01-.43-.09-1.01-.32-1.94-.2-2.96.12-.99.37-1.94,1.4-2.34,1.14-.45,1.83.07,2.69.72.24.18.67-.06.63-.36-.34-2.73-4.19-2.56-5.78-1.12-.15.14-.29.28-.43.42-.55-1.27-1.24-2.44-2.16-3.45-1.67-1.83-8.83-4.18-8.1.47.05.33.46.34.67.18,3.01-2.39,4.12.08,4.6,3.12-.18.11-.35.23-.53.38-.28.24-.58.45-.88.65-1.29.24-2.95.17-3.87.27-1.19.13-2.19.58-2.97,1.22-.66-.22-1.47-.53-2.2-.66-.03-.09-.06-.19-.09-.29-.22-.72-1.03-3.78-.05-4.37,1.48.42,2.74,1.42,3.16,2.97.03.11.21.09.21-.03.05-5.39-4.89-6.95-9.33-5.32-2.25.82-4.44,2.66-5.31,4.94-.07.19-.12.38-.16.56-.42-.31-.85-.6-1.35-.83-1.6-.73-3.34-.68-4.97-.05-.95.37-1.85,1.2-2.39,2.16-.51-1.22-1.07-2.42-2.11-3.29-2.85-2.37-6.53.58-6.42,3.77-1.81-.61-3.75-.76-5.79-.17-2.41.7-4.49,2-6.11,3.68-.22-.77-.13-1.62-.08-2.48.02-.3.12-.92-.33-1.01-.02,0-.05-.01-.07-.02-.28-.06-.53.04-.68.28-.91,1.4-.85,3.32-.25,4.96,0,0-.01.02-.02.03-3.43-.31-7.68.95-9.8,2.15-.17.09-.34.2-.5.31-2.29.48-3.78,1.96-4.6,4.05-.6.46-1.17.96-1.7,1.51,0,0-.01,0-.02,0-.17-.22-.34-.44-.52-.64-1.56-1.75-4.05-3.31-6.35-3.77-.03,0-.04.03-.01.04,2.46.88,3.49,2.54,4.27,4.57-1.58.29-3.07.92-4.36,2.01-.73-1.56-1.82-2.93-3.28-3.83-2.82-1.74-5.83-.13-7.2,2.58-.01.03.02.05.04.03,1.43-1.3,2.62-2.37,4.72-1.55,1.31.51,2.23,1.86,2.9,3.03.34.61.66,1.22.97,1.83-.16.23-.31.47-.45.71-1.16-.43-2.33-.67-3.5-.45-1.06-.05-2.15.09-3.14.31-.34.08-.62.23-.85.43-2.79,1.49-4.28,5.16-7.19,6.41-.64.04-1.27.01-1.86-.2-2.56-.92-1.73-3.94-.55-5.78.05-.08-.07-.17-.13-.1-2.49,2.84-4.47,7.62.53,9.02.97.27,1.97.36,2.97.41-.61.63-1.08,1.36-1.52,2.11-.27-.28-.57-.53-.92-.73-1.07-.61-3.06-.88-4.01.08-.18.18-.08.45.14.53.85.31,1.55.35,2.07,1.19.4.64.23,1.01-.13,1.51-.46.64-.44,1.43-.13,2.1-.11.11-.22.21-.33.32-.74.64-1.51,1.19-2.29,1.72-1.2.4-2.41.79-3.69,1.03-1.71.32-3.53.9-4.63,2.35-.98,1.28-1.04,2.95-.38,4.39.3.65.65,1.13,1.05,1.52-.03.11-.06.23-.08.34-.49,2.64.3,5.15.95,7.7.14.54.4,1.19.38,1.77-.02-.21-.31.49-.22.38-.16.2-.37.43-.61.66-.4-.47-.88-.87-1.43-1.21-1.72-1.07-5.11-.9-5.26,1.69-.02.4.48.54.74.31,1.54-1.37,3.37-1.35,4.04.86,0,.01,0,.02,0,.04-.15.13-.29.26-.42.38-.74.69-1.41,1.43-1.99,2.21-1.24-.04-2.49.44-3.38,1.44-1.81,2.02-1.35,5.52.78,7.07,0,1.95.93,4.01,2.34,5.55.29.55.59,1.1.9,1.63-.56.1-1.13.36-1.59.67-1.65,1.13-2.36,3.19-2.41,5.12-.05,2.12.92,4.94,2.6,6.8.46,1.35,1.19,2.55,1.97,3.77-.59.19-1.04.54-1.45,1.13-.44.62-.44,1.73,0,2.35.22.32.45.56.7.75-.13.19-.26.39-.38.61-.7,1.29-1.14,2.58-.77,4.05.24.99.9,1.85,1.74,2.46-.02.01-.04.02-.06.04-2.36,1.69-3.68,5.47-.59,7.14.62.34,1.14-.56.55-.95-2.71-1.75.21-4.79,2.48-3.24.22.15.43.29.65.42-.86,1.27-1.23,2.8-.73,4.57.55,1.94,2.36,2.89,4.12,3.5.49.17.99.34,1.48.5-.01.02-.03.03-.04.05-1.22,1.59-1.01,4.13-.08,5.76.42.74,1,1.39,1.66,1.92-1.98.65-3.63.66-3.42-1.58.02-.23-.38-.29-.41-.06-.34,2.27,1.22,4,3.47,4.19,1.56.13,3.11-.41,4.6-.8.15,1.08.29,2.14.48,3.19-1.31.9-2.19,2.17-1.03,3.83.61.87,1.75,1.4,2.97,1.65.15.24.3.48.47.71.6.84,1.28,1.57,2.05,2.2-.64.5-1.17,1.13-1.5,1.91-.73,1.69-.5,4.21.94,5.48,1.83,1.6,3.84.54,5.76-.23.03-.01.02-.06-.01-.05-.91.22-1.88.3-2.8.05-.79-.21-1.95-1.53-1.52-2.4.37-.75,2.84-.83,3.52-.9,1.18-.12,2.38.02,3.56-.16.51.74.92,2.85,1.25,3.77.65,1.84,1.42,3.64,2.77,5.09,1.53,1.64,3.32,2.4,5.23,2.67.04.15.08.3.13.46,0,.53.01,1.05.08,1.57-.78.75-1.82,1.28-3.11,1.49-.25.04-.18.37,0,.45,2.59,1.09,5.4-1.4,6.25-3.71.02-.05.03-.1.05-.15.04.15.09.29.17.44.13.23.33.43.56.58,1.1,1.68,2.86,2.97,4.87,3.06.42.02.63-.65.22-.82-.5-.22-.98-.46-1.45-.74.04-1.03-.13-1.91.57-2.69.4-.15.79-.3,1.19-.45.64.19,1.27.52,2.05,1.05,1.44.97,3.05,1.8,4.79,2.05,1.9,1.57,4.21,2.51,6.71,2.45.64-.01.6-.9,0-.97-.16-.02-.32-.05-.48-.07-.26-.4-.64-.7-.97-1.08-.35-.41-.65-.84-.92-1.29,1.56-.73,3.27-1.63,4.8-2,.26.03.55-.01.84-.14,1.32-.12,2.45.32,3.15,1.85.23.51.96.21.98-.27.05-1.34-.32-2.33-.99-3.06.57-.24,1.17-.45,1.77-.63,1.15-.11,2.31-.2,3.48-.23.39.11.75.29,1.06.56.77.67,1.02,1.97,1.77,2.73,1.03,1.05,2.32,1.91,3.64,2.57,5.52,2.75,10.91,1.38,16.21-1.09,1.59-.74,4.68-2.42,6.02-2.03,1.03.3,2.34,1.74,3.43,2.29,1.57.79,3.18,1.45,4.84,2.03,5.4,1.9,10.64,1.8,15.18-1.79,1.1,1.11,2.46,2,3.95,2.41,1.43.39,3.31.2,4.58-.55.42-.25.79-.55,1.12-.9.08.02.18.04.28.05-.1.35-.23.69-.42,1.01-.76,1.28-2.24,1.96-3.33,2.92-.01.01,0,.04.01.05,2.24.5,4.2-1.32,5.43-3.03.66-.91,1.02-1.86,1.28-2.9.5.09.99.17,1.49.22.56.65,1.21,1.27,1.97,1.85,2.05,1.57,6.21,3.43,7.71.2,0-.01,0-.03-.02-.03-2.34.14-4.29-.65-5.98-1.92,4.13-.29,8.02-1.9,11.26-4.82.16-.14.3-.29.46-.44.59.25,1.25.42,1.98.47,1.99.15,4.96-1.27,5.02-3.54,0-.15-.19-.28-.32-.18-1.6,1.17-3,1.71-4.95,1.27.95-1.27,1.73-2.67,2.33-4.14.92-2.25.91-4.67,1.37-6.98.97,1.16,2.18,2.01,3.66,2.6,1.33.52,2.45.59,2.99,2.11.58,1.62-.4,2.95-1.07,4.33-.03.06.02.15.1.12,3.2-1,2.69-5.56,1.51-7.88-1.05-2.06-2.66-3.72-3.35-5.97,2.23-1.2,4.51-2.33,6.34-4.14,1.12-1.12,1.91-2.3,2.46-3.54.37.27.67.63.83,1.15.17.58.02,1.12-.11,1.68-.13.59-.02.8.1,1.36.02.1.13.17.22.17,2.05-.01,2.18-2.72,1.68-4.26-.32-1.01-1.06-1.92-1.97-2.48.12-.62.21-1.25.24-1.89.01.01.03.02.04.04,1.08.86,2.62,1.33,3.9.58.91-.54,1.38-1.69,1.2-2.7-.03-.18-.31-.25-.42-.11-.88,1.05-3.03.39-3.84-.45-.09-.1-.18-.21-.28-.31,2.46-1.85,3.62-5.18,3.44-8.29-.06-1.05-.23-2.09-.49-3.12,1.96.28,4.04-.38,5.3-1.96,1.09-1.35,1.78-4.11.3-5.4-.02-.02-.04-.02-.06,0ZM246.51,433.21c.59-.52,2.2-1.47,2.21-.16.01,1.42-1.91,3.29-2.86,4.12-.06.06-.13.1-.2.16.02-.51-.05-1.05-.05-1.43,0-.54,0-1.08,0-1.62.26-.39.56-.76.91-1.07ZM75.03,459.86c-1.01,1.75-1.93,3.54-2.15,5.57-.1-.29-.2-.59-.27-.92-.37-1.67-.18-3.58,1-4.86.59-.65,1.3-.8,1.99-1.05.01.03.02.05.03.06-.12.31-.44.93-.59,1.21ZM80.28,421.24c-.77,1.09-1.44,2.21-1.9,3.43-.27-.43-.47-.85-.55-1.23-.6-2.79,1.95-3.77,4.18-4.09-.62.55-1.21,1.17-1.72,1.9ZM129.94,535.13c.08-.03.16-.06.24-.09.15.21.31.41.47.6-.25-.16-.49-.32-.72-.51ZM151.24,379.86c-.8.32-1.57.64-2.36.93,0,0-.01,0-.02,0-.11.04-.22.08-.32.11-.62-.38-1.25-.72-1.9-1,.12-.19.23-.39.32-.6.47-2.24,2.02-2.37,4.62-.38.06.24.07.52.06.81-.13.03-.26.07-.39.12ZM211.51,393.23c-.05-.05-.11-.1-.17-.15.13-.27.25-.55.36-.83-.1.32-.16.65-.19.99ZM241.27,428.04c-.11-.26-.21-.54-.31-.83.2-1.11-.04-2.31-.74-3.17-.08-.3-.16-.61-.25-.91,1.88.83,2.25,2.8,1.3,4.92ZM246.96,494.32c-.18.07-.36.14-.55.21-.18-1.19-.42-2.39-.67-3.58-.55-2.67.27-4.93,1.4-7.15.26.2.53.38.8.54.01.03.03.07.04.1,1.2,3.48,1.18,7.3-1.02,9.88Z"/>
          <path class="cls-22" d="M253.18,590.59c-1.05-7.17-9.88-19.84-15.39-23.09-9.13-5.38-45.66-16.55-49.35-17.93s-4.96-2.74-4.96-5.8v-23.62l-22.12,1.46-22.12-1.46v23.62c0,3.06-1.27,4.43-4.96,5.8-3.69,1.37-41.02,13.39-49.35,17.93-5.63,3.06-14.34,15.92-15.39,23.09-1.05,7.17,0,26.68,0,26.68h183.64s1.05-19.51,0-26.68Z"/>
          <path class="cls-33" d="M208.27,493.23c-3.19,9.51-28.36,42.18-45.31,42.18s-39.04-26.99-47.48-39.65c-10.39-15.58-5.26-80.14,44.58-80.14s54.45,59,48.21,77.61Z"/>
          <path class="cls-46" d="M195.11,475.55c4.05-3.68,3.05-10.38-7.39-12.93s-18.17,5.86-16.74,17.04"/>
          <path class="cls-46" d="M129.16,475.55c-4.05-3.68-3.05-10.38,7.39-12.93,10.44-2.55,18.17,5.86,16.74,17.04"/>
          <path class="cls-15" d="M153.3,480.15c-6.86-12.29-17.13-8.05-23.2-3.41,0,0,11.85,15.01,23.2,3.41Z"/>
          <path class="cls-15" d="M172.32,480.15c6.86-12.29,17.13-8.05,23.2-3.41,0,0-11.85,15.01-23.2,3.41Z"/>
          <g>
            <circle class="cls-14" cx="182.8" cy="476.68" r="6.76"/>
            <circle class="cls-41" cx="182.66" cy="476.12" r="4.17"/>
            <circle class="cls-15" cx="183.28" cy="474.76" r="1.15"/>
          </g>
          <g>
            <circle class="cls-14" cx="142.82" cy="476.68" r="6.76"/>
            <circle class="cls-41" cx="142.95" cy="476.12" r="4.17"/>
            <circle class="cls-15" cx="142.34" cy="474.76" r="1.15"/>
          </g>
          <g>
            <path class="cls-24" d="M153.24,480.11c-2.89-4.03-6.22-6.31-9.89-6.76-4.91-.61-9.34,2.13-12.18,4.54l-2.09-2.47c4.79-4.05,9.85-5.88,14.67-5.28,4.6.57,8.68,3.29,12.12,8.09l-2.63,1.88Z"/>
            <path class="cls-24" d="M142.7,485.95c-8.35-1.06-11.19-3.75-13.8-8.65l2.86-1.52c1.95,3.68,3.69,5.98,11.35,6.96l-.41,3.21Z"/>
            <path class="cls-33" d="M153.46,480.06c-3.15-5.62-7.22-8.95-11.78-9.61-4.27-.63-8.8,1.14-12.74,4.96l-2.25-2.32c4.69-4.54,10.18-6.61,15.46-5.84,3.9.57,9.52,2.98,14.14,11.23l-2.82,1.58Z"/>
            <path class="cls-33" d="M143.62,487.04c-7.73,0-14.68-3.04-18.2-7.29l3.74-3.09c4.17,5.03,14.95,7.62,24.34,3.45l1.97,4.43c-3.92,1.74-7.98,2.5-11.84,2.5Z"/>
          </g>
          <g>
            <path class="cls-24" d="M172.38,480.11l-2.63-1.89c3.44-4.8,7.52-7.52,12.12-8.09,4.81-.59,9.88,1.23,14.67,5.28l-2.09,2.47c-2.84-2.41-7.27-5.15-12.18-4.54-3.67.45-7,2.73-9.89,6.76Z"/>
            <path class="cls-24" d="M182.91,485.95l-.41-3.21c7.66-.98,9.4-3.28,11.35-6.96l2.86,1.52c-2.6,4.9-5.45,7.58-13.8,8.65Z"/>
            <path class="cls-33" d="M172.15,480.06l-2.82-1.58c4.62-8.25,10.24-10.66,14.14-11.23,5.28-.77,10.78,1.3,15.46,5.84l-2.25,2.32c-3.95-3.83-8.47-5.59-12.74-4.96-4.56.67-8.64,3.99-11.78,9.61Z"/>
            <path class="cls-33" d="M181.99,487.04c-3.86,0-7.92-.76-11.84-2.5l1.97-4.43c9.4,4.17,20.17,1.58,24.34-3.45l3.74,3.09c-3.52,4.25-10.47,7.29-18.2,7.29Z"/>
          </g>
          <g>
            <path class="cls-19" d="M149.01,511.12c4.36,3.27,6.08,9.39,14.09,9.6,8.33.21,10.58-4.85,15.39-9.31-6.68,2.46-17.5,4.96-29.49-.28Z"/>
            <path class="cls-36" d="M166.74,516.1c1.56-.18,3.95-.72,4.09-.9-.94,1.34-2.79,1.77-4.09.9Z"/>
          </g>
          <path class="cls-39" d="M146.76,510.18c11.44,5.08,17.11,6.68,33.77.52,0,0-9.53.78-12.64.91s-2.14.78-4.02.78-1.69-.97-4.8-.97-4.47.06-12.31-1.23Z"/>
          <path class="cls-42" d="M126.87,464.87c4.21-4.11,7.3-5.27,9.57-5.31,2.26-.05,9.34,1.39,11.79,3.05,2.45,1.66,4.39,5.68,2.22,4.67-2.17-1.02-11.83-4.95-14-4.9-2.3.05-1.76-.88-9.57,2.5Z"/>
          <path class="cls-42" d="M198.74,464.87c-4.21-4.11-7.3-5.27-9.57-5.31s-9.34,1.39-11.79,3.05-4.39,5.68-2.22,4.67,11.83-4.95,14-4.9c2.3.05,1.76-.88,9.57,2.5Z"/>
          <g>
            <path class="cls-46" d="M163.97,502.18c-5.85,0-8.62-3.24-6.79-3.88.76-.27,3.71,2.24,6.62,2.29,2.7.05,5.96-3.96,6.75-2.47s-1.86,4.06-6.58,4.06Z"/>
            <path class="cls-10" d="M161.17,501.74c-3.51-2.53-3.51-1.69-2.39-.7s2.39.7,2.39.7Z"/>
            <path class="cls-10" d="M166.66,501.81c2.6-2.04,3.94-2.32,3.02-1.34s-3.02,1.34-3.02,1.34Z"/>
          </g>
          <g>
            <path class="cls-27" d="M253.91,590.63c-1.06-7.23-10.1-19.77-15.52-23.28-2.97-1.92-16.48-6.74-28.71-10.94-12.19,8.72-28.2,14.02-45.75,14.02s-35.01-5.78-47.38-15.22c-13.03,4.43-28.98,10.03-32.23,12.14-5.42,3.51-14.46,16.05-15.52,23.28-1.06,7.23-7.17,11.99-7.17,11.99l37.12,14.9h130.75l27.84-9s-2.36-10.66-3.42-17.89Z"/>
            <path class="cls-28" d="M165.54,575.85c-.37,0-.73,0-1.1,0-16.11-.26-33.55-6.15-54.86-18.54l.27-.47c41.52,24.15,69.91,24.49,104.74,1.27l.3.45c-17.67,11.78-33.39,17.29-49.35,17.29Z"/>
          </g>
          <path class="cls-16" d="M234.12,464c-2.13-6.55-4.71-12.97-7.07-19.43-2.26-6.16-4.4-12.13-8.89-17.07-2-2.2-4.28-4.13-6.31-6.3-2.31-2.46-4.28-5.21-6.73-7.54-4.41-4.21-9.8-7.32-15.61-9.14-2.05-.64-4.37-1.21-6.76-1.55.05-.24.08-.49.1-.74-1.39-.03-2.78,0-4.17.04-5.59.21-11.15.61-16.7,1.34-5.66.75-11.56,1.49-17.05,3.12-3.33.99-6.51,2.4-9.74,3.65-1.8,1.01-3.52,2.17-5.17,3.41-6.61,4.96-12.12,11.17-16.36,18.27-4.6,7.69-7.68,16.33-9.43,25.1-1.33,6.68-2.2,13.63-1.96,20.49-.01.66,0,1.31.05,1.97.04.49.1.99.17,1.47.04.4.08.81.12,1.21.18,1.58.41,3.14.71,4.68-.36,1.74,0,3.53,1.19,4.84.34,1.11.73,2.21,1.18,3.3.84,2.03,1.81,3.99,3.07,5.8,1.49,2.14,3.75,3.33,6.07,4.42,2.12,1,5.58-.45,5.37-2.99.37-.36.73-.74,1.05-1.15,1.37-1.77,3.89-3.62,4.49-5.8.65-2.38-.1-5.41-.87-7.68-.69-2.04-2.15-4.26-2.12-6.46.02-1.23.96-2.68,1.66-3.87,1.13-1.92,2.29-3.81,3.03-5.93.76-2.17.94-4.52.49-6.77-.38-1.89-2.27-4.12-2.32-6.02.05-.07.16-.2.35-.32.7-.42,1.35-1.22,1.99-1.74,1.7-1.37,3.31-2.67,4.56-4.49.21-.3.39-.61.57-.91.91.73,2.06,1.11,3.27.84,2.31-.52,2.74-2.65,3.66-4.5.17-.35-.24-.66-.53-.41-1.03.88-3.52,1.88-4.76.74-.11-.1-.2-.21-.3-.32.53-2.66.26-5.4.06-8.23,1.63.4,3.48.49,4.3-.82.01-.02,0-.05-.02-.06-1.51-.82-2.94-.81-3.45-2.76-.16-.61-.23-1.24-.27-1.86,1.14-.78,3.81-.78,5.06-1.16,4.9-1.48,7.5-5.08,8.82-9.85.24-.89.35-2.42.9-3.18.04-.02.08-.04.13-.06.14-.05.3-.09.46-.12-.04.16-.09.32-.12.48-1.01,4.56.97,8.81,5,11.08.99.55,4.48,1.01,5.06,2.04-1.26,1.33-2.88,2.93-4.67,3.31-3.45.74-4.51-2.63-4.79-5.29-.07-.61-.93-.63-.97,0-.34,6.08,3.99,10.08,10.07,8.47,2.39-.63,4.33-2.34,5.84-4.29.15.15.32.29.51.41.83,1.28,2.09,2.31,3.49,2.64,1.98.46,3.38-.16,4.97,1.49.27.28.52.53.78.77-.13.4-.2.8-.21,1.18-.06,2.72,2.47,6.88,5.41,7.12.04,0,.07-.04.06-.08-.02-.07-.05-.14-.08-.21.11,0,.23,0,.35,0,.04,0,.05-.04.03-.07-1.47-1.9-2.68-3.41-2.94-5.46.11-.24.26-.48.48-.73,0,0,.02-.02.03-.03.79.21,1.62.41,2.16.82.9.7.63,2.08,1.27,3.08,1.22,1.9,3.37,2.16,5.38,2.62,1.69.38.92-.07,1.29,1.43.35,1.46,1.41,2.5,2.74,3.11,2.13.98,4.38.33,6.58.32-.04.74-.01,1.49.07,2.24-.05.6-.02,1.2.12,1.75.21.84.58,1.68,1.07,2.47.17.35.35.69.56,1.01.22.35,1.76,2.22,2.96,3.44-.8.78-1.55,1.64-2.12,2.6-1.37,2.3-1.82,4.98-1.51,7.61.29,2.47,1.15,4.81,2.56,6.87.45.65.94,1.28,1.48,1.86-1.13.9-2.5-.7-2.77-1.71-.15-.58-1.15-.48-1.08.15.25,2.17,2.17,4.25,4.36,4.59.21.03.41.05.62.06-.09.19-.17.38-.25.57-.59,1.49-.9,2.96-1.08,4.56-.19,1.77-.12,3.53.18,5.25-1.01-.24-1.88-.64-2.81-1.14-.72-.38-1.01-.82-1.27-1.59-.15-.46-.13-.81-.49-1.14-.05-.04-.13-.05-.18,0-.4.44-.25.98-.16,1.54.13.76.31,1.51.45,2.27.32,1.71,1.63,3.1,3.1,3.94.31.17.6.27.88.3-2.32,8.63,6.17,17.98,14.75,17.58,2.65-.12,4.28-1.79,4.88-3.78,3.35-2.69,4.94-7.35,6.34-11.38,2.19-6.3,3.94-12.75,5.23-19.29,1.36-6.91,2.35-13.48.13-20.32Z"/>
        </g>
      </g>
    </g>
  </g>
</svg>