<?xml version="1.0" encoding="UTF-8"?>
<svg xmlns="http://www.w3.org/2000/svg" viewBox="0 0 1062.11 922.7">
  <defs>
    <style>
      .cls-1 {
        opacity: .33;
      }

      .cls-2 {
        fill: #ed6b23;
      }

      .cls-3 {
        fill: #131143;
      }

      .cls-4 {
        fill: #e4af7f;
      }

      .cls-5 {
        fill: #958143;
      }

      .cls-6 {
        fill: #fff;
      }

      .cls-7 {
        fill: #038b75;
      }

      .cls-8 {
        fill: #22205c;
      }

      .cls-9 {
        fill: #fcba50;
      }

      .cls-10 {
        fill: #f37b62;
      }

      .cls-11 {
        fill: #f48a75;
      }

      .cls-12 {
        fill: #7074b6;
      }

      .cls-13 {
        fill: #2f2f7f;
      }

      .cls-14 {
        fill: #edbe90;
      }

      .cls-15 {
        fill: #2c190d;
      }

      .cls-16 {
        fill: #e0ae7c;
      }

      .cls-17 {
        opacity: .14;
      }

      .cls-17, .cls-18 {
        fill: #5f3a1c;
      }

      .cls-19 {
        fill: #e7624f;
      }

      .cls-20 {
        fill: #182322;
      }

      .cls-21 {
        fill: #d3d3d3;
        opacity: .24;
      }
    </style>
  </defs>
  <g id="Layer_13">
    <path class="cls-7" d="M144.25,715.13c74.9-9.25,152.15-68.42,152.15-68.42l71.22,80.54s-65.75,63.55-167.65,82.73c-13.61-24.96-55.73-94.85-55.73-94.85Z"/>
    <path class="cls-6" d="M822.25,235.43c-86.3-60.8-221.93-72.09-221.93-72.09l1.89-150.37s127.83-4.06,251.43,71.83c-9.35,38.65-31.39,150.63-31.39,150.63Z"/>
  </g>
  <g id="Layer_5">
    <g>
      <g>
        <path class="cls-13" d="M527.76,248.08c149.7,0,143.94,156.28,149.7,224.55,5.76,68.27,26.32,180.96-20.56,203.17-46.88,22.21-298.58,38.66-301.87-29.61-3.29-68.27-4.11-398.11,172.73-398.11Z"/>
        <path class="cls-3" d="M522.49,674.81c83.03,0,132.69-100.94,133.5-201.07.81-100.13-69.19-136.35-136.35-136.35s-132.28,86.69-106.23,171.35c26.05,84.66,29.31,166.06,109.08,166.06Z"/>
      </g>
      <polygon class="cls-4" points="589.71 685.97 472.19 685.97 477.85 537.91 584.06 537.91 589.71 685.97"/>
      <path class="cls-14" d="M650.01,496.26c-8.41,25.07-74.25,118.82-118.94,118.82s-105.39-85.84-116.63-118.82c-15.94-46.73-22.41-201.74,108.99-201.74s143.03,152.69,126.58,201.74Z"/>
      <path class="cls-4" d="M615.82,452.52c10.69-9.7,8.04-27.36-19.47-34.09-27.51-6.73-47.9,15.44-44.14,44.93"/>
      <path class="cls-4" d="M441.96,452.52c-10.69-9.7-8.04-27.36,19.47-34.09,27.51-6.73,47.9,15.44,44.14,44.93"/>
      <path class="cls-6" d="M505.59,464.65c-18.09-32.41-45.16-21.21-61.17-8.98,0,0,31.23,39.56,61.17,8.98Z"/>
      <path class="cls-6" d="M555.74,464.65c18.09-32.41,45.16-21.21,61.17-8.98,0,0-31.23,39.56-61.17,8.98Z"/>
      <g>
        <circle class="cls-5" cx="477.97" cy="455.5" r="17.83"/>
        <circle class="cls-20" cx="478.32" cy="454.02" r="10.99"/>
        <circle class="cls-6" cx="476.7" cy="450.42" r="3.03"/>
      </g>
      <g>
        <circle class="cls-5" cx="583.37" cy="455.5" r="17.83"/>
        <circle class="cls-20" cx="583.02" cy="454.02" r="10.99"/>
        <circle class="cls-6" cx="580.77" cy="451.08" r="3.03"/>
      </g>
      <g>
        <path class="cls-15" d="M505.44,464.54c-7.62-10.63-16.4-16.63-26.08-17.83-12.96-1.6-24.61,5.62-32.11,11.97l-5.51-6.51c12.62-10.68,26-15.49,38.67-13.92,12.14,1.5,22.89,8.67,31.96,21.32l-6.93,4.97Z"/>
        <path class="cls-15" d="M477.66,479.94c-22.01-2.81-29.51-9.88-36.37-22.79l7.53-4c5.15,9.69,9.73,15.76,29.92,18.34l-1.08,8.46Z"/>
        <path class="cls-14" d="M506.03,464.42c-8.29-14.82-19.04-23.58-31.06-25.34-11.26-1.65-23.19,3-33.6,13.09l-5.93-6.12c12.35-11.97,26.83-17.44,40.77-15.4,10.28,1.51,25.1,7.87,37.27,29.62l-7.44,4.16Z"/>
        <path class="cls-14" d="M480.09,482.81c-20.39,0-38.71-8-47.99-19.21l9.85-8.16c10.99,13.27,39.4,20.09,64.18,9.09l5.19,11.69c-10.34,4.59-21.04,6.59-31.22,6.59Z"/>
      </g>
      <g>
        <path class="cls-15" d="M555.9,464.54l-6.93-4.97c9.07-12.64,19.82-19.82,31.96-21.32,12.67-1.57,26.04,3.24,38.67,13.92l-5.51,6.51c-7.5-6.35-19.16-13.57-32.11-11.97-9.68,1.2-18.46,7.2-26.08,17.83Z"/>
        <path class="cls-15" d="M583.67,479.94l-1.08-8.46c20.19-2.58,24.77-8.64,29.92-18.34l7.53,4c-6.86,12.92-14.37,19.99-36.37,22.79Z"/>
        <path class="cls-14" d="M555.31,464.42l-7.44-4.16c12.17-21.75,26.99-28.11,37.27-29.62,13.93-2.04,28.41,3.43,40.77,15.4l-5.93,6.12c-10.41-10.09-22.34-14.74-33.6-13.09-12.03,1.76-22.77,10.53-31.06,25.34Z"/>
        <path class="cls-14" d="M581.24,482.81c-10.18,0-20.88-2-31.22-6.59l5.19-11.69c24.78,10.99,53.19,4.18,64.18-9.09l9.85,8.16c-9.28,11.21-27.61,19.21-47.99,19.21Z"/>
      </g>
      <g>
        <path class="cls-16" d="M533.74,522.73c-15.41,0-22.71-8.54-17.89-10.24,2-.7,9.78,5.91,17.46,6.04,7.12.12,15.71-10.43,17.79-6.5,2.09,3.93-4.91,10.7-17.36,10.7Z"/>
        <path class="cls-17" d="M526.36,521.56c-9.27-6.67-9.27-4.45-6.3-1.85,2.97,2.59,6.3,1.85,6.3,1.85Z"/>
        <path class="cls-17" d="M540.82,521.75c6.86-5.37,10.38-6.12,7.97-3.52s-7.97,3.52-7.97,3.52Z"/>
      </g>
      <g>
        <path class="cls-10" d="M494.3,546.3c11.49,8.62,16.04,24.76,37.16,25.3,21.96.56,27.89-12.79,40.59-24.56-17.61,6.49-46.15,13.07-77.75-.74Z"/>
        <path class="cls-11" d="M541.03,559.41c4.1-.48,10.4-1.91,10.78-2.39-2.48,3.53-7.35,4.68-10.78,2.39Z"/>
      </g>
      <path class="cls-19" d="M488.37,543.82c30.16,13.4,45.11,17.6,89.02,1.37,0,0-25.12,2.05-33.32,2.39s-5.64,2.05-10.59,2.05-4.44-2.56-12.64-2.56-11.79.17-32.46-3.25Z"/>
      <path class="cls-9" d="M598.24,647.68c9.73,3.61,100.98,36.9,130.1,47.26,27.71,9.85,37.81,41.98,40.59,60.88,2.78,18.9,21.91,170.25,21.91,170.25H271.27s10.73-151.34,13.51-170.25c2.78-18.9,16.09-49.55,40.59-60.88,22.69-10.5,120.37-43.65,130.1-47.26h142.77Z"/>
      <path class="cls-18" d="M435.92,424.36c11.09-10.84,19.25-13.89,25.22-14.01s24.61,3.66,31.07,8.04c6.46,4.39,11.58,14.99,5.85,12.31-5.73-2.68-31.19-13.04-36.92-12.92-6.06.13-4.63-2.32-25.22,6.58Z"/>
      <path class="cls-18" d="M625.42,424.36c-11.09-10.84-19.25-13.89-25.22-14.01-5.97-.12-24.61,3.66-31.07,8.04-6.46,4.39-11.58,14.99-5.85,12.31,5.73-2.68,31.19-13.04,36.92-12.92,6.06.13,4.63-2.32,25.22,6.58Z"/>
      <path class="cls-18" d="M454.8,337.16c90.13,54.68,135.19,36.96,170.63,67.34,15.19-53.67-20.25-118.48-90.63-118.48s-80,51.14-80,51.14Z"/>
      <path class="cls-13" d="M526.12,344.31c66.63,35.37,112.56,44.36,106.63,174.09-5.8,126.83-77.01,171.37-77.01,171.37,0,0,117.62-66.63,116.8-190.01-.82-123.38-52.64-231.96-120.09-225.38-67.45,6.58-26.32,69.92-26.32,69.92Z"/>
      <g>
        <path class="cls-3" d="M576.59,652.42c62.44-39.69,91.48-33.4,102.62-3.39"/>
        <path class="cls-13" d="M564,332.37c-89.02,34.28-145.57,90.81-129.2,166.02,15.59,71.63,64.22,178.3,144.54,148.12s92.93-18.08,126.29,39.01c-15.86,2.05-45.96,25.97-92.52,65.36-46.56,39.4-114.6,78.79-187.77,42.98s-80.33-81.86-75.21-138.14c4.53-49.78,28.5-409.4,172.68-387.08,18.83,2.92,34.55,5.76,41.18,63.73Z"/>
        <path class="cls-12" d="M441.85,371.07c31.14-40.03,84.51-84.51,143.82-67.46-21.5-25.95-128.99-51.89-143.82,67.46Z"/>
        <path class="cls-12" d="M396.63,498.58c-5.19,77.1,54.3,179.03,118.98,188.85,67.43,10.24,90.07-23.54,126.4-21.31-27.5-14.35-87.48,16.31-130.47-2.22-43-18.53-82.29-55.6-114.91-165.32Z"/>
        <path class="cls-8" d="M373.28,477.27c-16.12,108.98,58.75,233.15,123.43,242.97,67.43,10.24,126.58-42.26,162.91-40.03-27.5-14.35-101.19,41.14-166.8,20.02-44.57-14.35-112.31-78.95-119.54-222.96Z"/>
        <path class="cls-12" d="M374.39,602.37c10.01,101.75,100.64,166.8,199.05,126.77-107.31,16.12-162.91-21.68-199.05-126.77Z"/>
        <path class="cls-8" d="M367.32,668.86c34.13,96.37,152.43,124.42,238.36,61.94-93.41,39.48-178.06,31.4-238.36-61.94Z"/>
        <path class="cls-8" d="M349.92,689.66c32.8,117.87,128.44,143.45,211.84,98.97,83.4-44.48,109.96-102.55,143.88-103.11-30.02-8.34-83.28,42.5-119.97,65.3-36.7,22.8-153.46,81.73-235.74-61.16Z"/>
      </g>
      <g class="cls-1">
        <polygon class="cls-2" points="393.57 854.6 390.67 925.75 398.17 925.88 393.57 854.6"/>
        <polygon class="cls-2" points="665.3 854.6 662.4 925.75 669.9 925.88 665.3 854.6"/>
      </g>
    </g>
  </g>
  <g id="Layer_12">
    <path class="cls-6" d="M428.48,168.02c-89.32,15.34-197.81,100.27-197.81,100.27l-89.99-92.56s91.08-89.02,212.22-117.79c21.36,24.64,75.58,110.08,75.58,110.08Z"/>
    <path class="cls-7" d="M902.48,748.96c-47.31-36.97-124.04-47.21-124.04-47.21l5.31-85.37s72.73,1.3,140.8,47.89c-6.4,21.69-22.08,84.68-22.08,84.68Z"/>
    <path class="cls-7" d="M990.25,884.7c-5.31-44.55-40.3-90.62-40.3-90.62l48.05-42.14s37.62,39.24,48.77,99.87c-14.87,8.03-56.52,32.9-56.52,32.9Z"/>
    <path class="cls-7" d="M158.63,366.27c-34.12,76.32-22.26,183.45-22.26,183.45l-117.15,21.41s-22.61-98.73,17.56-206.34c31.46,1.38,121.85,1.47,121.85,1.47Z"/>
    <rect class="cls-21" x="347.04" y="76.93" width="8" height="82.88" transform="translate(.52 238.28) rotate(-37.52)"/>
    <rect class="cls-21" x="738.08" y="118.97" width="97.64" height="8" transform="translate(510.74 870.01) rotate(-78.59)"/>
    <rect class="cls-21" x="582.89" y="81.98" width="97.79" height="8" transform="translate(525.65 714.7) rotate(-88.17)"/>
    <rect class="cls-21" x="749.01" y="134.56" width="115.64" height="8" transform="translate(510.68 901.75) rotate(-78.54)"/>
    <rect class="cls-21" x="318.87" y="89.85" width="8" height="82.88" transform="translate(-13.17 223.79) rotate(-37.52)"/>
    <rect class="cls-21" x="289.52" y="105.11" width="8" height="82.88" transform="translate(-28.54 209.08) rotate(-37.52)"/>
    <rect class="cls-21" x="238.26" y="201.3" width="8" height="40.75" transform="translate(-86.07 216.16) rotate(-41.5)"/>
  </g>
</svg>