<?xml version="1.0" encoding="UTF-8"?>
<svg xmlns="http://www.w3.org/2000/svg" version="1.1" xmlns:xlink="http://www.w3.org/1999/xlink" viewBox="0 0 1311.3 791.2">
  <defs>
    <style>
      .cls-1 {
        fill: #684024;
      }

      .cls-2 {
        fill: #571e0c;
      }

      .cls-3 {
        stroke: #2d1a0d;
      }

      .cls-3, .cls-4, .cls-5, .cls-6, .cls-7, .cls-8, .cls-9 {
        fill: none;
      }

      .cls-3, .cls-4, .cls-5, .cls-7, .cls-8, .cls-9 {
        stroke-miterlimit: 10;
      }

      .cls-3, .cls-7 {
        stroke-width: 6.8px;
      }

      .cls-10 {
        fill: #e8bd93;
      }

      .cls-11 {
        fill: #735f4d;
      }

      .cls-12 {
        fill: #fff;
      }

      .cls-13 {
        fill: #968244;
      }

      .cls-4 {
        opacity: .5;
      }

      .cls-4, .cls-9 {
        stroke: #1e1e1e;
        stroke-width: 3px;
      }

      .cls-5 {
        stroke: #d3d3d3;
      }

      .cls-14 {
        fill: #f3f3f3;
      }

      .cls-15 {
        fill: #23130f;
      }

      .cls-16 {
        fill: #f58c75;
      }

      .cls-17 {
        fill: #e5b593;
      }

      .cls-18 {
        fill: #fed5b0;
      }

      .cls-19 {
        fill: #7d4a28;
      }

      .cls-20 {
        fill: #e5b17f;
      }

      .cls-21 {
        clip-path: url(#clippath-1);
      }

      .cls-22 {
        fill: #d3d3d3;
      }

      .cls-23 {
        fill: #884f26;
      }

      .cls-24 {
        fill: #79401b;
      }

      .cls-7, .cls-8 {
        stroke: #884f26;
      }

      .cls-25 {
        fill: #cc4544;
        opacity: .2;
      }

      .cls-26 {
        fill: #7b491e;
      }

      .cls-27 {
        fill: #3a3a3a;
      }

      .cls-8 {
        stroke-width: 10.2px;
      }

      .cls-28 {
        fill: #ae5e49;
      }

      .cls-29 {
        fill: #643e34;
      }

      .cls-30 {
        fill: #e0a971;
      }

      .cls-31 {
        fill: #f3f3f8;
      }

      .cls-32 {
        clip-path: url(#clippath-2);
      }

      .cls-33 {
        fill: #c92127;
      }

      .cls-34 {
        fill: #231410;
      }

      .cls-35 {
        fill: #192423;
      }

      .cls-36 {
        fill: #603b1d;
        opacity: .4;
      }

      .cls-37 {
        fill: #673b16;
      }

      .cls-38 {
        clip-path: url(#clippath);
      }

      .cls-39 {
        fill: #6a3615;
      }
    </style>
    <clipPath id="clippath">
      <path class="cls-6" d="M744.3,304.2l82.5,1.6s-16.3,22.5-41.3,22.1c-25.1-.5-41.1-23.7-41.1-23.7Z"/>
    </clipPath>
    <clipPath id="clippath-1">
      <path class="cls-6" d="M731.5,237.8c3.1,6.5,21.3,10.5,38.3,4.6-3.4-7.6-9-13.8-18.4-13.6-9.2.2-15.7,2.4-19.9,9Z"/>
    </clipPath>
    <clipPath id="clippath-2">
      <path class="cls-6" d="M853.8,240.2c-3.4,6.3-21.7,9.7-38.5,3.1,3.7-7.4,9.5-13.4,18.9-12.9s15.6,3,19.6,9.8Z"/>
    </clipPath>
  </defs>
  <!-- Generator: Adobe Illustrator 28.7.1, SVG Export Plug-In . SVG Version: 1.2.0 Build 142)  -->
  <g>
    <g id="Layer_11">
      <path class="cls-15" d="M624.1,238.4c-1.8,1.4-1.8,3.4-2.7,5.4-2.6,5.2-7.3,3.5-10.6.2-.4-.3-.7-.7-1-1.1.8-1.5,1.6-2.9,2.2-4.5,2.3-5.6,3.1-11.9,1.7-17.8-.6-2.6-1.7-5.1-2.8-7.5-1.1-2.5-3.3-5.4-3.4-8.3,0-.6,0-1.3.2-2,.2.8.5,1.5.8,2.3,1.9,4.4,5,8.1,9.4,10,3,1.3,7.1,1.8,8.9-1.7,1.7-3.4-.5-6.6-2.8-8.9,0,0-.1,0,0,0,1.4,1.9,3.1,8.1-1.7,6.8-.9-.2-1.8-1-2.5-1.6-1.9-1.6-3.7-3.6-4.8-5.9-1.6-3.1-2.9-6.8-4-10.3.1-.4.2-.8.3-1.2.7-3.3.8-6.5.3-9.5.5-1.2,1-2.2,1.7-3.1,5.1-6.4,15.6-1.8,13.1,6.6,0,0,0,.1.1,0,2.5-3.8,2.7-8.6,0-12.3-1.5-2-3.5-3.2-5.7-3.8,1.5-3.5,1.1-7.4-1.1-10.7,0,0,0,0,0,0,1.9,5.4-1.1,8.1-4.7,10.5-.8.1-1.6.3-2.3.6-1.8.6-3.4,1.5-4.8,2.7-.2-.2-.3-.4-.5-.7,0,0,0,0,0-.1,1.4-4.4-1.4-7.3-2.6-11.3-.5-1.5-.7-3-.8-4.4,2.8-1.2,5.4-3.1,7.4-4.7,3.5-2.9,8.9-8.3,5.1-13-2.7-3.3-6.8-2.9-10.1-1,0-.1.1-.2.1-.3,1.4-2.5,4-4.2,5.2-6.8,1.8-3.8.9-8.5-1.6-11.8-.3-.3-.7,0-.7.4.8,4.7.7,8.5-3.4,11.7-.3.2-.5.4-.8.6.1-2.8-.4-5.5-1.9-8-2.5-4.2-6.5-6.2-10.7-6.5-1.3-2.1-3.3-3.7-6.2-4.1-.8-.1-1.6,0-2.4.1-1.2-1.5-2.4-3-3.6-4.5.9-.5,1.8-1.1,2.8-1.6.6-.4,1.2-.7,1.9-1,2.2-1.6,3.6-.2,4.1,4.2-.3.5.4,1.1.8.7,2.8-3.4,1.2-8.2-2.8-9.9-3.5-1.5-6.5.6-10,.7-.4,0-.8,0-1.3,0-.3-.7-.7-1.5-.9-2.3,0-.3-.1-.6-.2-.9-.2-1.4-.4-3.7.5-4.9,1.6-2.4,5.6-1.8,7.9-1.1.5.1.7-.4.3-.7-2.3-1.8-4.7-4.3-7.9-3.6-1.4.3-2.6,1.2-3.4,2.3-.5-1.6-1.1-3.2-1.7-4.7-.6-7.2,6.2-15,2.1-22.4-1.9-3.5-8.1-7.2-10.5-2.3-.2.5.4,1,.7.5,4.3-.4,6.1.8,5.5,3.7.2,1,0,1.9-.5,2.8-.4,1.2-1.1,2.4-1.7,3.5-.6,1.2-1.2,2.4-1.7,3.7-2.4-2.9-5.5-5.3-9.5-7-2.8-1.2-5.7-1.7-8.7-1.9-.9-2.2-1.7-4.6-1.2-6.7.8-3.4,7.5-9.9,10.4-4.9.2.3.7.1.6-.2-.6-2.7-3.6-4.5-6-5.6-4.1-1.8-8.8.4-11.3,3.8-.2.3-.5.7-.7,1.1,2.8-7.1,3.3-14.6-3.6-19.2-.8-.5-1.7-.4-2.4,0-.3,0-.5,0-.8,0-.4,0-.9.4-.8.9.1.4.3.8.6,1.2,0,0,0,.2,0,.3.7,2.8,1.3,5.4,1.5,8-1.1,1.9-3.3,3.1-5.3,4.4,0,0-.2.1-.2.2-3.8-2.1-7.8-3.7-12-4.7-4.1-1.8-8.1-3-12.7-3.8.9-2,2-3.9,3.8-5.4,2.5-2.3,6-3.7,9.3-2,3.7,1.8,3.3,6.7,3.8,10.3,0,.2.4.3.5.2,8.2-9.7-4.5-20.7-14.6-15.2-4.6,2.5-7.2,7-8.5,11.9,0,0,0,0,0,0-.2-1.9-.5-3.9-.8-5.9,0-.3,0-.6,0-.9-.1-2.1-.5-4.1-.2-6.2.3-2.1.9-4,3.1-4.8,2.4-.9,3.8.3,5.6,1.7.5.4,1.4,0,1.4-.7-.5-5.8-8.6-5.7-12.1-2.8-.3.3-.6.6-.9.9-1.1-2.7-2.4-5.2-4.3-7.4-3.4-4-18.2-9.4-17,.4,0,.7.9.7,1.4.4,6.5-4.8,8.6.5,9.4,6.9-.4.2-.8.5-1.1.8-.6.5-1.3.9-1.9,1.3-2.7.4-6.2.1-8.2.3-2.5.2-4.7,1.1-6.3,2.4-1.4-.5-3-1.2-4.6-1.5,0-.2-.1-.4-.2-.6-.4-1.5-1.9-8,.2-9.2,3.1,1,5.7,3.2,6.4,6.5,0,.2.4.2.4,0,.5-11.3-9.8-14.9-19.2-11.8-4.8,1.6-9.5,5.3-11.5,10-.2.4-.3.8-.4,1.2-.9-.7-1.7-1.3-2.8-1.8-3.3-1.6-7-1.7-10.4-.5-2,.7-4,2.4-5.2,4.4-1-2.6-2.1-5.2-4.2-7.1-5.8-5.2-13.8.8-13.8,7.5-3.8-1.4-7.8-1.9-12.1-.8-5.1,1.3-9.6,3.9-13.1,7.3-.4-1.6-.2-3.4,0-5.2,0-.6.3-1.9-.6-2.1,0,0-.1,0-.2,0-.6-.1-1.1,0-1.5.5-2,2.9-2,6.9-.9,10.4,0,0,0,0,0,0-7.2-.9-16.2,1.5-20.7,3.8-.4.2-.7.4-1.1.6-4.8.9-8.1,3.8-10,8.2-1.3.9-2.5,1.9-3.7,3.1,0,0,0,0,0,0-.3-.5-.7-.9-1-1.4-3.2-3.8-8.3-7.2-13.1-8.4,0,0,0,0,0,0,5.1,2,7.2,5.6,8.7,9.9-3.3.5-6.5,1.7-9.3,3.9-1.4-3.3-3.6-6.3-6.6-8.3-5.8-3.9-12.2-.7-15.3,4.9,0,0,0,.1,0,0,3.1-2.6,5.7-4.8,10-2.9,2.7,1.2,4.6,4.1,5.9,6.6.7,1.3,1.3,2.6,1.9,3.9-.3.5-.7,1-1,1.5-2.4-1-4.9-1.6-7.3-1.2-2.2-.2-4.5,0-6.6.4-.7.1-1.3.4-1.8.8-6,2.9-9.4,10.5-15.6,13-1.3,0-2.7,0-3.9-.6-5.3-2.1-3.4-8.4-.7-12.2.1-.2-.1-.4-.3-.2-5.4,5.8-9.9,15.7.5,19,2,.6,4.1.9,6.2,1.1-1.3,1.3-2.4,2.8-3.3,4.3-.6-.6-1.2-1.2-1.9-1.6-2.2-1.4-6.4-2.1-8.4-.1-.4.4-.2.9.3,1.1,1.8.7,3.2.9,4.3,2.6.8,1.4.4,2.1-.4,3.2-1,1.3-1,3-.4,4.4-.2.2-.5.4-.7.6-1.6,1.3-3.3,2.4-4.9,3.4-2.6.8-5.1,1.5-7.8,1.9-3.6.6-7.5,1.6-9.9,4.6-2.1,2.6-2.4,6.1-1.1,9.2.6,1.4,1.3,2.4,2.1,3.3,0,.2-.1.5-.2.7-1.2,5.5.3,10.8,1.4,16.2.3,1.1.8,2.5.7,3.7,0-.4-.7,1-.5.8-.3.4-.8.9-1.3,1.3-.8-1-1.8-1.9-2.9-2.6-3.5-2.4-10.7-2.3-11.2,3.2,0,.8,1,1.2,1.5.7,3.3-2.8,7.2-2.6,8.4,2.1,0,0,0,0,0,0-.3.3-.6.5-.9.8-1.6,1.4-3.1,2.9-4.3,4.5-2.6-.2-5.3.7-7.2,2.8-3.9,4.1-3.2,11.5,1.1,14.9-.1,4.1,1.7,8.5,4.5,11.8.6,1.2,1.2,2.3,1.8,3.5-1.2.2-2.4.7-3.4,1.3-3.6,2.2-5.2,6.5-5.4,10.6-.2,4.5,1.6,10.4,5,14.5.9,2.9,2.3,5.4,3.9,8.1-1.3.3-2.2,1.1-3.1,2.3-1,1.3-1.1,3.6-.2,4.9.4.7.9,1.2,1.4,1.6-.3.4-.6.8-.8,1.3-1.6,2.7-2.6,5.3-1.9,8.5.4,2.1,1.8,4,3.5,5.3,0,0,0,0-.1,0-5.1,3.4-8.1,11.2-1.7,14.9,1.3.7,2.4-1.1,1.2-1.9-5.6-3.9.8-10.1,5.4-6.6.4.3.9.6,1.3.9-1.9,2.6-2.8,5.8-1.8,9.6,1,4.1,4.8,6.2,8.4,7.7,1,.4,2,.8,3.1,1.2,0,0,0,0,0,0-2.7,3.3-2.4,8.6-.6,12.1.8,1.6,2,3,3.4,4.2-4.2,1.2-7.7,1.1-7.1-3.6,0-.5-.8-.6-.9-.1-.9,4.7,2.3,8.5,7,9,3.3.4,6.6-.6,9.7-1.4.2,2.3.5,4.5.8,6.7-2.8,1.8-4.8,4.4-2.4,8,1.2,1.9,3.6,3.1,6.1,3.7.3.5.6,1,.9,1.5,1.2,1.8,2.6,3.4,4.1,4.8-1.4,1-2.5,2.3-3.3,3.9-1.6,3.5-1.4,8.8,1.6,11.6,3.7,3.5,8,1.4,12.1,0,0,0,0-.1,0-.1-1.9.4-4,.5-5.9,0-1.6-.5-4-3.4-3-5.2.8-1.6,6-1.6,7.5-1.7,2.5-.2,5,.2,7.5,0,1,1.6,1.7,6,2.3,8,1.2,3.9,2.7,7.7,5.5,10.9,3.1,3.6,6.8,5.3,10.8,6,0,.3.2.6.2,1,0,1.1,0,2.2,0,3.3-1.7,1.5-3.9,2.6-6.6,2.9-.5,0-.4.8,0,.9,5.4,2.5,11.4-2.6,13.4-7.4,0,0,0-.2.1-.3,0,.3.2.6.3.9.3.5.7.9,1.1,1.3,2.2,3.6,5.8,6.4,10,6.8.9,0,1.4-1.3.5-1.7-1-.5-2-1-3-1.6.2-2.2-.1-4,1.4-5.6.8-.3,1.7-.6,2.5-.9,1.3.4,2.6,1.2,4.2,2.3,3,2.1,6.3,4,9.9,4.6,3.9,3.4,8.7,5.6,13.9,5.6,1.3,0,1.3-1.8,0-2-.3,0-.7-.1-1-.2-.5-.9-1.3-1.5-2-2.3-.7-.9-1.3-1.8-1.8-2.8,3.3-1.4,7-3.2,10.2-3.9.6,0,1.2,0,1.8-.2,2.8-.2,5.1.8,6.5,4.1.4,1.1,2,.5,2.1-.5.2-2.8-.5-4.9-1.9-6.5,1.2-.5,2.5-.9,3.8-1.2,2.4-.2,4.9-.3,7.3-.2.8.3,1.6.7,2.2,1.3,1.6,1.5,2,4.2,3.5,5.9,2.1,2.3,4.7,4.2,7.5,5.6,11.4,6.2,22.8,3.7,34.1-1.1,3.4-1.4,10-4.7,12.8-3.8,2.1.7,4.8,3.8,7.1,5,3.2,1.8,6.6,3.3,10,4.6,11.2,4.4,22.2,4.5,32-2.7,2.2,2.4,5,4.4,8.1,5.3,3,.9,6.9.6,9.7-.8.9-.5,1.7-1.1,2.4-1.8.2,0,.4,0,.6.1-.2.7-.5,1.4-.9,2.1-1.7,2.6-4.8,3.9-7.2,5.9,0,0,0,0,0,0,4.7,1.2,8.9-2.5,11.6-6,1.4-1.9,2.3-3.8,2.9-6,1,.2,2.1.4,3.1.6,1.1,1.4,2.5,2.7,4,4,4.2,3.4,12.8,7.6,16.2,1,0,0,0,0,0,0-4.9.1-9-1.7-12.4-4.4,8.7-.3,17-3.4,24-9.3.3-.3.7-.6,1-.9,1.2.6,2.6,1,4.1,1.1,4.2.4,10.5-2.3,10.8-7.1,0-.3-.4-.6-.7-.4-3.4,2.3-6.4,3.4-10.5,2.3,2.1-2.6,3.8-5.5,5.2-8.5,2.1-4.7,2.2-9.7,3.4-14.6,1.9,2.5,4.4,4.4,7.5,5.7,2.8,1.2,5.1,1.4,6.1,4.6,1.1,3.5-1,6.2-2.5,9,0,.1,0,.3.2.3,6.8-1.9,6.1-11.5,3.7-16.4-2.1-4.4-5.3-8-6.6-12.8,4.8-2.4,9.6-4.6,13.6-8.3,2.4-2.3,4.2-4.7,5.4-7.3.8.6,1.4,1.4,1.7,2.5.3,1.2,0,2.3-.3,3.5-.3,1.2,0,1.7.1,2.9,0,.2.3.4.5.4,4.3.1,4.8-5.6,3.8-8.8-.6-2.2-2.1-4.1-4-5.3.3-1.3.5-2.6.6-4,0,0,0,0,0,0,2.2,1.9,5.4,3,8.2,1.5,1.9-1.1,3-3.4,2.7-5.6,0-.4-.6-.5-.9-.3-1.9,2.1-6.4.6-8-1.2-.2-.2-.4-.5-.6-.7,5.3-3.7,8-10.6,7.8-17.2,0-2.2-.3-4.4-.8-6.6,4.1.7,8.5-.5,11.3-3.7,2.4-2.8,4-8.5,1-11.3,0,0,0,0-.1,0ZM607.8,144c1.3-1.1,4.7-2.9,4.7-.2,0,3-4.2,6.8-6.3,8.4-.1.1-.3.2-.4.3,0-1.1,0-2.2,0-3,0-1.1,0-2.3,0-3.4.6-.8,1.2-1.5,2-2.2ZM245.7,187.8c-2.2,3.6-4.3,7.3-4.9,11.5-.2-.6-.4-1.3-.5-2-.7-3.5-.1-7.5,2.4-10.1,1.3-1.3,2.8-1.6,4.3-2.1,0,0,0,.1,0,.1-.3.6-1,1.9-1.3,2.5ZM259.4,107.1c-1.7,2.2-3.2,4.5-4.2,7.1-.5-.9-.9-1.8-1.1-2.6-1.1-5.9,4.4-7.8,9.1-8.3-1.3,1.1-2.6,2.4-3.8,3.9ZM355.7,349.8c.2,0,.3-.1.5-.2.3.5.6.9,1,1.3-.5-.3-1-.7-1.5-1.1ZM411.4,25.2c-1.7.6-3.3,1.2-5,1.8,0,0,0,0,0,0-.2,0-.5.1-.7.2-1.3-.8-2.6-1.6-3.9-2.2.3-.4.5-.8.7-1.2,1.2-4.7,4.4-4.8,9.7-.5.1.5.1,1.1,0,1.7-.3,0-.6.1-.8.2ZM537.1,57.5c-.1-.1-.2-.2-.3-.3.3-.6.6-1.1.8-1.7-.2.7-.4,1.4-.5,2.1ZM597.1,132.8c-.2-.6-.4-1.1-.6-1.8.5-2.3,0-4.8-1.3-6.7-.1-.6-.3-1.3-.5-1.9,3.9,1.9,4.5,6,2.4,10.4ZM604.4,272.4c-.4.1-.8.3-1.2.4-.3-2.5-.7-5-1.2-7.6-1-5.6.9-10.3,3.4-14.9.5.4,1.1.8,1.6,1.2,0,0,0,.1,0,.2,2.3,7.4,2,15.4-2.8,20.7Z"/>
      <path class="cls-19" d="M945.7,405.4l-26.2-6.9c-2.8-.7-5.7.5-7.2,2.9h0c-1.9,3.2-.7,7.4,2.7,9.1l43.2,21.3"/>
      <path class="cls-31" d="M206.7,426.4c50.6-40.2,83.3-81.8,113.1-62.5,29.8,19.3,138.4,95.2,138.4,95.2l43.1-16.4s55,19.3,59.5,34.2c4.5,14.9,13.4,116,13.4,116l-23.8,1.5s-22.3,41.7-23.8,69.9c-1.5,28.3-1.5,132.6-1.5,132.6,0,0-22.9,1.4-232.1,0,11.9-71.4-6.1-250.2-26.9-302.3"/>
      <path class="cls-19" d="M383.7,297l3.9,51.9c.4,5.4-.8,10.8-3.6,15.5-6.5,10.9-19.7,28.4-34.5,18.9,47.6,52.1,78.8,87.8,114.6,92.2,35.7,4.5,37.2-32.7,37.2-32.7,0,0-32.7-6-38.7-34.2-6-28.3-1-81.8-1-81.8"/>
      <path class="cls-23" d="M521.6,266.3c-7.3,19.8-50.6,85.9-86.2,85.7-45.4-.3-89.5-35.8-108.9-86.5-14.1-36.8-5.8-168.7,98.9-165.4s110.5,127.5,96.2,166.2Z"/>
      <path class="cls-26" d="M497,228.7c8.8-7.5,7.1-21.6-14.7-27.6s-38.5,11.1-36.3,34.7"/>
      <path class="cls-26" d="M358.5,224.4c-8.3-8-5.7-22,16.4-26.7s37.8,13.5,34.1,36.9"/>
      <path class="cls-12" d="M409.1,235c-13.6-26.3-35.5-18-48.5-8.7,0,0,23.9,32.3,48.5,8.7Z"/>
      <path class="cls-12" d="M448.9,236.9c15.2-25.4,36.5-15.8,49-5.6,0,0-25.9,30.8-49,5.6Z"/>
      <g>
        <circle class="cls-13" cx="467.2" cy="231.7" r="14.2"/>
        <circle class="cls-35" cx="466.9" cy="230.5" r="8.8"/>
        <circle class="cls-12" cx="460.3" cy="227.7" r="2.4"/>
      </g>
      <g>
        <circle class="cls-13" cx="383.2" cy="229.1" r="14.2"/>
        <circle class="cls-35" cx="383.5" cy="227.9" r="8.8"/>
        <circle class="cls-12" cx="376.3" cy="225" r="2.4"/>
      </g>
      <g>
        <path class="cls-3" d="M360.5,226.8c16.5-13.1,36.4-15.1,51.2,6.9"/>
        <path class="cls-3" d="M360.9,226.6c4.5,9.2,9.2,14.6,25.9,17.2"/>
        <path class="cls-7" d="M355.8,221.6c18.2-16.6,42.1-15.5,56.5,12.3"/>
        <path class="cls-8" d="M354.4,229.8c9.4,12.1,33.9,19.8,56.9,10.4"/>
      </g>
      <g>
        <path class="cls-3" d="M497.8,231c-15.6-14.1-35.4-17.3-51.5,3.7"/>
        <path class="cls-3" d="M497.3,230.8c-5.1,8.9-10.1,14-26.9,15.6"/>
        <path class="cls-7" d="M502.8,226.1c-17.2-17.7-41.1-18-57.2,8.8"/>
        <path class="cls-8" d="M503.6,234.5c-10.2,11.5-35,17.6-57.4,6.9"/>
        <path class="cls-20" d="M476.4,206.2"/>
      </g>
      <path class="cls-34" d="M354.5,191.4c9.1-8.4,15.7-10.6,20.4-10.5s19.5,3.5,24.6,7.2c5,3.7,8.9,12.2,4.4,10-4.5-2.3-24.5-11.2-29.1-11.2s-3.6-2-20.3,4.6Z"/>
      <path class="cls-34" d="M503.1,190.1c-8.6-8.9-15-11.5-19.8-11.8s-19.7,2.3-25,5.6c-5.3,3.3-9.6,11.7-5,9.7,4.6-2,25.2-9.6,29.7-9.4s3.7-1.7,19.9,5.9Z"/>
      <g>
        <path class="cls-26" d="M432.7,282.3c-12.3-.4-17.9-7.4-14-8.6s7.6,5,13.8,5.2,12.8-7.9,14.3-4.7c1.6,3.2-4.2,8.4-14.1,8.1Z"/>
        <path class="cls-36" d="M427.8,281.4c-9.2-7-9.2-4.8-6.3-2.1,2.9,2.7,6.3,2.1,6.3,2.1Z"/>
        <path class="cls-36" d="M438.4,281.7c5.6-4.1,8.4-4.6,6.4-2.6s-6.4,2.6-6.4,2.6Z"/>
      </g>
      <path class="cls-15" d="M586.9,207c-4-13.9-9-27.6-13.6-41.3-4.3-13.1-8.4-25.8-17.6-36.4-4.1-4.8-8.7-9-12.8-13.6-4.7-5.3-8.7-11.2-13.6-16.3-9-9.1-20.1-16-32.2-20.2-4.3-1.5-9.1-2.8-14.1-3.7.1-.5.2-1,.3-1.5-2.9-.2-5.8-.2-8.8-.2-11.8,0-23.5.5-35.2,1.7-11.9,1.2-24.4,2.4-36,5.4-7.1,1.9-13.8,4.6-20.7,7-3.8,2-7.5,4.3-11.1,6.8-14.2,10-26.2,22.7-35.6,37.3-10.2,15.9-17.2,33.8-21.4,52.1-3.2,13.9-5.5,28.5-5.5,42.9,0,1.4,0,2.8,0,4.1,0,1,.1,2.1.3,3.1,0,.9.1,1.7.2,2.6.3,3.3.7,6.6,1.2,9.9-.9,3.6-.2,7.4,2.2,10.2.6,2.4,1.4,4.7,2.3,7,1.6,4.3,3.6,8.5,6.1,12.4,3,4.6,7.7,7.2,12.5,9.7,4.4,2.2,11.8-.6,11.5-5.9.8-.7,1.6-1.5,2.3-2.4,3-3.6,8.4-7.4,9.8-11.9,1.5-5,.2-11.4-1.3-16.2-1.3-4.3-4.2-9.1-4-13.7.1-2.6,2.2-5.6,3.7-8,2.5-4,5-7.9,6.7-12.3,1.7-4.5,2.3-9.4,1.5-14.2-.7-4-4.5-8.8-4.5-12.8.1-.2.3-.4.8-.6,1.5-.8,2.9-2.5,4.3-3.5,3.7-2.8,7.1-5.4,9.9-9.1.5-.6.9-1.2,1.2-1.9,1.9,1.6,4.2,2.5,6.8,2,4.9-.9,5.9-5.4,8-9.2.4-.7-.5-1.4-1.1-.9-2.2,1.8-7.5,3.7-10,1.2-.2-.2-.4-.5-.6-.7,1.3-5.5.9-11.3.7-17.3,3.4.9,7.3,1.3,9.1-1.4,0,0,0,0,0-.1-3.1-1.8-6.1-1.9-7.1-6-.3-1.3-.4-2.6-.4-3.9,2.5-1.6,8-1.4,10.7-2.1,10.4-2.8,16.1-10.2,19.2-20.1.6-1.8.9-5.1,2.1-6.6,0,0,.2,0,.3-.1.3-.1.6-.2,1-.2-.1.3-.2.7-.3,1-2.4,9.5,1.5,18.6,9.8,23.6,2,1.2,9.4,2.4,10.5,4.6-2.7,2.7-6.2,6-10,6.7-7.3,1.3-9.3-5.8-9.7-11.4,0-1.3-1.9-1.4-2,0-1.1,12.8,7.7,21.4,20.6,18.5,5.1-1.2,9.2-4.6,12.6-8.6.3.3.7.6,1,.9,1.7,2.7,4.2,5,7.2,5.8,4.1,1.1,7.1-.1,10.3,3.5.5.6,1.1,1.1,1.6,1.7-.3.8-.5,1.7-.5,2.5-.3,5.7,4.7,14.6,10.9,15.3,0,0,.2,0,.1-.2,0-.2-.1-.3-.2-.5.2,0,.5,0,.7,0,0,0,.1,0,0-.1-3-4.1-5.4-7.3-5.8-11.7.2-.5.6-1,1-1.5,0,0,0,0,0,0,1.6.5,3.4,1,4.5,1.9,1.8,1.5,1.2,4.4,2.5,6.6,2.4,4.1,6.9,4.8,11.1,5.8,3.5.9,1.9,0,2.6,3.1.6,3.1,2.8,5.3,5.5,6.7,4.4,2.2,9.2,1,13.8,1.1-.1,1.6-.1,3.1,0,4.7-.1,1.3-.1,2.5.1,3.7.4,1.8,1.1,3.6,2.1,5.3.3.7.7,1.5,1.1,2.2.4.8,3.5,4.8,6,7.4-1.7,1.6-3.4,3.3-4.6,5.3-3,4.7-4.1,10.3-3.7,15.9.4,5.2,2.1,10.2,4.9,14.6.9,1.4,1.9,2.7,3,4-2.4,1.8-5.2-1.6-5.7-3.8-.3-1.2-2.4-1.1-2.3.2.4,4.6,4.3,9.1,8.9,9.9.4,0,.9.1,1.3.2-.2.4-.4.8-.6,1.2-1.3,3.1-2.1,6.2-2.6,9.5-.5,3.7-.5,7.4,0,11-2.1-.6-3.9-1.5-5.8-2.6-1.5-.8-2.1-1.8-2.6-3.4-.3-1-.2-1.7-1-2.4-.1,0-.3-.1-.4,0-.9.9-.6,2-.4,3.2.2,1.6.6,3.2.8,4.8.6,3.6,3.2,6.6,6.3,8.5.6.4,1.2.6,1.8.7-5.4,18,11.8,38.2,29.8,37.9,5.6,0,9.1-3.5,10.5-7.6,7.2-5.4,10.9-15.1,14.1-23.5,5-13.1,9.1-26.5,12.2-40.2,3.3-14.4,5.8-28.2,1.6-42.7Z"/>
      <path class="cls-14" d="M401.6,301.2l3.3,6.9,13.5,7.5,24.4-1.8,11.3-5.5s4-5.2,3.5-5.2-28.4,2.9-28.4,2.9c0,0-12.9-1.9-13.3-1.9s-8.6-1.9-8.6-1.9l-5.8-1Z"/>
      <g>
        <path class="cls-24" d="M397.7,300.7c8.9,7.2,12.1,25.1,31.1,25.5,17.5.4,21.7-14.3,32.1-23.4-16.5,12.1-42,15-63.2-2.1Z"/>
        <path class="cls-16" d="M434.6,316.4c3.3-.3,8.3-1.3,8.7-1.6-2.1,2.8-6,3.5-8.7,1.6Z"/>
      </g>
      <path class="cls-39" d="M393.2,298.3c23.7,11.4,41.7,15.2,70.9,3.3,0,0-20.1,1-26.6,1.1-6.5,0-4.5,1.5-8.5,1.4s-3.5-2.2-10-2.4-9.4-.2-25.8-3.4Z"/>
      <path class="cls-15" d="M342.4,272.4c8.8,4.3,14.7,4.7,18.3,4.1s1.8,1.2,1,2c-5.6,5.4-16.9,14.3-27.2,9.4"/>
      <path class="cls-5" d="M347.4,383c54.4,81.3,99.7,97.8,114.7,99.2s35.9-7,39.4-18.5,2-20.4,2-20.4"/>
      <path class="cls-5" d="M218.6,416.4c18,2.7,32,17.3,43.4,34.7,11.3,17.3,15.3,40.7,15.3,40.7"/>
      <polyline class="cls-31" points="260.8 493.9 281.2 523.5 275.6 488.2 263.8 493.4"/>
      <path class="cls-19" d="M100.6,276.1s3.5,115.4,7.7,184.4,3,92.2,37.2,83.3c34.2-8.9,120.5-49.1,120.5-49.1,0,0-16.4-65.5-52.1-71.4-26.8,17.9-44.6,32.7-44.6,32.7l-28.6-179.9h-40.2Z"/>
      <path class="cls-1" d="M51.4,226.5l-8.1-35.3c-.3-1.1.5-2.2,1.6-2.4h0c4.6-.7,9,2,10.6,6.3l11.5,31.4s41.2,23.2,42.1,24.6-9,6.6-9,6.6"/>
      <path class="cls-1" d="M65.1,231.3l-6.7-35.6c-.2-1.1.6-2.2,1.7-2.3h0c4.6-.5,8.9,2.3,10.3,6.7l10.3,31.8s40.3,24.7,41.2,26.2-9.2,6.3-9.2,6.3"/>
      <path class="cls-1" d="M116.6,255.1"/>
      <path class="cls-1" d="M107.8,250.5l3,1.7,3.7,2.1-9.1-21.8c-1.6-3.9,1.6-8.1,5.8-7.5h0c4.7.6,9,3.1,11.8,7,5.8,7.8,15.1,21.1,16.7,27.8,2.3,9.8,2.1,13.7,1.5,13.3"/>
      <path class="cls-19" d="M114.9,254.1c-10.5-2.8-49.2-22-49.2-22l-29.1-40.7c-1-1.4-2.5-2.3-4.2-2.4h0c-3.1-.3-5.3,2.9-4.1,5.7l20.7,45.7c.6,1.4,1.6,2.6,2.9,3.5,9.5,6.7,50.9,36.2,52,37.3h37.5s2.7-15.2-6.3-20.5-19.5-6.4-19.5-6.4"/>
      <path class="cls-27" d="M870.3,374.6c61.6,44,73,45.7,91.4,53.9,18.4,8.2,38.9,16,40.1,55.3,1.2,39.4,19,313.2,19,313.2h-201.2l11.4-403.4"/>
      <path class="cls-27" d="M724.6,363.6c-80.4,39.9-98.3,39.7-122,46.7-23.7,7-50.5,14.6-54.6,53.8-4.1,39.2-64.6,332.9-64.6,332.9h277.9l11.6-411.9"/>
      <polyline class="cls-31" points="720.4 380.5 704.9 797 902.9 797 868 382.8"/>
      <path class="cls-18" d="M861.6,406.4s-29.2,23.1-67.2,22.1c-46.6-1.3-74-26.8-74-26.8l10.1-141.9,131.7,25.3-.7,121.3Z"/>
      <path class="cls-25" d="M720,320c36.8,111.6,142.7,60.5,142.7,60.5l-.6-66.8-143.6-5.8,1.6,12.1Z"/>
      <path class="cls-18" d="M883,182.5c1-49.1-17.8-89.3-87.2-90.6-69.4-1.3-89.7,38.1-90.6,87.2l1.9,56.4c1.8,54.6,2.5,58.1,4.2,69.5,1.7,11.5,3.5,19.2,12.9,30,9.4,10.7,30.5,36.4,38.2,40,7.6,3.5,30.6,7.5,46.1,1.4,13.6-5.4,47.2-33.5,55.2-45.3,7.9-11.8,10.8-36.2,12.7-60.7,1.9-24.4,6.7-87.8,6.7-87.8Z"/>
      <polyline class="cls-33" points="778.2 457.5 770.6 797 839.9 797 805 447.8"/>
      <path class="cls-33" d="M818.5,440.8c0,17.2-11.5,31.2-25.8,31.3s-25.9-13.9-26-31.1c0-17.2,9.9-19.3,24.2-19.4,14.3,0,27.4,2,27.5,19.2Z"/>
      <path class="cls-22" d="M723.7,352.1c33.2,51.1,62,66.3,62,66.3l-29.2,55.6s-45-72.1-44.8-101c6.8-12.3,12-21,12-21Z"/>
      <path class="cls-31" d="M723.7,352.1c33.2,49.9,62,64.7,62,64.7l-29.1,54.2s-45.1-70.4-44.8-98.5c6.8-12,11.9-20.4,11.9-20.4Z"/>
      <path class="cls-22" d="M864,356.1c-36,49.1-65.7,62.7-65.7,62.7l26,57.2s49.1-69.5,50.4-98.3c-6.1-12.7-10.8-21.6-10.8-21.6Z"/>
      <path class="cls-31" d="M864,356.1c-36,47.9-65.6,61.1-65.6,61.1l26,55.8s49-67.7,50.4-95.8c-6.1-12.4-10.8-21.1-10.8-21.1Z"/>
      <path class="cls-17" d="M857.2,239.1c-3.3-10.6-9.3-15.4-23.4-14.5-14.1.8-21.2,3.9-20.6,18,1.7,2.3,32,13.1,44-3.5Z"/>
      <path class="cls-12" d="M853.8,240.2c-3.4,6.3-21.7,9.7-38.5,3.1,3.7-7.4,9.5-13.4,18.9-12.9s15.6,3,19.6,9.8Z"/>
      <path class="cls-17" d="M727.7,236.6c3.7-10.5,9.9-15,23.9-13.6,14,1.4,21,4.7,19.9,18.8-1.8,2.2-32.5,11.8-43.9-5.2Z"/>
      <path class="cls-29" d="M769.5,242.4c-2.1-3.3-4-6.8-7.2-9-3-2.1-6.6-3-10.4-3.1-3.7,0-7.7,0-11.2,1-3.8,1.1-6.4,4.1-9.5,6.5,1.5-2.7,3.2-5.3,5.6-7.4,5.5-4.3,15.1-4.6,21.5-2.4,6.3,2,10.2,8.2,11.1,14.4h0Z"/>
      <path class="cls-12" d="M731.2,237.8c3.1,6.5,21.3,10.5,38.3,4.6-3.4-7.6-9-13.8-18.4-13.6-9.2.2-15.7,2.4-19.9,9Z"/>
      <path class="cls-2" d="M744.3,304.2l82.5,1.6s-16.3,22.5-41.3,22.1c-25.1-.5-41.1-23.7-41.1-23.7Z"/>
      <path class="cls-10" d="M767.2,334.9c12.8,9.1,23,8.8,36.4,1,0,0,0,0,0,0-11.7,9.9-25.5,10-36.4-1.1h0Z"/>
      <path class="cls-37" d="M863.2,207.2c.3.3.7,0,.6-.4-4.1-8.6-6.9-14.6-15.5-15.4-9.3-.8-27.1-2.4-30.2-.3-3.1,2.2-8.3,7.8-.6,8,7.7.1,29.9.4,34,.5s9.3,4.9,11.7,7.5Z"/>
      <path class="cls-37" d="M723.1,199.2c-.3.3-.7,0-.5-.4,4.4-8.5,7.5-14.3,16.1-14.7,9.3-.5,27.2-1.4,30.2.9s8,8.1.3,8c-7.7-.1-29.9-.7-34-.8s-9.5,4.6-12,7.1Z"/>
      <path class="cls-17" d="M770.4,271c-6.5,3.7-8.1,13.2-4.9,14.4,3.2,1.2,7.6,1,10,2.8,4.6,3.4,14.5,3,19.7-.4,4.8-3.2,8.9,0,10.9-3s-.6-8.8-4.8-13.1"/>
      <path class="cls-18" d="M774.9,265.1c-5.3,6.4-10.6,13.5-4.6,17.1s5.8,5.1,15.2,5.3c9.4.2,10.6-2.8,13.2-3.5,4.2-1.2,6-9.1,0-18.2"/>
      <path class="cls-37" d="M706.2,249.9c2.3-19.6,7.8-30.1,7.6-45.9-.2-15.8-4.4-69.6,28.7-71.4,33.1-1.8,41.1,5.1,61.3,3.6s35.7-5.5,52.1,1.7c13.6,6,22,9.3,20.6,34.2-1.4,24.9-3.3,47.9-.1,57.1,3.2,9.2,1.5,22.6,1.5,22.6h4.8c0,0,1.8-21,11-22.7,2.7-14.8,23.7-122.4-23.4-128.5-47.7-6.2-47.2-15.3-78.3-15.9-31.2-.6-87.7,9-90,49.7-2.2,40.7-2.8,96.3-2.8,96.3,0,0,.2,5.6,1.4,14.8"/>
      <g>
        <path class="cls-18" d="M874.7,254.6c8.9-31.8,34-41.1,24,1.4-7.3,30.9-10.6,33.7-25,37.6"/>
        <path class="cls-17" d="M898,246.4c.4-10.7-2-12.5-4.3-12.6s-9.4,7.2-10.5,13.4c2.7-3,6.5-7.8,9.7-7.2s5.2,6.3,5.2,6.3Z"/>
        <path class="cls-17" d="M884.2,249.1c.6,3.8,3.5,11.7-.7,18.4,6.6-3.9,7.2-15,.7-18.4Z"/>
      </g>
      <g>
        <path class="cls-18" d="M710.5,250.9c-5.9-32.1-25.2-42.2-18.8.6,4.7,31.1,7.1,34,18.3,38.4"/>
        <path class="cls-17" d="M692.5,241.9c0-10.7,2-12.4,3.8-12.4s7.1,7.5,7.7,13.7c-2-3.1-4.8-8-7.3-7.5s-4.2,6.2-4.2,6.2Z"/>
        <path class="cls-17" d="M703.3,245.1c-.6,3.7-3.2,11.6-.1,18.5-5.1-4.1-5.1-15.2.1-18.5Z"/>
      </g>
      <g class="cls-38">
        <g>
          <path class="cls-28" d="M761.2,329c.2-9.5,8.6-17.1,34.2-16.6,26.2.5,33.7,8.4,33.5,17.9"/>
          <path class="cls-12" d="M825.9,296.4c-.2,10.9-17.7,19.5-39,19.1s-38.4-9.6-38.2-20.6"/>
        </g>
        <path class="cls-30" d="M744.4,309.4c12.1,8.2,26,15.2,40.8,15.4,11,0,21.7-3.8,31.6-8.5,3.4-1.6,6.7-3.4,9.9-5.3h.1c-2.8,2.7-5.9,4.9-9.1,7-9.7,6.1-20.9,10.4-32.6,10.4-15.5-.3-30-8.2-40.8-18.9h0Z"/>
      </g>
      <g class="cls-21">
        <g>
          <circle class="cls-11" cx="747.5" cy="237.2" r="9.7"/>
          <circle cx="747.5" cy="237.2" r="4.5"/>
        </g>
      </g>
      <g class="cls-32">
        <g>
          <circle class="cls-11" cx="830.5" cy="239.1" r="9.7"/>
          <circle cx="830.5" cy="239.1" r="4.5"/>
        </g>
      </g>
      <path class="cls-29" d="M813.9,242.4c3-9,9.9-14.1,19.5-14,6.2,0,13.5.7,17.8,5.8,1.4,1.5,2.7,3.1,3.9,4.7.2.3.2.7-.1.9-.2.2-.5.2-.8,0-3.2-2.5-6.1-5.5-9.4-6.6-3.5-1.1-7.7-1.2-11.4-1.3-8.8,0-14,3.8-18.4,11.1-.4.6-1.4,0-1.1-.6h0Z"/>
      <path class="cls-30" d="M744.2,304.2c17-1.4,34.4-1.3,51.5-.8,10.3.4,20.6,1,30.9,2.3,0,0,0,.2,0,.2-13.5,1.2-27.6,1.1-41.2.9-13.8-.4-27.5-.9-41.2-2.6h0Z"/>
      <circle class="cls-12" cx="750.4" cy="234.2" r="2.1"/>
      <circle class="cls-12" cx="833.3" cy="235.6" r="2.1"/>
      <line class="cls-4" x1="629" y1="521.3" x2="603.7" y2="797"/>
      <g>
        <g>
          <path class="cls-27" d="M1116.1,645c-.9-5.7-53.7-121.8-77.9-174.9-7.5-16.5-22.1-28.7-39.7-33.1l-56-14.1,14.4,109.2,101.7,226.1"/>
          <path class="cls-18" d="M1108.8,761.8c51.6-39.5,38.6-70.2,35.9-96.2-2.9-27.8-6.4-175.9-2.1-197.6-32.1-15.7-53.1,10.7-53.1,10.7,0,0-41.8,226.4-27.5,248,14.2,21.6,33.8,45,46.8,35.1Z"/>
          <path class="cls-31" d="M1078.1,533.3l3.3-25.2s36.1,15.7,59.9,5.2l-.5,26.1"/>
          <path class="cls-27" d="M1077.3,527.7c26.2,8.9,64,2.8,64,2.8l14.3,203.4c.9,13.4-4.6,26.4-14.8,35.1l-9.5,8.1c-14.8,12.5-36.1,13.5-51.9,2.3l-8.7-6.2c-12.6-8.9-19.3-24-17.6-39.3l24.3-206.1Z"/>
          <path class="cls-17" d="M1205.8,411.7l10.6-46.4c.3-1.5-.7-2.9-2.1-3.1h0c-6-.9-11.8,2.6-13.9,8.3l-15.1,41.2s-54.1,30.5-55.4,32.4,11.8,8.7,11.8,8.7"/>
          <path class="cls-17" d="M1187.9,417.9l8.8-46.8c.3-1.5-.8-2.9-2.3-3h0c-6-.6-11.7,3-13.6,8.8l-13.5,41.8s-52.9,32.5-54.1,34.4c-1.2,1.9,12.1,8.3,12.1,8.3"/>
          <path class="cls-17" d="M1133.6,443.7l-4,2.2-4.9,2.7,11.9-28.6c2.1-5.1-2.1-10.6-7.6-9.9h0c-6.2.8-11.8,4.1-15.5,9.1-7.6,10.2-19.9,27.7-21.9,36.5-3,12.8-2.7,18-2,17.5"/>
          <path class="cls-18" d="M1122.4,448c13.8-3.7,64.7-28.9,64.7-28.9l38.2-53.4c1.3-1.8,3.3-3,5.6-3.2h0c4.1-.4,11.5,5,9.8,8.7l-27.6,65.2c-.8,1.9-2.2,3.5-3.8,4.6-12.5,8.9-69.1,42.4-70.7,43.9l-50.2,2s-4.4-23.2,7.4-30.1c11.8-6.9,25.6-8.4,25.6-8.4"/>
        </g>
        <line class="cls-4" x1="969.8" y1="560.6" x2="1024.4" y2="680.9"/>
        <line class="cls-9" x1="1073.3" y1="560.1" x2="1050" y2="672.7"/>
      </g>
      <path class="cls-19" d="M964.1,403.7c-3.9-4.4-10.3-4.9-14.8-1.6-23.1,17.4-29.1,51.4-2.6,30,20.3-16.4,21.8-23.4,17.3-28.4Z"/>
      <path class="cls-19" d="M979.1,408.3c-3.9-4.4-10.6-4.7-15.4-1.1-24.7,18.5-32.2,53.6-3.7,30.8,21.8-17.5,23.5-24.7,19.1-29.7Z"/>
      <path class="cls-19" d="M993.4,415.7c-3.9-4.4-10.7-4.6-15.6-1-25.3,18.9-33.2,54.3-4.1,31,22.3-17.8,24.1-25.1,19.7-30.1Z"/>
      <path class="cls-19" d="M996.6,424.4c-3.4-2-7.7-1-9.8,2-11.4,15.9-8.3,39.2,4.5,19.9,9.8-14.8,9.3-19.6,5.4-21.9Z"/>
      <path class="cls-31" d="M142.1,147.1h0c0-7.7-6.2-13.9-13.9-13.9h0c7.7,0,13.9-6.2,13.9-13.9h0c0,7.7,6.2,13.9,13.9,13.9h0c-7.7,0-13.9,6.2-13.9,13.9Z"/>
      <path class="cls-31" d="M1070.4,380.6h0c0-7.7-6.2-13.9-13.9-13.9h0c7.7,0,13.9-6.2,13.9-13.9h0c0,7.7,6.2,13.9,13.9,13.9h0c-7.7,0-13.9,6.2-13.9,13.9Z"/>
      <path class="cls-31" d="M1229.3,336.3h0c0-5.4-4.3-9.7-9.7-9.7h0c5.4,0,9.7-4.3,9.7-9.7h0c0,5.4,4.3,9.7,9.7,9.7h0c-5.4,0-9.7,4.3-9.7,9.7Z"/>
      <path class="cls-31" d="M1278.3,335.3h0c0-14.8-12-26.7-26.7-26.7h0c14.8,0,26.7-12,26.7-26.7h0c0,14.8,12,26.7,26.7,26.7h0c-14.8,0-26.7,12-26.7,26.7Z"/>
      <path class="cls-31" d="M1258.6,496.8h0c0-5.1-4.2-9.3-9.3-9.3h0c5.1,0,9.3-4.2,9.3-9.3h0c0,5.1,4.2,9.3,9.3,9.3h0c-5.1,0-9.3,4.2-9.3,9.3Z"/>
      <path class="cls-31" d="M31.7,432.9h0c0-14.8-12-26.7-26.7-26.7h0c14.8,0,26.7-12,26.7-26.7h0c0,14.8,12,26.7,26.7,26.7h0c-14.8,0-26.7,12-26.7,26.7Z"/>
      <path class="cls-30" d="M755.4,316c6.7,6.5,20.6,12.2,29.4,12.2s16.8-.4,31.3-11.5c0,0-16.3,7.8-30.8,7.8s-22.5-5.1-29.8-8.5Z"/>
    </g>
  </g>
</svg>